<?xml version="1.0" encoding="utf-8"?>
<!-- Generator: Adobe Illustrator 28.0.0, SVG Export Plug-In . SVG Version: 6.00 Build 0)  -->
<svg version="1.1" xmlns="http://www.w3.org/2000/svg" xmlns:xlink="http://www.w3.org/1999/xlink" x="0px" y="0px"
	 viewBox="0 0 565.6 781.6" style="enable-background:new 0 0 565.6 781.6;" xml:space="preserve">
<style type="text/css">
	.st0{fill:transparent;}
	.st1{fill:none;stroke:#333333;stroke-width:2;stroke-miterlimit:10;}
	.st2{fill:none;stroke:#231F20;stroke-width:0.25;stroke-miterlimit:10;}
	.st3{fill:#231F20;}
	.st4{fill-rule:evenodd;clip-rule:evenodd;fill:#231F20;}
	.st5{fill:#FFFFFF;}
	.st6{fill:#010101;}
	.st7{font-family:'Poppins-SemiBold';}
	.st8{font-size:3px;}
	.st9{font-size:8px;}
	.st10{font-family:'Poppins-Regular';}
	.st11{font-size:12px;}
</style>
<g id="Background">
	<rect x="0.3" y="-1.2" class="st0" width="569.4" height="783.4"/>
</g>
<g id="Lines">
	<g>
		<rect x="222.2" y="143.8" class="st1" width="40.7" height="179.4"/>
		<rect x="223" y="339.4" class="st1" width="40.7" height="84.8"/>
		<polygon class="st1" points="279.5,105.5 264.2,105.5 264.2,108 260,108 255.4,103.4 255.4,88.8 260.5,88.8 260.5,71 279.5,71 		
			"/>
		<polygon class="st1" points="279.5,446.5 279.5,369.2 298.8,369.2 298.8,341.4 516.2,341.4 516.2,447.9 		"/>
		<polygon class="st1" points="163.8,535.6 179.2,508.4 196.8,518.5 185.1,538.8 182.8,537.6 182,539.5 170.8,539.5 		"/>
		<polygon class="st1" points="492.9,263.1 490.4,316 483.2,323 279.5,323 279.5,263.1 		"/>
		<polyline class="st1" points="397,258 290.2,258 279.6,248.1 279.6,208 397,208.1 		"/>
		<rect x="279.6" y="166.1" class="st1" width="55.4" height="41.9"/>
		<polygon class="st1" points="335.2,71 335.1,166.1 279.6,166.1 279.5,71 280.7,71 		"/>
		<polygon class="st1" points="206.8,83.7 206.9,114 150.9,113.8 150.9,130.4 97,130.4 97,64.2 205.6,64.2 205.6,83.7 		"/>
		<polygon class="st1" points="206.8,146.7 206.8,180.3 97,180.3 97,130.4 150.9,130.4 150.9,146.7 		"/>
		<polygon class="st1" points="206.9,114 206.8,146.7 150.9,146.7 150.9,130.4 150.9,113.8 		"/>
		<polygon class="st1" points="206.8,180.3 206.9,235 186.1,235 186.1,211.2 169.4,211.2 169.4,209.6 151,209.6 151,180.3 		"/>
		<polygon class="st1" points="206,241.5 206,271.8 97,271.8 97,233.1 153.7,233.1 153.7,241.5 		"/>
		<polygon class="st1" points="206,271.8 206.1,321.5 189.6,337.4 97,337.4 97,271.8 		"/>
		<rect x="142.3" y="369.4" class="st1" width="63.7" height="33.3"/>
		<polyline class="st1" points="206,402.9 206,440.6 118.3,440.6 118.3,402.6 132.9,402.6 132.9,402.6 142.3,402.6 142.3,402.6 
			206,402.6 		"/>
		<polygon class="st1" points="206,440.6 174.1,495.3 131.9,470.7 131.9,440.6 		"/>
		<polygon class="st1" points="174.1,495.3 160,520.1 148.9,513.6 136.3,513.6 136.3,509.2 129.6,509.2 129.6,514.1 120.4,514.1 
			120.4,508.8 97.1,508.8 97.1,440.8 118.3,440.6 118.3,440.6 131.9,440.6 131.9,470.7 		"/>
		<polygon class="st1" points="157.6,524.1 156.7,525.9 139.6,555.9 130.4,550 97.2,550 97.2,518.8 149.8,518.8 		"/>
		<polyline class="st1" points="97.2,578.8 97.2,550 130.4,550 139.6,555.9 127.9,577 127.9,577 126.8,578.8 		"/>
		<polyline class="st1" points="126.8,578.8 108.7,610.6 97.2,610.6 97.2,578.8 		"/>
		<polygon class="st1" points="112.1,676.4 117,681.4 181.1,681.4 184.6,675.8 180.5,673.1 188.4,659.5 179.8,659.2 153.1,592.4 
			143.4,586.8 112.1,641 		"/>
		<polygon class="st1" points="182.1,554 178.7,554 162.6,553.7 143.4,586.8 153.1,592.4 179.8,659.2 188.4,659.5 193,651.5 
			202.2,656.6 228.2,611.8 228.2,589.4 208,589.4 207.8,580.3 207.8,552.9 203.3,550.2 184.1,550.2 		"/>
		<polygon class="st1" points="263.6,440.1 263.6,481.5 235,481.5 235,481.5 214.2,481.5 214.2,475.3 232.2,440.1 		"/>
		<polygon class="st1" points="281.4,510.5 263.8,542.1 223.2,542.1 214.1,535.8 214.2,481.5 263.6,481.5 263.8,500.5 		"/>
		<rect x="97" y="385.9" class="st1" width="35.9" height="16.8"/>
		<rect x="97" y="369.4" class="st1" width="35.9" height="16.5"/>
		<polyline class="st1" points="397,208.1 439.4,208.1 439.4,258 397,258 		"/>
	</g>
</g>
<g id="ALDI">
</g>
<g id="coles">
</g>
<g id="Icons">
</g>
<g id="Type">
	<g>
		<path class="st6" d="M129.3,207.5c2.5,0,4.4,2,4.4,4.4s-2,4.4-4.4,4.4c-2.5,0-4.4-2-4.4-4.4S126.8,207.5,129.3,207.5"/>
		<path class="st5" d="M127.4,211.2c0-0.3-0.2-0.5-0.5-0.5c-0.3,0-0.6,0.2-0.6,0.5c0,0.3,0.2,0.6,0.6,0.6
			C127.1,211.8,127.4,211.5,127.4,211.2"/>
		<path class="st5" d="M130.7,209.9c0-0.2-0.2-0.4-0.4-0.4c-0.2,0-0.4,0.2-0.4,0.4c0,0.2,0.2,0.4,0.4,0.4
			C130.5,210.3,130.7,210.1,130.7,209.9"/>
		<path class="st5" d="M130.9,209.6v2.4c0,0.1,0.1,0.1,0.1,0.1c0.1,0,0.1-0.1,0.1-0.1v-2.4c0-0.1-0.1-0.1-0.1-0.1
			C131,209.5,130.9,209.5,130.9,209.6"/>
		<path class="st5" d="M128.6,212L128.6,212L128.6,212L128.6,212l0.5-1c0-0.1,0-0.2-0.1-0.3c-0.1-0.1-0.2,0-0.3,0.1l-0.4,0.8h-0.8
			c-0.2,0-0.4,0-0.5,0.3c-0.1,0.3-0.1,0.7,0.1,1.1c0.2,0.4,0.5,0.7,0.7,0.8v0l1.9,0.7l0-0.8h0h2.1c0.2,0,0.4-0.1,0.4-0.3
			c0-0.2-0.2-0.3-0.4-0.3h-2.1l0,0l0-0.8l-1.4,0.5c0-0.1-0.1-0.2-0.1-0.2c0-0.1-0.2-0.3-0.2-0.3h0.3
			C128.5,212.1,128.6,212.1,128.6,212"/>
		<path class="st5" d="M129.6,210.7h0.4v0.5l0,0l-0.3-0.2l0,0c-0.1,0-0.2,0-0.2,0.1l-0.3,0.6c0,0.1,0,0.2,0.1,0.2
			c0.1,0,0.2,0,0.2-0.1l0.2-0.3l0.5,0.3c0.1,0,0.1,0.1,0.2,0.1c0.2,0,0.4-0.2,0.4-0.4l0,0v-1c0-0.1-0.1-0.2-0.3-0.2l0,0h-0.7
			c-0.1,0-0.2,0.1-0.2,0.2C129.4,210.6,129.5,210.7,129.6,210.7"/>
		<path class="st6" d="M119.1,197.9c2.5,0,4.4,2,4.4,4.4s-2,4.4-4.4,4.4c-2.5,0-4.4-2-4.4-4.4S116.7,197.9,119.1,197.9"/>
		<path class="st5" d="M117.1,202.3c0-0.3-0.2-0.5-0.5-0.5c-0.3,0-0.5,0.2-0.5,0.5c0,0.3,0.2,0.5,0.5,0.5
			C116.8,202.8,117.1,202.6,117.1,202.3"/>
		<path class="st5" d="M118,201.7L118,201.7l1.2-0.4c0.1-0.1,0.2-0.2,0.2-0.3c0-0.1-0.2-0.2-0.3-0.1l-1.2,0.4
			c-0.4,0.1-0.7,0.4-0.7,0.7v0.7c0,0.4,0.3,0.7,0.7,0.7l1.2,0.4c0.1,0.1,0.3,0,0.3-0.1c0.1-0.1,0-0.2-0.2-0.3L118,203l-0.1-0.1
			l0.1,0l2.2,0.7v-0.7h1.7c0.2,0,0.3-0.1,0.3-0.2c0-0.2-0.1-0.2-0.3-0.2h-1.6l-0.1-0.1l0.1,0h1.6c0.2,0,0.3-0.1,0.3-0.2
			c0-0.2-0.1-0.2-0.3-0.2h-1.7v-0.7L118,201.7L118,201.7z"/>
		<path class="st6" d="M119.1,207.5c2.5,0,4.4,2,4.4,4.4s-2,4.4-4.4,4.4c-2.5,0-4.4-2-4.4-4.4S116.7,207.5,119.1,207.5"/>
		<path class="st5" d="M117.1,212c0-0.3-0.2-0.5-0.5-0.5c-0.3,0-0.5,0.2-0.5,0.5c0,0.3,0.2,0.5,0.5,0.5
			C116.9,212.5,117.1,212.3,117.1,212"/>
		<path class="st5" d="M117.2,211.5v1c0,0.4,0.3,0.6,0.7,0.6h1.5c0.2,0,0.3-0.1,0.3-0.2c0-0.2-0.1-0.2-0.3-0.2H118l-0.1-0.1l0.1-0.1
			h3.9c0.1,0,0.3-0.1,0.3-0.3c0-0.2-0.1-0.3-0.3-0.3h-2.2l-0.1-0.1l0.1-0.1h2.2c0.1,0,0.3-0.1,0.3-0.3c0-0.1-0.1-0.3-0.3-0.3H118
			l-0.1-0.1l0.1-0.1h1.3c0.2,0,0.3-0.1,0.3-0.2c0-0.2-0.1-0.2-0.3-0.2h-1.5C117.5,210.8,117.2,211.1,117.2,211.5"/>
		<path class="st6" d="M233.5,140.1c2.5,0,4.4,2,4.4,4.4s-2,4.4-4.4,4.4c-2.5,0-4.4-2-4.4-4.4S231,140.1,233.5,140.1"/>
		<path class="st5" d="M231.9,145c0-0.2-0.2-0.4-0.4-0.4c-0.2,0-0.4,0.2-0.4,0.4c0,0.2,0.2,0.4,0.4,0.4
			C231.7,145.4,231.9,145.2,231.9,145"/>
		<path class="st5" d="M231.6,142v1.2c0,0.2,0.1,0.3,0.2,0.4l0.2-0.2l-0.1,0.1l-0.1,0.1h0l1,1h-0.3c-0.2,0-0.4,0.2-0.4,0.4
			c0,0.2,0.2,0.4,0.4,0.4h1.1l0.8,0.8l0,0c0.1,0.1,0.1,0.2,0.1,0.2v0.7c0,0.4,0.3,0.6,0.6,0.6c0.4,0,0.6-0.3,0.6-0.6v-1.2
			c0-0.2-0.1-0.3-0.2-0.4l-0.2,0.2l0.2-0.2l-2.6-2.6l0,0l0,0c-0.1-0.1-0.1-0.1-0.1-0.2V142c0-0.2-0.1-0.3-0.2-0.5
			c-0.1-0.1-0.3-0.2-0.5-0.2C231.9,141.4,231.6,141.7,231.6,142 M232.5,141.8c0.1,0.1,0.1,0.2,0.1,0.3v0.7c0,0.2,0.1,0.3,0.2,0.4
			l2.6,2.5h0c0.1,0.1,0.1,0.1,0.1,0.2v1.2c0,0.1,0,0.2-0.1,0.3c-0.1,0.1-0.2,0.1-0.3,0.1c-0.1,0-0.2,0-0.3-0.1
			c-0.1-0.1-0.1-0.2-0.1-0.3v-0.7c0-0.2-0.1-0.3-0.2-0.4l-0.1,0.1l0.1-0.1l-2.6-2.6c-0.1-0.1-0.1-0.1-0.1-0.2V142
			c0-0.1,0-0.2,0.1-0.3c0.1-0.1,0.2-0.1,0.3-0.1C232.4,141.7,232.4,141.7,232.5,141.8"/>
		<path class="st6" d="M202.5,520.4c2.5,0,4.4,2,4.4,4.4c0,2.5-2,4.4-4.4,4.4c-2.5,0-4.4-2-4.4-4.4C198,522.4,200,520.4,202.5,520.4
			"/>
		<path class="st5" d="M200.9,525.3c0-0.2-0.2-0.4-0.4-0.4c-0.2,0-0.4,0.2-0.4,0.4s0.2,0.4,0.4,0.4
			C200.8,525.7,200.9,525.5,200.9,525.3"/>
		<path class="st5" d="M200.6,522.3v1.2c0,0.2,0.1,0.3,0.2,0.4l0.2-0.2l-0.1,0.1l-0.1,0.1h0l1,1h-0.3c-0.2,0-0.4,0.2-0.4,0.4
			s0.2,0.4,0.4,0.4h1.1l0.8,0.8l0,0c0.1,0.1,0.1,0.2,0.1,0.2v0.7c0,0.4,0.3,0.6,0.6,0.6c0.4,0,0.6-0.3,0.6-0.6v-1.2
			c0-0.2-0.1-0.3-0.2-0.4l-0.2,0.2l0.2-0.2l-2.6-2.6l0,0l0,0c-0.1-0.1-0.1-0.1-0.1-0.2v-0.7c0-0.2-0.1-0.3-0.2-0.5
			c-0.1-0.1-0.3-0.2-0.5-0.2C200.9,521.7,200.6,522,200.6,522.3 M201.5,522.1c0.1,0.1,0.1,0.2,0.1,0.3v0.7c0,0.2,0.1,0.3,0.2,0.4
			l2.6,2.5c0.1,0.1,0.1,0.1,0.1,0.2v1.2c0,0.1,0,0.2-0.1,0.3c-0.1,0.1-0.2,0.1-0.3,0.1c-0.1,0-0.2,0-0.3-0.1
			c-0.1-0.1-0.1-0.2-0.1-0.3v-0.7c0-0.2-0.1-0.3-0.2-0.4l-0.1,0.1l0.1-0.1l-2.6-2.6c-0.1-0.1-0.1-0.1-0.1-0.2v-1.2
			c0-0.1,0-0.2,0.1-0.3c0.1-0.1,0.2-0.1,0.3-0.1C201.4,522,201.5,522,201.5,522.1"/>
		<path class="st6" d="M129.3,197.9c2.5,0,4.4,2,4.4,4.4s-2,4.4-4.4,4.4c-2.5,0-4.4-2-4.4-4.4S126.8,197.9,129.3,197.9"/>
		<path class="st5" d="M127.4,202.7c0-0.3-0.2-0.5-0.5-0.5c-0.3,0-0.5,0.2-0.5,0.5c0,0.3,0.2,0.5,0.5,0.5
			C127.2,203.2,127.4,202.9,127.4,202.7"/>
		<path class="st5" d="M131.6,202.3c0,0.8-0.6,1.4-1.4,1.4c-0.5,0-1-0.3-1.2-0.7l-0.6,0.1c0.3,0.7,1,1.2,1.8,1.2c1.1,0,2-0.9,2-1.9
			c0-0.7-0.4-1.3-0.9-1.6l-0.6,0.3C131.2,201.1,131.6,201.7,131.6,202.3"/>
		<path class="st5" d="M130.7,199.5c-0.1,0.1-0.2,0.2-0.1,0.3l0.1,0.2l-1.5,0.8v1.4l-0.5,0v-0.9c0-0.2-0.1-0.3-0.3-0.3
			s-0.3,0.1-0.3,0.3v1l-0.7,0v0.5l2.2-0.1v-1.6l1.7-0.9l-0.3-0.7C131,199.4,130.9,199.4,130.7,199.5"/>
		<path class="st6" d="M236.9,566.8c2.5,0,4.4,2,4.4,4.4c0,2.5-2,4.4-4.4,4.4c-2.5,0-4.4-2-4.4-4.4
			C232.4,568.8,234.4,566.8,236.9,566.8"/>
		<path class="st5" d="M235,570.5c0-0.3-0.2-0.5-0.5-0.5c-0.3,0-0.5,0.2-0.5,0.5c0,0.3,0.2,0.5,0.5,0.5
			C234.7,571,235,570.8,235,570.5"/>
		<path class="st5" d="M238.3,569.1c0-0.2-0.2-0.4-0.4-0.4c-0.2,0-0.4,0.2-0.4,0.4c0,0.2,0.2,0.4,0.4,0.4
			C238.1,569.5,238.3,569.4,238.3,569.1"/>
		<path class="st5" d="M238.5,568.9v2.4c0,0.1,0.1,0.1,0.1,0.1c0.1,0,0.1-0.1,0.1-0.1v-2.4c0-0.1-0.1-0.1-0.1-0.1
			C238.6,568.7,238.5,568.8,238.5,568.9"/>
		<path class="st5" d="M236.2,571.3L236.2,571.3L236.2,571.3L236.2,571.3l0.5-1c0-0.1,0-0.2-0.1-0.3c-0.1-0.1-0.2,0-0.3,0.1
			l-0.4,0.8h-0.8c-0.2,0-0.4,0-0.5,0.3c-0.1,0.3-0.1,0.7,0.1,1.1c0.2,0.4,0.5,0.7,0.7,0.8v0l1.9,0.7l0-0.8h0h2.1
			c0.2,0,0.4-0.1,0.4-0.3c0-0.2-0.2-0.3-0.4-0.3h-2.1l0,0l0-0.8L236,572c0-0.1-0.1-0.2-0.1-0.2c0-0.1-0.2-0.3-0.2-0.3h0.3
			C236.1,571.4,236.2,571.4,236.2,571.3"/>
		<path class="st5" d="M237.2,570h0.4v0.5l0,0l-0.3-0.2l0,0c-0.1,0-0.2,0-0.2,0.1l-0.3,0.6c0,0.1,0,0.2,0.1,0.2c0.1,0,0.2,0,0.2-0.1
			l0.2-0.3l0.5,0.3c0.1,0,0.1,0.1,0.2,0.1c0.2,0,0.4-0.2,0.4-0.4l0,0v-1c0-0.1-0.1-0.2-0.3-0.2l0,0h-0.7c-0.1,0-0.2,0.1-0.2,0.2
			C237,569.9,237.1,570,237.2,570"/>
		<path class="st6" d="M226.7,557.1c2.5,0,4.4,2,4.4,4.4s-2,4.4-4.4,4.4c-2.4,0-4.4-2-4.4-4.4S224.3,557.1,226.7,557.1"/>
		<path class="st5" d="M224.7,561.6c0-0.3-0.2-0.5-0.5-0.5c-0.3,0-0.5,0.2-0.5,0.5c0,0.3,0.2,0.5,0.5,0.5
			C224.5,562.1,224.7,561.9,224.7,561.6"/>
		<path class="st5" d="M225.6,560.9L225.6,560.9l1.2-0.4c0.1-0.1,0.2-0.2,0.2-0.3c0-0.1-0.2-0.2-0.3-0.1l-1.2,0.4
			c-0.4,0.1-0.7,0.4-0.7,0.7v0.7c0,0.4,0.3,0.7,0.7,0.7l1.2,0.4c0.2,0.1,0.3,0,0.3-0.1c0.1-0.1,0-0.2-0.2-0.3l-1.2-0.3l-0.1-0.1
			l0.1,0l2.2,0.7v-0.7h1.7c0.1,0,0.3-0.1,0.3-0.2c0-0.2-0.1-0.2-0.3-0.2H228l-0.1-0.1l0.1,0h1.6c0.1,0,0.3-0.1,0.3-0.2
			s-0.1-0.2-0.3-0.2h-1.7v-0.7L225.6,560.9L225.6,560.9z"/>
		<path class="st6" d="M226.7,566.8c2.5,0,4.4,2,4.4,4.4c0,2.5-2,4.4-4.4,4.4c-2.4,0-4.4-2-4.4-4.4
			C222.3,568.8,224.3,566.8,226.7,566.8"/>
		<path class="st5" d="M224.7,571.2c0-0.3-0.2-0.5-0.5-0.5c-0.3,0-0.5,0.2-0.5,0.5c0,0.3,0.2,0.5,0.5,0.5
			C224.5,571.7,224.7,571.5,224.7,571.2"/>
		<path class="st5" d="M224.8,570.7v1c0,0.4,0.3,0.6,0.7,0.6h1.5c0.2,0,0.3-0.1,0.3-0.2c0-0.2-0.1-0.2-0.3-0.2h-1.3l-0.1,0l0.1-0.1
			h3.9c0.1,0,0.3-0.1,0.3-0.3c0-0.2-0.1-0.3-0.3-0.3h-2.2l-0.1-0.1l0.1-0.1h2.2c0.1,0,0.3-0.1,0.3-0.3c0-0.1-0.1-0.3-0.3-0.3h-3.9
			l-0.1-0.1l0.1-0.1h1.3c0.2,0,0.3-0.1,0.3-0.2c0-0.2-0.1-0.2-0.3-0.2h-1.5C225.1,570.1,224.8,570.4,224.8,570.7"/>
		<path class="st6" d="M236.9,557.1c2.5,0,4.4,2,4.4,4.4s-2,4.4-4.4,4.4c-2.5,0-4.4-2-4.4-4.4S234.4,557.1,236.9,557.1"/>
		<path class="st5" d="M235,561.9c0-0.3-0.2-0.5-0.5-0.5c-0.3,0-0.5,0.2-0.5,0.5c0,0.3,0.2,0.5,0.5,0.5
			C234.8,562.4,235,562.2,235,561.9"/>
		<path class="st5" d="M239.2,561.6c0,0.8-0.6,1.4-1.4,1.4c-0.5,0-1-0.3-1.2-0.7l-0.6,0.1c0.3,0.7,1,1.2,1.8,1.2c1.1,0,2-0.9,2-1.9
			c0-0.7-0.4-1.3-0.9-1.6l-0.6,0.3C238.8,560.4,239.2,560.9,239.2,561.6"/>
		<path class="st5" d="M238.4,558.7c-0.1,0.1-0.2,0.2-0.1,0.3l0.1,0.2l-1.5,0.8v1.4l-0.5,0v-0.9c0-0.1-0.1-0.3-0.3-0.3
			s-0.3,0.1-0.3,0.3v1l-0.7,0v0.5l2.2-0.1v-1.6l1.7-0.9l-0.3-0.7C238.6,558.7,238.5,558.6,238.4,558.7"/>
		<path class="st6" d="M197.1,478.6c2.5,0,4.4,2,4.4,4.4c0,2.5-2,4.4-4.4,4.4c-2.4,0-4.4-2-4.4-4.4
			C192.7,480.6,194.7,478.6,197.1,478.6"/>
		<path class="st5" d="M199.3,482.2c0,0.2-0.1,0.3-0.2,0.3c-0.1,0-0.2,0-0.3-0.1c0-0.1,0-0.1,0-0.2l0,0l-0.2,0c0,0.1,0,0.1,0,0.2
			l0,0.1c-0.2,0.1-0.6,0-1.1-0.2l-0.1,0c0,0.1,0.1,0.2,0.1,0.4c0,0.1,0.1,0.2,0.1,0.3l0.1,0c0.1,0.1,0.1,0.2,0.1,0.3l0,0.1l0,0.1
			c-0.1,0.1-0.1,0.2-0.2,0.3c0.3-0.1,0.6-0.1,0.8-0.1l0.1,0.1c0,0.1,0,0.1,0,0.2c0.1,0,0.2,0,0.3,0l0-0.1c0-0.1,0.1-0.2,0.1-0.2
			c0.1,0,0.2,0,0.3,0c0.1,0.1,0.1,0.2,0.1,0.3c-0.1,0.2-0.4,0.2-0.8,0.2c0,0.1,0,0.2,0,0.2c0,0.1,0,0.2,0,0.3l0.1,0
			c0.2,0,0.6-0.1,0.7,0.2c0,0.1,0,0.2-0.1,0.3c-0.1,0.1-0.2,0-0.3,0c0,0-0.1-0.1,0-0.2l-0.1,0l-0.1,0l0,0.1l0,0.1l-0.1,0
			c-0.3,0-0.5,0-0.8,0h-0.2c0,0.4,0,0.7-0.1,0.9l0,0c0.1,0.1,0,0.2,0,0.2c-0.1,0.1-0.3,0.2-0.5,0.1c0,0-0.2-0.1,0-0.4
			c0.1-0.1,0.2-0.1,0.2-0.1l0.1,0c0-0.2,0.1-0.4,0.1-0.6c-0.2,0.2-0.4,0.4-0.7,0.4c-0.2,0-0.4-0.1-0.5-0.2l-0.3,0.1l-0.1,0l0-0.1
			l0.2-0.1l-0.1-0.2c-0.1,0-0.2,0-0.3,0.1l-0.1,0l0-0.1c0.1,0,0.2-0.1,0.3-0.1c0-0.1,0-0.2,0-0.2c-0.1,0-0.3,0-0.3,0l-0.1-0.1
			l0.1-0.1c0.1,0,0.2,0,0.3,0l0-0.2c-0.1,0-0.2-0.1-0.3-0.2l0-0.1l0.1,0c0.1,0.1,0.2,0.1,0.3,0.1c0.2-0.3,0.4-0.5,0.7-0.5
			c0.2,0,0.4,0.1,0.6,0.2l0.1-0.1c0.1-0.1,0.2-0.2,0.2-0.3l-0.1-0.1l-0.1-0.2c0-0.1,0.1-0.2,0.1-0.2c0-0.1-0.1-0.2-0.1-0.3
			c0-0.1-0.1-0.3-0.1-0.4c-0.2,0.2-0.4,0.4-0.8,0.4c-0.2,0-0.4-0.1-0.6-0.2c0,0.1-0.1,0.1-0.2,0.1l-0.1,0l-0.1,0.1
			c-0.1,0.1-0.3,0.1-0.5,0.1l-0.1,0l-0.1,0l0-0.1l0-0.1c0.1-0.2,0.2-0.5,0.5-0.4l0-0.1l0.1-0.1c0-0.1-0.1-0.2-0.1-0.4h0l-0.1-0.1v0
			l0.1-0.1l0,0c0-0.3,0.2-0.6,0.5-0.7l0-0.1c-0.1,0-0.1,0-0.2-0.1c-0.1-0.1-0.1-0.3-0.1-0.5v0l0-0.1l0.1,0l0.2,0.1
			c0.1,0.1,0.3,0.1,0.3,0.2l0,0.1l0.1,0.1l0,0.1l0.1,0l0.1,0l0.1,0c0.2,0.1,0.4,0.3,0.5,0.5c0.1-0.1,0.2-0.2,0.3-0.4l0.2-0.2
			c0-0.1-0.1-0.1-0.1-0.2c0-0.1,0.1-0.1,0.1-0.2c0.1,0,0.2,0,0.3,0.1c0.1,0.1,0.1,0.3,0,0.3c0,0-0.1,0.1-0.2,0.1l-0.1,0l-0.2,0.2
			c-0.1,0.1-0.1,0.1-0.2,0.2c0.5-0.1,0.8-0.2,1-0.1c0.1,0,0.1,0.1,0.1,0.3l0.1,0c-0.1-0.1,0-0.2,0-0.2c0.1-0.1,0.2-0.1,0.3-0.1
			c0,0,0.2,0.1,0.2,0.3v0c0,0.1,0,0.2-0.1,0.2c-0.1,0.1-0.3,0.1-0.4,0c0,0.1,0,0.3,0,0.4l0.1,0c0.1,0,0.3,0,0.4,0.1
			C199.3,482,199.3,482.1,199.3,482.2L199.3,482.2z M198.4,482.2c0.1-0.3,0.1-0.6,0.1-0.8l0-0.1l0,0l0-0.1c-0.2-0.1-0.8,0.1-1.1,0.2
			c0,0.2,0,0.4,0,0.6c0.1,0,0.1,0,0.2,0.1C197.8,482.1,198.3,482.3,198.4,482.2 M197.4,484.7l0.2,0c0.2,0,0.4,0,0.7,0
			c0-0.1,0-0.3,0-0.5c0-0.1,0-0.2,0-0.3l-0.1-0.1l0-0.1l0-0.1c-0.3,0-0.6,0.1-0.9,0.2C197.4,484.1,197.5,484.5,197.4,484.7
			 M196,484.9c0.1,0.2,0.3,0.4,0.6,0.4c0.4,0,0.7-0.4,0.7-0.8c0-0.4-0.3-0.8-0.7-0.8c-0.4,0-0.7,0.4-0.7,0.8c0,0.1,0,0.2,0,0.3
			L196,484.9L196,484.9 M196.3,482.4c0.1,0,0.1,0,0.2,0c0.4,0,0.7-0.4,0.7-0.8l0-0.2l0-0.1c-0.1-0.2-0.2-0.4-0.4-0.5
			c-0.1,0.3-0.5,0.7-0.9,0.7c0.1,0.1,0.2,0.2,0.3,0.3C196.3,482.1,196.3,482.2,196.3,482.4 M195.8,481.4c0.3,0,0.7-0.2,0.8-0.6
			l-0.1,0h0l-0.1,0C196.1,480.8,195.9,481.1,195.8,481.4 M196.2,480.4L196.2,480.4c0-0.1-0.1-0.1-0.2-0.2l-0.1,0
			c0,0.1,0,0.2,0.1,0.2l0.1,0L196.2,480.4L196.2,480.4 M196.1,482.3c0-0.1,0-0.2-0.1-0.3c-0.1-0.1-0.2-0.2-0.3-0.3
			C195.8,482,195.9,482.2,196.1,482.3 M195.2,482.6c0.1,0,0.2,0,0.3-0.1l0-0.1v0l0,0l0,0l0,0C195.4,482.3,195.3,482.4,195.2,482.6
			 M197.1,481.6L197.1,481.6c0,0.3-0.2,0.6-0.5,0.7l-0.1-0.1l0.1-0.1c0.2-0.1,0.4-0.3,0.4-0.5c0-0.1,0-0.2-0.2-0.3l-0.1-0.1l0.1,0
			C197,481.3,197.1,481.5,197.1,481.6 M197.1,484.4c0,0.2-0.1,0.4-0.3,0.6l-0.1,0l0-0.1c0.2-0.1,0.2-0.4,0.2-0.6
			c0-0.1-0.1-0.2-0.3-0.2l-0.1-0.1l0.1-0.1c0.2,0,0.4,0.2,0.4,0.4L197.1,484.4 M196.7,481.5c0,0.1-0.1,0.1-0.1,0.1
			c-0.1,0-0.1-0.1-0.1-0.1c0-0.1,0.1-0.1,0.1-0.1C196.7,481.4,196.7,481.5,196.7,481.5 M196.6,482c0,0.1-0.1,0.1-0.1,0.1
			c-0.1,0-0.1-0.1-0.1-0.1c0-0.1,0.1-0.1,0.1-0.1C196.6,481.8,196.6,481.9,196.6,482 M196.5,484.7c0,0.1-0.1,0.1-0.1,0.1
			s-0.1-0.1-0.1-0.1c0-0.1,0.1-0.1,0.1-0.1S196.5,484.6,196.5,484.7 M196.4,484.3c0,0.1-0.1,0.1-0.1,0.1c-0.1,0-0.1-0.1-0.1-0.1
			c0-0.1,0.1-0.1,0.1-0.1C196.4,484.1,196.4,484.2,196.4,484.3"/>
		<path class="st3" d="M281.4,472.2c2.5,0,4.5,2,4.5,4.5c0,2.5-2,4.5-4.5,4.5c-2.5,0-4.5-2-4.5-4.5
			C276.9,474.2,278.9,472.2,281.4,472.2"/>
		<path class="st5" d="M280.6,474.8c0-0.2,0.1-0.2,0.2-0.1l2.4,1.9c0.1,0.1,0.1,0.2,0,0.3l-2.4,1.9c-0.1,0.1-0.2,0-0.2-0.1V474.8z"
			/>
		<path class="st3" d="M281.4,491.2c-2.5,0-4.5-2-4.5-4.5c0-2.5,2-4.5,4.5-4.5c2.5,0,4.5,2,4.5,4.5
			C285.9,489.2,283.9,491.2,281.4,491.2"/>
		<path class="st5" d="M282.2,488.6c0,0.2-0.1,0.2-0.2,0.1l-2.4-1.9c-0.1-0.1-0.1-0.2,0-0.3l2.4-1.9c0.1-0.1,0.2,0,0.2,0.1V488.6z"
			/>
		<path class="st3" d="M174.2,216.7c2.5,0,4.5,2,4.5,4.5c0,2.5-2,4.5-4.5,4.5c-2.5,0-4.5-2-4.5-4.5
			C169.7,218.7,171.7,216.7,174.2,216.7"/>
		<path class="st5" d="M173.4,219.2c0-0.2,0.1-0.2,0.2-0.1l2.4,1.9c0.1,0.1,0.1,0.2,0,0.3l-2.4,1.9c-0.1,0.1-0.2,0-0.2-0.2V219.2z"
			/>
		<path class="st3" d="M174.2,235.7c-2.5,0-4.5-2-4.5-4.5c0-2.5,2-4.5,4.5-4.5c2.5,0,4.5,2,4.5,4.5
			C178.7,233.7,176.7,235.7,174.2,235.7"/>
		<path class="st5" d="M175,233.1c0,0.2-0.1,0.2-0.2,0.1l-2.4-1.9c-0.1-0.1-0.1-0.2,0-0.3l2.4-1.9c0.1-0.1,0.2,0,0.2,0.1V233.1z"/>
		<path d="M125.5,344.2c2.5,0,4.4,2,4.4,4.4s-2,4.4-4.4,4.4c-2.5,0-4.4-2-4.4-4.4S123,344.2,125.5,344.2"/>
		<path class="st5" d="M123.8,347.2l-0.3,1.3l1.5-2L123.8,347.2z M126,349.2L126,349.2c0.2-0.3,0.4-0.3,0.5-0.2
			c0.2,0.1,0.2,0.3,0,0.5l-0.1,0.1L126,349.2z M126.8,349.6c0.1-0.2,0.2-0.3,0.2-0.5s-0.1-0.3-0.2-0.4c-0.1-0.1-0.3-0.1-0.4-0.1
			c-0.1,0-0.2,0-0.2,0.1c-0.1,0.1-0.1,0.1-0.2,0.3l-0.2,0.3l1.5,1.1l0.2-0.2l-0.6-0.5L126.8,349.6z M128.5,349.1l-1.6,2.1
			c-0.2,0.2-0.5,0.3-0.7,0.1l-3.4-2.5c-0.2-0.2-0.3-0.5-0.1-0.7l1.6-2.1c0.2-0.2,0.5-0.3,0.7-0.1l3.4,2.5
			C128.6,348.6,128.7,348.9,128.5,349.1"/>
		<path class="st6" d="M291,332.2c2.6,0,4.8,2.1,4.8,4.8c0,2.6-2.1,4.8-4.8,4.8c-2.6,0-4.8-2.1-4.8-4.8
			C286.3,334.3,288.4,332.2,291,332.2"/>
		<polygon class="st5" points="292.9,339.7 292.9,338.7 291.9,338.7 291.9,337.7 290.9,337.7 290.9,336.7 289.9,336.7 289.9,335.7 
			288.9,335.7 288.9,334.2 289.4,334.2 289.4,335.2 290.4,335.2 290.4,336.2 291.4,336.2 291.4,337.2 292.4,337.2 292.4,338.2 
			293.4,338.2 293.4,339.7 		"/>
		<path class="st3" d="M291,348.4c2.5,0,4.5,2,4.5,4.5c0,2.5-2,4.5-4.5,4.5c-2.5,0-4.5-2-4.5-4.5C286.5,350.4,288.6,348.4,291,348.4
			"/>
		<path class="st5" d="M290.2,351c0-0.2,0.1-0.2,0.2-0.1l2.4,1.9c0.1,0.1,0.1,0.2,0,0.3l-2.4,1.9c-0.1,0.1-0.2,0-0.2-0.1V351z"/>
		<path class="st3" d="M291,367.4c-2.5,0-4.5-2-4.5-4.5c0-2.5,2-4.5,4.5-4.5c2.5,0,4.5,2,4.5,4.5C295.5,365.4,293.5,367.4,291,367.4
			"/>
		<path class="st5" d="M291.8,364.8c0,0.2-0.1,0.2-0.2,0.1l-2.4-1.9c-0.1-0.1-0.1-0.2,0-0.3l2.4-1.9c0.1-0.1,0.2,0,0.2,0.1V364.8z"
			/>
	</g>
	<g>
		<text transform="matrix(0 -1 1 0 244.1009 336.6351)" class="st3 st7 st8">BRIDGE</text>
		<text transform="matrix(0 -1 1 0 305.5954 127.7664)" class="st3 st7 st8">SHERIDAN</text>
		<text transform="matrix(0 -1 1 0 305.5951 193.5574)" class="st3 st7 st8">PAPAYA</text>
		<text transform="matrix(0 -1 1 0 346.1638 238.5506)" class="st3 st7 st8">ADAIRS</text>
		<text transform="matrix(0 -1 1 0 393.3095 304.91)"><tspan x="0" y="0" class="st3 st7 st8">COTTON ON</tspan><tspan x="4.6" y="3.6" class="st3 st7 st8">MEGA</tspan></text>
		<text transform="matrix(0 -1 1 0 241.7801 469.8231)" class="st3 st7 st8">HYPE D.C</text>
		<text transform="matrix(0 -1 1 0 241.7802 518.8919)" class="st3 st7 st8">MACPAC</text>
		<text transform="matrix(0 -1 1 0 183.4039 600.9163)" class="st3 st7 st8">PUMA</text>
		<text transform="matrix(0 -1 1 0 145.2453 658.4617)" class="st3 st7 st8">KATHMANDU</text>
		<text transform="matrix(0 -1 1 0 109.9321 588.0242)" class="st3 st7 st8">ICEBREAKER</text>
		<text transform="matrix(0 -1 1 0 122.1724 544.5115)"><tspan x="0" y="0" class="st3 st7 st8">THE ACADEMY</tspan><tspan x="5.4" y="3.6" class="st3 st7 st8">BRAND</tspan></text>
		<text transform="matrix(0 -1 1 0 120.4563 524.1751)" class="st3 st7 st8"> </text>
		<text transform="matrix(0 -1 1 0 117.4256 487.7977)" class="st3 st7 st8">SUPERDRY</text>
		<text transform="matrix(0 -1 1 0 165.1617 471.0662)"><tspan x="0" y="0" class="st3 st7 st8">ADVENTURE</tspan><tspan x="-0.3" y="3.6" class="st3 st7 st8">MEGASTORE</tspan></text>
		<text transform="matrix(0 -1 1 0 168.7828 432.282)" class="st3 st7 st8">NEW BALANCE</text>
		<text transform="matrix(0 -1 1 0 146.7434 321.1395)" class="st3 st7 st8">BED BATH Nʼ TABLE</text>
		<text transform="matrix(0 -1 1 0 146.7434 260.0438)" class="st3 st7 st8">SKECHERS</text>
		<text transform="matrix(0 -1 1 0 138.2728 160.4285)" class="st3 st7 st8">ASICS</text>
		<text transform="matrix(0 -1 1 0 138.2727 102.9559)" class="st3 st7 st8">ADIDAS</text>
		<text transform="matrix(0 -1 1 0 182.3073 140.8856)" class="st3 st7 st8">LEE WRANGLER</text>
		<text transform="matrix(0 -1 1 0 175.0888 198.2342)"><tspan x="0" y="0" class="st3 st7 st8">THE</tspan><tspan x="-2.4" y="3.6" class="st3 st7 st8">NORTH</tspan><tspan x="-1.1" y="7.2" class="st3 st7 st8">FACE</tspan></text>
		<text transform="matrix(0 -1 1 0 168.7827 392.2015)" class="st3 st7 st8">INSPORT</text>
		<text transform="matrix(0 -1 1 0 396.9913 402.72)" class="st3 st7 st8">SPOTLIGHT</text>
		<text transform="matrix(0 -1 1 0 109.6552 360.803)"><tspan x="0" y="0" class="st3 st7 st8">BRIDGE TO</tspan><tspan x="0.6" y="3.6" class="st3 st7 st8">CARPARK</tspan></text>
		<g>
			<text transform="matrix(0 -1 1 0 103.8165 644.9446)" class="st3 st7 st9">ENTRY</text>
		</g>
		<text transform="matrix(0.5137 -0.858 0.858 0.5137 148.923 553.1255)"><tspan x="0" y="0" class="st3 st7 st8">TO STREET</tspan><tspan x="3.6" y="3.6" class="st3 st7 st8">LEVEL</tspan></text>
		<text transform="matrix(-1.100000e-04 -1 1 -1.100000e-04 200.916 359.8928)"><tspan x="0" y="0" class="st3 st7 st8">TO STREET</tspan><tspan x="3.6" y="3.6" class="st3 st7 st8">LEVEL</tspan></text>
		<text transform="matrix(0 -1 1 0 268.7557 101.7596)" class="st3 st7 st8">CAFÉ MILLIGRAM</text>
		<text transform="matrix(0 -1 1 0 309.6612 130.2576)" class="st3 st10 st8">SHOP 326/327</text>
		<text transform="matrix(0 -1 1 0 309.5211 194.5115)" class="st3 st10 st8">SHOP 325</text>
		<text transform="matrix(0 -1 1 0 350.1709 241.0506)" class="st3 st10 st8">SHOP 300A</text>
		<text transform="matrix(0 -1 1 0 401.2837 303.8592)" class="st3 st10 st8">SHOP 300B</text>
		<text transform="matrix(0 -1 1 0 303.4987 373.9402)" class="st3 st10 st8">TO SPOTLIGHT ONLY</text>
		<text transform="matrix(0 -1 1 0 246.4578 473.3528)" class="st3 st10 st8">SHOP 335/336</text>
		<text transform="matrix(0 -1 1 0 246.3182 519.0018)" class="st3 st10 st8">SHOP 337</text>
		<text transform="matrix(0 -1 1 0 188.2048 606.7757)" class="st3 st10 st8">SHOP 338/339</text>
		<text transform="matrix(0 -1 1 0 150.848 655.8367)" class="st3 st10 st8">SHOP 340</text>
		<text transform="matrix(0 -1 1 0 114.3181 588.8455)" class="st3 st10 st8">SHOP 330/331</text>
		<text transform="matrix(0 -1 1 0 130.7868 540.8533)" class="st3 st10 st8">SHOP 332</text>
		<text transform="matrix(0 -1 1 0 122.0771 487.1224)" class="st3 st10 st8">SHOP 333</text>
		<text transform="matrix(0 -1 1 0 173.7526 472.8172)" class="st3 st10 st8">SHOP 314 / 334</text>
		<text transform="matrix(0 -1 1 0 173.6126 428.1292)" class="st3 st10 st8">SHOP 313</text>
		<text transform="matrix(0 -1 1 0 150.8728 318.4002)" class="st3 st10 st8">SHOP 308 / 309</text>
		<text transform="matrix(0 -1 1 0 150.8728 263.3328)" class="st3 st10 st8">SHOP 306 / 307</text>
		<text transform="matrix(0 -1 1 0 142.5854 162.9432)" class="st3 st10 st8">SHOP 303</text>
		<text transform="matrix(0 -1 1 0 142.5855 103.8572)" class="st3 st10 st8">SHOP 301</text>
		<text transform="matrix(0 -1 1 0 186.4466 136.9197)" class="st3 st10 st8">SHOP 302</text>
		<text transform="matrix(0 -1 1 0 273.0107 96.4559)" class="st3 st10 st8">SHOP 328</text>
		<text transform="matrix(0 -1 1 0 186.5863 206.2635)" class="st3 st10 st8">SHOP 304 / 305</text>
		<text transform="matrix(0 -1 1 0 173.7526 395.3577)" class="st3 st10 st8">SHOP 311 / 312</text>
		<text transform="matrix(0 -1 1 0 401.2838 401.222)" class="st3 st10 st8">SHOP 100</text>
		<text transform="matrix(0 -1 1 0 182.1162 531.2156)" class="st3 st10 st8">KIOSK K5</text>
	</g>
</g>
</svg>
