<?xml version="1.0" encoding="utf-8"?>
<!-- Generator: Adobe Illustrator 28.0.0, SVG Export Plug-In . SVG Version: 6.00 Build 0)  -->
<svg version="1.1" xmlns="http://www.w3.org/2000/svg" xmlns:xlink="http://www.w3.org/1999/xlink" x="0px" y="0px"
	 viewBox="0 0 565.6 781.6" style="enable-background:new 0 0 565.6 781.6;" xml:space="preserve">
<style type="text/css">
	.st0{fill:transparent;}
	.st1{fill:none;stroke:#333333;stroke-width:2;stroke-miterlimit:10;}
	.st2{fill:none;stroke:#231F20;stroke-width:0.25;stroke-miterlimit:10;}
	.st3{fill:#231F20;}
	.st4{fill-rule:evenodd;clip-rule:evenodd;fill:#231F20;}
	.st5{fill:#FFFFFF;}
	.st6{fill:#010101;}
	.st7{font-family:'Poppins-Regular';}
	.st8{font-size:3px;}
	.st9{font-family:'Poppins-SemiBold';}
	.st10{font-size:8px;}
	.st11{font-size:12px;}
</style>
<g id="Background">
	<rect x="-1.6" y="-1.2" class="st0" width="569.4" height="783.4"/>
</g>
<g id="Lines">
	<g>
		<polyline class="st1" points="396,245.5 395.9,246.4 395.8,246.3 395.6,248.8 395.8,248.8 395.7,251.2 395.5,251.2 395.4,253.6 
			395.5,253.6 395.4,256 395.3,256 395.1,258.4 395.3,258.4 395.2,260.8 395,260.8 394.9,263.2 395,263.2 394.9,265.6 394.7,265.6 
			394.6,268 394.8,268 394.6,270.4 394.5,270.4 394.3,272.8 394.5,272.8 394.4,275.2 394.2,275.2 394.1,277.6 394.3,277.6 
			394.1,280.1 394,280 393.8,282.4 394,282.5 393.9,284.9 393.7,284.9 393.6,287.3 393.7,287.3 393.6,289.7 393.4,289.7 
			393.3,292.1 393.5,292.1 393.3,294.5 393.2,294.5 393,296.9 393.2,296.9 393.1,299.3 392.9,299.3 392.8,301.7 393,301.7 
			392.8,304.1 392.7,304.1 392.5,306.5 392.7,306.5 392.6,308.9 392.4,308.9 392.3,311.3 392.4,311.3 392.3,313.7 392.1,313.7 
			392,316.1 392.2,316.2 392,318.6 391.9,318.5 391.7,321 391.9,321 391.8,323.4 391.6,323.4 391.5,325.8 391.7,325.8 391.5,328.2 
			391.4,328.2 391.2,330.6 391.4,330.6 391.3,333 391.1,333 391,335.4 391.1,335.4 391,337.8 390.8,337.8 390.7,340.2 390.9,340.2 
			390.7,342.6 390.6,342.6 390.4,345 390.6,345 390.5,347.4 390.3,347.4 390.2,349.8 390.4,349.8 390.2,352.3 390.1,352.2 
			389.9,354.6 390.1,354.7 390,357.1 389.8,357.1 389.7,359.5 389.8,359.5 389.7,361.9 389.5,361.9 389.4,364.3 389.6,364.3 
			389.5,366.7 389.3,366.7 389.2,369.1 389.3,369.1 389.2,371.5 389,371.5 388.9,373.9 389.1,373.9 388.9,376.3 388.8,376.3 
			388.6,378.7 388.8,378.7 388.7,381.1 388.5,381.1 388.4,383.5 388.5,383.5 388.4,385.9 388.2,385.9 388.1,388.3 388.3,388.4 
			388.2,390.8 388,390.7 387.9,393.2 388,393.2 		"/>
		<polyline class="st1" points="388.6,132 390,132 390,132.1 391.1,132.1 391.1,133.2 391.2,133.2 391.2,135.7 391.1,135.7 
			391.1,137 392.4,137 392.4,136.9 395.2,136.9 395.2,137 397.9,137 397.9,136.9 400.6,136.9 400.6,137 401.7,137 401.6,138 
			401.8,138.1 401.6,140.5 401.5,140.5 401.3,142.9 401.5,142.9 401.4,145.3 401.2,145.3 401.1,147.7 401.3,147.7 401.1,150.1 
			401,150.1 400.8,152.5 401,152.5 400.9,154.9 400.7,154.9 400.6,157.3 400.7,157.3 400.6,159.7 400.4,159.7 400.3,162.1 
			400.5,162.1 400.4,164.5 400.2,164.5 		"/>
		<polyline class="st1" points="288.9,347.4 288.9,345 289,345 289,342.6 288.9,342.6 288.9,340.2 289,340.2 289,337.8 288.9,337.8 
			288.9,335.4 289,335.4 289,333 288.9,333 288.9,330.7 289,330.7 289,328.3 288.9,328.3 288.9,325.9 289,325.9 289,323.5 
			288.9,323.5 288.9,321.1 289,321.1 289,318.7 288.9,318.7 288.9,316.3 289,316.3 289,313.9 288.9,313.9 288.9,311.5 289,311.5 
			289,309.2 288.9,309.2 288.9,306.8 289,306.8 289,304.4 288.9,304.4 288.9,302 289,302 289,299.6 288.9,299.6 288.9,297.2 
			289,297.2 289,294.8 288.9,294.8 288.9,292.4 289,292.4 289,290 288.9,290 288.9,287.7 289,287.7 289,285.3 288.9,285.3 
			288.9,282.9 289,282.9 289,280.5 288.9,280.5 288.9,278.1 289,278.1 289,275.7 288.9,275.7 288.9,273.3 289,273.3 289,270.9 
			288.9,270.9 288.9,268.5 289,268.5 289,266.2 288.9,266.2 288.9,265 		"/>
		<polyline class="st1" points="288.9,394 288.9,392.8 289,392.8 289,390.4 288.9,390.4 288.9,388 289,388 289,385.6 288.9,385.6 
			288.9,383.2 289,383.2 289,380.8 288.9,380.8 288.9,378.4 289,378.4 289,376 288.9,376 288.9,373.6 289,373.6 		"/>
		<polygon class="st1" points="159.3,432.8 146.6,432.8 146.6,499.6 156.4,509.5 156.4,513.3 156.4,533.3 184,533.3 184,538.6 
			208,538.6 208,513.9 204.4,513.9 204.4,499.6 204.4,395 159.3,395 		"/>
		<polygon class="st1" points="197.2,547.8 180.7,547.8 175.5,547.8 163.2,547.8 155.1,555.6 155.1,567.1 165.8,567.1 165.8,584 
			197.2,584 		"/>
		<polygon class="st1" points="197.2,584 165.8,584 165.8,567.1 134.9,567.1 134.9,616.1 179.3,616.1 182.3,617.6 197.2,617.6 		"/>
		<polygon class="st1" points="243.6,645 243.6,595.3 240.6,595.3 240.6,510.5 244.3,510.5 244.3,395 409.5,395 409.5,490.9 
			409.5,514.6 417.7,514.6 397.4,645 340,645 		"/>
		<polygon class="st1" points="340.7,147.4 361.7,147.4 363.2,122.8 357.3,122.8 357.2,104.3 340.7,104.3 		"/>
		<polygon class="st1" points="384.5,243.5 417.1,243.7 419.3,191.6 408.3,191.7 409,166.9 386.4,166.9 		"/>
		<polygon class="st1" points="386.5,147.4 387.6,124.9 363.2,122.8 361.7,147.4 		"/>
		<polygon class="st1" points="340.7,147.4 340.7,104.3 317.2,104.3 317.2,109.7 297.5,109.7 297.5,129.8 328.5,129.8 328.5,144.3 
			317.6,144.3 317.6,147.4 		"/>
		<rect x="215.6" y="466.1" class="st1" width="15.4" height="26.5"/>
		<rect x="225.8" y="256.8" class="st1" width="12.6" height="26.1"/>
		<polygon class="st1" points="296.6,155.9 307,155.9 319.9,169.1 319.9,192.8 296.6,192.8 		"/>
		<rect x="296.6" y="192.8" class="st1" width="23.2" height="46.5"/>
		<rect x="296.6" y="239.3" class="st1" width="23.2" height="23.6"/>
		<rect x="265" y="239.3" class="st1" width="31.7" height="23.6"/>
		<polygon class="st1" points="341.2,303.9 341.2,326.6 352.5,326.6 352.6,333.3 368.2,333.3 368.2,353.9 375.4,353.9 376.6,303.9 
					"/>
		<rect x="314.7" y="303.9" class="st1" width="26.5" height="22.6"/>
		<polygon class="st1" points="386.5,147.4 387.6,124.9 363.2,122.8 361.7,147.4 		"/>
		<g>
			<polygon class="st1" points="286.1,349.1 286.1,343.2 247.5,343.2 247.5,371.3 351.5,371.3 351.5,353.9 368.2,353.9 368.2,333.3 
				352.6,333.3 352.5,326.6 314.7,326.6 314.7,349.1 			"/>
			<polygon class="st1" points="247.5,319.2 247.5,342.6 286.1,342.6 286.1,303.9 263.1,303.9 			"/>
		</g>
		<polygon class="st1" points="182.5,147.4 204.4,147.4 204.4,170 137.6,170 137.6,77 182.5,77 		"/>
		<rect x="137.6" y="170" class="st1" width="66.8" height="70.6"/>
		<rect x="137.6" y="240.6" class="st1" width="66.8" height="19.4"/>
		<rect x="137.6" y="302.8" class="st1" width="66.6" height="24.3"/>
		<polyline class="st1" points="137.6,327.1 140.6,327.1 204.4,327.1 204.4,368.9 140.5,368.9 140.5,349.5 140.6,327.1 		"/>
		<rect x="168.4" y="368.9" class="st1" width="36" height="26.1"/>
		<polygon class="st1" points="197.2,617.6 182.3,617.6 179.3,616.1 148.2,616.1 148.2,645 197.2,645 		"/>
		<polygon class="st1" points="219.5,692.2 269.1,692.2 269.1,665.7 257,665.7 257,652.7 230.3,652.7 222.7,664.7 219.5,664.7 		"/>
		<rect x="221.2" y="595.3" class="st1" width="22.4" height="49.7"/>
		<polygon class="st1" points="296.6,239.3 270.7,239.3 265,239.3 265,207.1 296.6,207.1 		"/>
		<polygon class="st1" points="265,207.1 296.6,207.1 296.6,155.9 291.5,155.9 280.2,167.3 265,167.3 		"/>
		<polygon class="st1" points="182.5,147.4 248.4,147.4 248.4,105.5 259.7,105.5 259.7,77 182.5,77 		"/>
		<rect x="218.5" y="187.6" class="st1" width="13.8" height="30.6"/>
		<rect x="137.6" y="278.6" class="st1" width="66.6" height="23.7"/>
	</g>
</g>
<g id="ALDI">
	<path class="st2" d="M296.9,67.7v1.9h0v20.9c0,0.5,0.4,1,1,1h27.8c0.4,0,0.8-0.2,0.9-0.6c0.1-0.1,0.1-0.2,0.1-0.4V67.7
		c0-0.5-0.4-1-1-1h-27.8C297.4,66.7,296.9,67.2,296.9,67.7z"/>
	<g>
		<path class="st3" d="M299.5,70.3v17.6c0,0.1,0.1,0.2,0.2,0.2h24c0.1,0,0.2-0.1,0.2-0.2V70.3c0-0.1-0.1-0.2-0.2-0.2h-24
			C299.6,70.1,299.5,70.2,299.5,70.3z M323.6,70.7l0.1,0.1v16.6l-0.1,0.1H300l-0.1-0.1V70.8l0.1-0.1H323.6z"/>
		<polygon class="st3" points="301.4,80.8 314,84.4 314,83.6 301.4,80 		"/>
		<polygon class="st3" points="301.4,79.5 314,83 314,82.2 301.4,78.7 		"/>
		<path class="st3" d="M314.8,86.2V72.1h-14.1v14.1H314.8z M301,85.6V72.7h13.4v12.9H301z"/>
		<polygon class="st3" points="308.7,78.9 308.7,73.4 308,73.4 308,78.7 		"/>
		<polygon class="st3" points="309.9,79.2 309.9,73.4 309.2,73.4 309.2,79 		"/>
		<polygon class="st3" points="311.2,79.6 311.2,73.4 310.4,73.4 310.4,79.4 		"/>
		<polygon class="st3" points="301.4,78.2 314,81.7 314,80.9 301.4,77.4 		"/>
		<path class="st3" d="M316.6,84.8l4.5,1.3v-1.5l-0.5-0.1v-1.1l0.5-0.1v-1.7l-4.5,1.3V84.8z M319.6,84.3l-1.8-0.4l1.8-0.4V84.3z"/>
		<path class="st3" d="M316.6,76.6V78h4.5v-1.4c0-1.6-0.1-2.3-2.2-2.3C316.7,74.3,316.6,75,316.6,76.6z M320.1,76
			c0.1,0.1,0.1,0.2,0.1,0.3v0.1h0v0h-2.5v-0.1c0-0.2,0.1-0.3,0.3-0.4c0.2-0.1,0.5-0.1,1-0.1C319.4,75.8,319.8,75.8,320.1,76
			C320,76,320,76,320.1,76z"/>
		<polygon class="st3" points="319.9,79.7 316.6,79.7 316.6,81.2 321.1,81.2 321.1,78.5 319.9,78.6 		"/>
		<rect x="316.6" y="72.2" class="st3" width="4.5" height="1.5"/>
	</g>
</g>
<g id="coles">
	<path class="st4" d="M319.2,532.5c3.1,0.8,5.3,3.5,5.3,6.8c0,3.9-3.1,7-7,7c-3.9,0-7-3.1-7-7c0-3.3,2.3-6,5.3-6.8v2.8
		c-1.5,0.7-2.6,2.2-2.6,3.9c0,2.4,1.9,4.3,4.3,4.3c2.4,0,4.3-1.9,4.3-4.3c0-1.7-1-3.3-2.6-3.9V532.5z"/>
	<path class="st4" d="M310.4,525c0,3.9,3.1,7,7,7c3.9,0,7-3.2,7-7c0-3.9-3.1-7-7-7C313.6,518,310.4,521.1,310.4,525 M321.7,525
		c0,2.3-1.9,4.2-4.2,4.2c-2.3,0-4.2-1.9-4.2-4.2c0-2.3,1.9-4.2,4.2-4.2C319.8,520.8,321.7,522.7,321.7,525"/>
	<rect x="306.6" y="514" class="st4" width="17.9" height="3.1"/>
	<path class="st4" d="M321.7,505.9c0,2.2-1.6,4-3.5,4l-0.2,0v-10.1c-5.6,0-7.7,2.9-7.7,6.4c0,2.7,1.8,6.7,7,6.7
		c4.3,0,7.1-3.1,7.1-6.7c0-3.1-1.8-5.6-4.9-6.3v2.8C321,503.2,321.7,504.4,321.7,505.9 M312.9,506.2c0-1.8,1.2-3.2,2.8-3.5l0,6.9
		l0,0.1C314.1,509.5,312.9,508,312.9,506.2"/>
	<path class="st4" d="M314.8,491.1v-2.7c0,0-2.4-0.1-3.6,1.9c0,0-0.9,0.9-0.9,3.6c0,0,0,2.6,1.2,3.9c0,0,0.9,1.2,2.8,1.3
		c0,0,1.8,0.2,2.9-1.5c0,0,0.7-1.4,1.1-2.8c0,0,0.6-2.2,0.8-2.6c0,0,0.9-1.9,2-0.8c0,0,0.7,0.5,0.7,2.2c0,0,0.1,3-2.2,3v2.7
		c0,0,2.5,0.3,3.8-1.8c0,0,0.9-1.3,0.9-3.9c0,0,0-2.5-1-3.8c0,0-1.2-1.7-3.3-1.7c0,0-2.1-0.2-3.3,2.5c0,0-0.9,2.7-1.1,3.4
		c0,0-0.6,2.7-1.9,2.1c0,0-0.9-0.1-0.9-2.3c0,0,0-1.5,0.8-2.2C313.6,491.6,314.2,491.2,314.8,491.1"/>
</g>
<g id="Icons">
	<path class="st3" d="M148.2,532.5c2.8,0,5.1,2.3,5.1,5.1s-2.3,5.1-5.1,5.1c-2.8,0-5.1-2.3-5.1-5.1S145.3,532.5,148.2,532.5"/>
	<path class="st5" d="M147.3,535.4c0-0.2,0.1-0.3,0.2-0.2l2.7,2.2c0.1,0.1,0.1,0.2,0,0.3l-2.7,2.2c-0.1,0.1-0.2,0-0.2-0.2V535.4z"/>
	<path class="st3" d="M148.2,554.2c-2.8,0-5.1-2.3-5.1-5.1c0-2.8,2.3-5.1,5.1-5.1c2.8,0,5.1,2.3,5.1,5.1
		C153.3,551.9,151,554.2,148.2,554.2"/>
	<path class="st5" d="M149.1,551.3c0,0.2-0.1,0.3-0.2,0.2l-2.7-2.2c-0.1-0.1-0.1-0.2,0-0.3l2.7-2.2c0.1-0.1,0.2,0,0.2,0.2V551.3z"/>
	<path class="st3" d="M172.7,665.5c2.8,0,5.1,2.3,5.1,5.1c0,2.8-2.3,5.1-5.1,5.1c-2.8,0-5.1-2.3-5.1-5.1
		C167.6,667.8,169.9,665.5,172.7,665.5"/>
	<path class="st5" d="M171.8,668.4c0-0.2,0.1-0.3,0.2-0.2l2.7,2.2c0.1,0.1,0.1,0.2,0,0.3L172,673c-0.1,0.1-0.2,0-0.2-0.2V668.4z"/>
	<path class="st3" d="M172.7,687.2c-2.8,0-5.1-2.3-5.1-5.1c0-2.8,2.3-5.1,5.1-5.1c2.8,0,5.1,2.3,5.1,5.1
		C177.8,684.9,175.5,687.2,172.7,687.2"/>
	<path class="st5" d="M173.6,684.3c0,0.2-0.1,0.3-0.2,0.2l-2.7-2.2c-0.1-0.1-0.1-0.2,0-0.3l2.7-2.2c0.1-0.1,0.2,0,0.2,0.2V684.3z"/>
	<path class="st3" d="M399.9,132.9c2.8,0,5.1,2.3,5.1,5.1c0,2.8-2.3,5.1-5.1,5.1c-2.8,0-5.1-2.3-5.1-5.1
		C394.8,135.2,397.1,132.9,399.9,132.9"/>
	<path class="st5" d="M399,135.9c0-0.2,0.1-0.3,0.2-0.2l2.7,2.2c0.1,0.1,0.1,0.2,0,0.3l-2.7,2.2c-0.1,0.1-0.2,0-0.2-0.2V135.9z"/>
	<path class="st3" d="M399.9,154.7c-2.8,0-5.1-2.3-5.1-5.1c0-2.8,2.3-5.1,5.1-5.1c2.8,0,5.1,2.3,5.1,5.1
		C405.1,152.4,402.8,154.7,399.9,154.7"/>
	<path class="st5" d="M400.8,151.7c0,0.2-0.1,0.3-0.2,0.2l-2.7-2.2c-0.1-0.1-0.1-0.2,0-0.3l2.7-2.2c0.1-0.1,0.2,0,0.2,0.2V151.7z"/>
	<path d="M206.1,672.2c2.8,0,5.1,2.3,5.1,5.1c0,2.8-2.3,5.1-5.1,5.1c-2.8,0-5.1-2.3-5.1-5.1C201,674.5,203.3,672.2,206.1,672.2"/>
	<path class="st5" d="M204.2,675.7l-0.4,1.5l1.7-2.3L204.2,675.7z M206.7,678L206.7,678c0.2-0.3,0.4-0.4,0.6-0.3
		c0.2,0.1,0.2,0.3,0,0.6l-0.1,0.1L206.7,678z M207.6,678.4c0.1-0.2,0.2-0.4,0.2-0.5c0-0.2-0.1-0.3-0.3-0.4c-0.1-0.1-0.3-0.2-0.5-0.1
		c-0.1,0-0.2,0.1-0.3,0.1c-0.1,0.1-0.2,0.2-0.3,0.3l-0.2,0.3l1.7,1.3l0.2-0.3l-0.7-0.5L207.6,678.4z M209.6,677.9l-1.8,2.4
		c-0.2,0.2-0.5,0.3-0.8,0.1l-3.8-2.9c-0.2-0.2-0.3-0.5-0.1-0.8l1.8-2.4c0.2-0.2,0.5-0.3,0.8-0.1l3.8,2.9
		C209.7,677.3,209.8,677.7,209.6,677.9"/>
	<path d="M301.3,304.4c2.8,0,5.1,2.3,5.1,5.1c0,2.8-2.3,5.1-5.1,5.1c-2.8,0-5.1-2.3-5.1-5.1C296.3,306.7,298.5,304.4,301.3,304.4"/>
	<path d="M243.2,214.3c2.8,0,5.1,2.3,5.1,5.1s-2.3,5.1-5.1,5.1c-2.8,0-5.1-2.3-5.1-5.1S240.4,214.3,243.2,214.3"/>
	<path d="M301.3,315.4c2.8,0,5.1,2.3,5.1,5.1c0,2.8-2.3,5.1-5.1,5.1c-2.8,0-5.1-2.3-5.1-5.1C296.2,317.6,298.5,315.4,301.3,315.4"/>
	<path d="M301.3,326.3c2.8,0,5.1,2.3,5.1,5.1c0,2.8-2.3,5.1-5.1,5.1c-2.8,0-5.1-2.3-5.1-5.1C296.3,328.6,298.5,326.3,301.3,326.3"/>
	<path class="st5" d="M299,309.5c0-0.3-0.3-0.6-0.6-0.6c-0.3,0-0.6,0.2-0.6,0.6c0,0.3,0.3,0.6,0.6,0.6
		C298.7,310.1,299,309.8,299,309.5"/>
	<path class="st5" d="M300,308.8L300,308.8l1.4-0.4c0.2-0.1,0.3-0.2,0.2-0.3c0-0.2-0.2-0.2-0.4-0.1l-1.4,0.4
		c-0.4,0.1-0.7,0.4-0.7,0.8v0.8c0,0.4,0.3,0.7,0.7,0.9l1.4,0.4c0.2,0.1,0.3,0,0.4-0.2c0.1-0.2,0-0.3-0.2-0.3l-1.4-0.4l-0.1-0.1
		l0.1,0l2.6,0.7v-0.8h1.9c0.2,0,0.3-0.1,0.3-0.3c0-0.2-0.1-0.3-0.3-0.3h-1.8l-0.1-0.1l0.1,0h1.8c0.2,0,0.3-0.1,0.3-0.3
		c0-0.2-0.1-0.3-0.3-0.3h-1.9v-0.8L300,308.8L300,308.8z"/>
	<path class="st5" d="M299,320.5c0-0.3-0.3-0.6-0.6-0.6c-0.3,0-0.6,0.3-0.6,0.6c0,0.3,0.3,0.6,0.6,0.6
		C298.7,321,299,320.8,299,320.5"/>
	<path class="st5" d="M299.1,319.9v1.2c0,0.4,0.3,0.7,0.7,0.7h1.7c0.2,0,0.3-0.1,0.3-0.2c0-0.2-0.1-0.3-0.3-0.3h-1.5l-0.1-0.1
		l0.1-0.1h4.5c0.2,0,0.3-0.1,0.3-0.3c0-0.2-0.1-0.3-0.3-0.3H302l-0.1-0.1l0.1-0.1h2.6c0.2,0,0.3-0.1,0.3-0.3c0-0.2-0.1-0.3-0.3-0.3
		h-4.5l-0.1-0.1l0.1-0.1h1.5c0.2,0,0.3-0.1,0.3-0.2c0-0.2-0.1-0.3-0.3-0.3h-1.7C299.4,319.1,299.1,319.5,299.1,319.9"/>
	<path class="st5" d="M299.2,331.8c0-0.3-0.3-0.6-0.6-0.6c-0.3,0-0.6,0.2-0.6,0.6c0,0.3,0.2,0.6,0.6,0.6
		C299,332.3,299.2,332.1,299.2,331.8"/>
	<path class="st5" d="M304,331.4c0,0.9-0.7,1.6-1.6,1.6c-0.6,0-1.1-0.3-1.4-0.8l-0.6,0.1c0.3,0.8,1.1,1.3,2,1.3c1.2,0,2.2-1,2.2-2.2
		c0-0.8-0.4-1.5-1.1-1.9l-0.6,0.3C303.5,330,304,330.6,304,331.4"/>
	<path class="st5" d="M303,328.1c-0.1,0.1-0.2,0.2-0.1,0.4l0.1,0.3l-1.8,0.9v1.6l-0.6,0v-1.1c0-0.2-0.1-0.3-0.3-0.3
		c-0.2,0-0.3,0.1-0.3,0.3v1.1l-0.8,0.1v0.6l2.5-0.2V330l2-1l-0.4-0.7C303.3,328.1,303.2,328,303,328.1"/>
	<path class="st5" d="M241.4,219.8c0-0.3-0.2-0.5-0.5-0.5c-0.3,0-0.5,0.2-0.5,0.5c0,0.3,0.2,0.5,0.5,0.5
		C241.2,220.3,241.4,220.1,241.4,219.8"/>
	<path class="st5" d="M241.1,216.5v1.4c0,0.2,0.1,0.3,0.2,0.5l0.2-0.2l-0.1,0.1l-0.1,0.1h0l1.1,1.1h-0.3c-0.3,0-0.5,0.2-0.5,0.5
		c0,0.3,0.2,0.5,0.5,0.5h1.3l0.9,0.9l0,0c0.1,0.1,0.2,0.2,0.1,0.2v0.8c0,0.4,0.3,0.7,0.7,0.7c0.4,0,0.7-0.3,0.7-0.7v-1.4
		c0-0.2-0.1-0.3-0.2-0.5l-0.2,0.2l0.2-0.2l-2.9-2.9l0,0l0,0c-0.1-0.1-0.2-0.2-0.2-0.2v-0.8c0-0.2-0.1-0.4-0.2-0.5
		c-0.1-0.1-0.3-0.2-0.5-0.2C241.4,215.7,241.1,216,241.1,216.5 M242.1,216.2c0.1,0.1,0.1,0.2,0.1,0.3v0.8c0,0.2,0.1,0.4,0.3,0.5
		l2.9,2.9h0c0.1,0.1,0.1,0.2,0.1,0.2v1.4c0,0.1,0,0.2-0.1,0.3c-0.1,0.1-0.2,0.1-0.3,0.1s-0.2,0-0.3-0.1c-0.1-0.1-0.1-0.2-0.1-0.3
		v-0.8c0-0.2-0.1-0.3-0.2-0.4l-0.1,0.1l0.1-0.1l-2.9-2.9h0c-0.1-0.1-0.1-0.2-0.1-0.2v-1.4c0-0.1,0-0.2,0.1-0.3
		c0.1-0.1,0.2-0.1,0.3-0.1C241.9,216,242.1,216.1,242.1,216.2"/>
	<path d="M187.7,264.3c2.8,0,5.1,2.3,5.1,5.1c0,2.8-2.3,5.1-5.1,5.1c-2.8,0-5.1-2.3-5.1-5.1C182.6,266.6,184.9,264.3,187.7,264.3"/>
	<path class="st5" d="M185.9,269.9c0-0.3-0.2-0.5-0.5-0.5c-0.3,0-0.5,0.2-0.5,0.5c0,0.3,0.2,0.5,0.5,0.5
		C185.7,270.4,185.9,270.2,185.9,269.9"/>
	<path class="st5" d="M185.6,266.5v1.4c0,0.2,0.1,0.3,0.2,0.5l0.2-0.2l-0.1,0.1l-0.1,0.1h0l1.1,1.1h-0.3c-0.3,0-0.5,0.2-0.5,0.5
		s0.2,0.5,0.5,0.5h1.3l0.9,0.9l0,0c0.1,0.1,0.2,0.2,0.1,0.2v0.8c0,0.4,0.3,0.7,0.7,0.7s0.7-0.3,0.7-0.7v-1.4c0-0.2-0.1-0.3-0.2-0.5
		l-0.2,0.2l0.2-0.2l-2.9-2.9l0,0l0,0c-0.1-0.1-0.2-0.2-0.2-0.2v-0.8c0-0.2-0.1-0.4-0.2-0.5c-0.1-0.1-0.3-0.2-0.5-0.2
		C185.9,265.8,185.6,266.1,185.6,266.5 M186.6,266.2c0.1,0.1,0.1,0.2,0.1,0.3v0.8c0,0.2,0.1,0.4,0.3,0.5l2.9,2.9v0
		c0.1,0.1,0.1,0.2,0.1,0.2v1.4c0,0.1,0,0.2-0.1,0.3c-0.1,0.1-0.2,0.1-0.3,0.1c-0.1,0-0.2,0-0.3-0.1c-0.1-0.1-0.1-0.2-0.1-0.3v-0.8
		c0-0.2-0.1-0.3-0.2-0.4l-0.1,0.1l0.1-0.1l-2.9-2.9c-0.1-0.1-0.1-0.2-0.1-0.2v-1.4c0-0.1,0-0.2,0.1-0.3c0.1-0.1,0.2-0.1,0.3-0.1
		C186.4,266.1,186.5,266.1,186.6,266.2"/>
	<path d="M271.8,132c2.8,0,5.1,2.3,5.1,5.1c0,2.8-2.3,5.1-5.1,5.1c-2.8,0-5.1-2.3-5.1-5.1C266.7,134.2,269,132,271.8,132"/>
	<path class="st5" d="M270,137.5c0-0.3-0.2-0.5-0.5-0.5c-0.3,0-0.5,0.2-0.5,0.5c0,0.3,0.2,0.5,0.5,0.5
		C269.8,138,270,137.8,270,137.5"/>
	<path class="st5" d="M269.7,134.1v1.4c0,0.2,0.1,0.3,0.2,0.5l0.2-0.2l-0.1,0.1l-0.1,0.1h0l1.1,1.1h-0.3c-0.3,0-0.5,0.2-0.5,0.5
		c0,0.3,0.2,0.5,0.5,0.5h1.3l0.9,0.9l0,0c0.1,0.1,0.2,0.2,0.1,0.2v0.8c0,0.4,0.3,0.7,0.7,0.7c0.4,0,0.7-0.3,0.7-0.7v-1.4
		c0-0.2-0.1-0.3-0.2-0.5l-0.2,0.2l0.2-0.2l-2.9-2.9l0,0l0,0c-0.1-0.1-0.2-0.2-0.2-0.2v-0.8c0-0.2-0.1-0.4-0.2-0.5
		c-0.1-0.1-0.3-0.2-0.5-0.2C270,133.4,269.7,133.7,269.7,134.1 M270.7,133.8c0.1,0.1,0.1,0.2,0.1,0.3v0.8c0,0.2,0.1,0.4,0.3,0.5
		l2.9,2.9c0.1,0.1,0.1,0.2,0.1,0.2v1.4c0,0.1,0,0.2-0.1,0.3c-0.1,0.1-0.2,0.1-0.3,0.1c-0.1,0-0.2,0-0.3-0.1
		c-0.1-0.1-0.1-0.2-0.1-0.3v-0.8c0-0.2-0.1-0.3-0.2-0.4l-0.1,0.1l0.1-0.1l-2.9-2.9c-0.1-0.1-0.1-0.2-0.1-0.2v-1.4
		c0-0.1,0-0.2,0.1-0.3c0.1-0.1,0.2-0.1,0.3-0.1C270.5,133.7,270.6,133.8,270.7,133.8"/>
	<path d="M154.1,671.3c2.8,0,5.1,2.3,5.1,5.1c0,2.8-2.3,5.1-5.1,5.1c-2.8,0-5.1-2.3-5.1-5.1C149.1,673.5,151.3,671.3,154.1,671.3"/>
	<path class="st5" d="M152.4,676.8c0-0.3-0.2-0.5-0.5-0.5c-0.3,0-0.5,0.2-0.5,0.5s0.2,0.5,0.5,0.5
		C152.2,677.3,152.4,677.1,152.4,676.8"/>
	<path class="st5" d="M152,673.4v1.4c0,0.2,0.1,0.3,0.2,0.5l0.2-0.2l-0.1,0.1l-0.1,0.1h0l1.1,1.1H153c-0.3,0-0.5,0.2-0.5,0.5
		c0,0.3,0.2,0.5,0.5,0.5h1.3l0.9,0.9l0,0c0.1,0.1,0.2,0.2,0.1,0.2v0.8c0,0.4,0.3,0.7,0.7,0.7c0.4,0,0.7-0.3,0.7-0.7v-1.4
		c0-0.2-0.1-0.3-0.2-0.5l-0.2,0.2l0.2-0.2l-2.9-2.9l0,0l0,0c-0.1-0.1-0.2-0.2-0.2-0.2v-0.8c0-0.2-0.1-0.4-0.2-0.5
		c-0.1-0.1-0.3-0.2-0.5-0.2C152.4,672.7,152,673,152,673.4 M153.1,673.2c0.1,0.1,0.1,0.2,0.1,0.3v0.8c0,0.2,0.1,0.4,0.3,0.5l2.9,2.9
		c0.1,0.1,0.1,0.2,0.1,0.2v1.4c0,0.1,0,0.2-0.1,0.3c-0.1,0.1-0.2,0.1-0.3,0.1s-0.2,0-0.3-0.1c-0.1-0.1-0.1-0.2-0.1-0.3v-0.8
		c0-0.2-0.1-0.3-0.2-0.4l-0.1,0.1l0.1-0.1l-2.9-2.9c-0.1-0.1-0.1-0.2-0.1-0.2v-1.4c0-0.1,0-0.2,0.1-0.3c0.1-0.1,0.2-0.1,0.3-0.1
		C152.9,673,153,673.1,153.1,673.2"/>
	<path d="M224.2,496.4c2.8,0,5.1,2.3,5.1,5.1c0,2.8-2.3,5.1-5.1,5.1c-2.8,0-5.1-2.3-5.1-5.1C219.1,498.7,221.4,496.4,224.2,496.4"/>
	<path d="M422.7,361.5c2.8,0,5.1,2.3,5.1,5.1c0,2.8-2.3,5.1-5.1,5.1c-2.8,0-5.1-2.3-5.1-5.1C417.6,363.8,419.9,361.5,422.7,361.5"/>
	<polygon class="st5" points="424.7,369.5 424.7,368.4 423.7,368.4 423.7,367.4 422.6,367.4 422.6,366.3 421.5,366.3 421.5,365.2 
		420.5,365.2 420.5,363.6 421,363.6 421,364.7 422.1,364.7 422.1,365.7 423.1,365.7 423.1,366.8 424.2,366.8 424.2,367.9 
		425.3,367.9 425.3,369.5 	"/>
	<path class="st5" d="M222.8,504.2l2.7,1v-0.6l-0.6-0.2v-1l0.6-0.2v-0.6l-2.7,1V504.2z M224.4,504.3l-0.5-0.2
		c-0.2-0.1-0.3-0.1-0.4-0.1c0.1,0,0.3-0.1,0.4-0.1l0.5-0.2V504.3z"/>
	<polygon class="st5" points="223.3,502.8 223.3,502 225.5,502 225.5,501.5 223.3,501.5 223.3,500.7 222.8,500.7 222.8,502.8 	"/>
	<path class="st5" d="M222.8,498.3l1.2,0.5c0.2,0.1,0.4,0.1,0.5,0.2c-0.1,0-0.3,0.1-0.5,0.2l-1.2,0.6v0.5h2.7v-0.5h-1
		c-0.1,0-0.5,0-0.6,0c0.1,0,0.3-0.1,0.5-0.2l1.2-0.6l-1.2-0.6c-0.2-0.1-0.3-0.2-0.5-0.2c0.1,0,0.5,0,0.6,0h1v-0.5h-2.7V498.3z"/>
</g>
<g id="Type">
	<g>
		<text transform="matrix(0 -1 1 0 330.4914 84.4617)" class="st3 st7 st8">SHOP P1</text>
		<text transform="matrix(0 -1 1 0 411.756 341.7137)"><tspan x="0" y="0" class="st3 st9 st10">FOOD COURT</tspan><tspan x="7.1" y="9.6" class="st3 st9 st10">BALCONY</tspan></text>
		<text transform="matrix(0 -1 1 0 411.756 305.6854)" class="st3 st9 st10"> </text>
		<text transform="matrix(0 -1 1 0 231.744 277.9461)" class="st3 st9 st8">TOP JUICE</text>
		<text transform="matrix(0 -1 1 0 223.9688 214.4344)" class="st3 st9 st8">MOBILE EXPERTS</text>
		<text transform="matrix(0 -1 1 0 277.7385 232.2381)"><tspan x="0" y="0" class="st3 st9 st8">STYLE PLUS</tspan><tspan x="0.6" y="3.6" class="st3 st9 st8">HAIRCUTS</tspan></text>
		<text transform="matrix(0 -1 1 0 277.7387 254.994)"><tspan x="0" y="0" class="st3 st9 st8">ELITE</tspan><tspan x="-1.1" y="3.6" class="st3 st9 st8">SUPPS</tspan></text>
		<text transform="matrix(0 -1 1 0 306.0779 228.3651)" class="st3 st9 st8">FENGLING JOY</text>
		<text transform="matrix(0 -1 1 0 399.9306 217.0262)" class="st3 st9 st8">LA PETITE</text>
		<text transform="matrix(0 -1 1 0 353.2901 239.8885)"><tspan x="0" y="0" class="st3 st9 st8">FOOD COURT</tspan><tspan x="2.1" y="3.6" class="st3 st9 st8">230 SEATS</tspan></text>
		<text transform="matrix(0 -1 1 0 369.7715 143.7654)"><tspan x="0" y="0" class="st3 st9 st8">GOZLEME</tspan><tspan x="0.6" y="3.6" class="st3 st9 st8">TURKISH</tspan><tspan x="1.8" y="7.2" class="st3 st9 st8">HOUSE</tspan></text>
		<text transform="matrix(0 -1 1 0 349.0326 144.0848)" class="st3 st9 st8">KUBI&apos;S KEBAB HOUSE</text>
		<text transform="matrix(0 -1 1 0 306.0737 183.0535)" class="st3 st9 st8">SUBWAY</text>
		<text transform="matrix(0 -1 1 0 306.0781 254.8729)" class="st3 st9 st8">SUSHI</text>
		<text transform="matrix(0 -1 1 0 264.1217 333.6033)"><tspan x="0" y="0" class="st3 st9 st8">THE SMELLY</tspan><tspan x="-1.1" y="3.6" class="st3 st9 st8">CHEESECAKE</tspan><tspan x="4.4" y="7.2" class="st3 st9 st8">SHOP</tspan></text>
		<text transform="matrix(0 -1 1 0 271.3222 363.1785)" class="st3 st9 st8">PANDA</text>
		<text transform="matrix(0 -1 1 0 237.0906 682.8773)"><tspan x="0" y="0" class="st3 st9 st8">BIRKENHEAD</tspan><tspan x="-1.6" y="3.6" class="st3 st9 st8">DRY CLEANING</tspan><tspan x="-2.2" y="7.2" class="st3 st9 st8">&amp; ALTERATIONS</tspan></text>
		<text transform="matrix(0 -1 1 0 179.1043 635.5882)"><tspan x="0" y="0" class="st3 st9 st8">FLIGHT</tspan><tspan x="-0.7" y="3.6" class="st3 st9 st8">CENTRE</tspan></text>
		<text transform="matrix(0 -1 1 0 182.7048 611.326)" class="st3 st9 st8">LIQUORLAND</text>
		<text transform="matrix(0 -1 1 0 231.3908 635.8065)" class="st3 st9 st8">INDULGE NAILS &amp; SPA</text>
		<text transform="matrix(0 -1 1 0 179.1042 568.9969)"><tspan x="0" y="0" class="st3 st9 st8">RISE</tspan><tspan x="-6.1" y="3.6" class="st3 st9 st8">BAKE HOUSE</tspan></text>
		<text transform="matrix(0 -1 1 0 221.4468 489.6312)" class="st3 st9 st8">KIOSK</text>
		<text transform="matrix(0 -1 1 0 167.3051 353.2376)"><tspan x="0" y="0" class="st3 st9 st8">NEXTRA</tspan><tspan x="-4.8" y="3.6" class="st3 st9 st8">NEWSAGENCY</tspan></text>
		<text transform="matrix(0 -1 1 0 167.3051 321.7781)"><tspan x="0" y="0" class="st3 st9 st8">AMOEBA</tspan><tspan x="2.5" y="3.6" class="st3 st9 st8">TOYS</tspan></text>
		<text transform="matrix(0 -1 1 0 170.9053 215.1512)" class="st3 st9 st8">M&amp;I VARIETY</text>
		<text transform="matrix(0 -1 1 0 160.3383 143.4324)" class="st3 st9 st8">BIRKENHEAD MEDICAL CENTRE</text>
		<text transform="matrix(0 -1 1 0 219.2389 135.534)" class="st3 st9 st8">PRICELINE PHARMACY</text>
		<text transform="matrix(0 -1 1 0 325.0778 125.6678)"><tspan x="0" y="0" class="st3 st9 st8">BIRKENHEAD</tspan><tspan x="3.7" y="3.6" class="st3 st9 st8">SHACK </tspan></text>
		<text transform="matrix(0 -1 1 0 139.5838 688.0081)"><tspan x="0" y="0" class="st3 st9 st8">TRAVELATOR TO</tspan><tspan x="-5.8" y="3.6" class="st3 st9 st8">YELLOW LEVEL CARPARK</tspan></text>
		<text transform="matrix(0 -1 1 0 185.0991 683.3948)"><tspan x="0" y="0" class="st3 st9 st8">CAR PARK</tspan><tspan x="1.2" y="3.6" class="st3 st9 st8">(GREEN)</tspan></text>
		<text transform="matrix(0 -1 1 0 294.5748 92.1443)" class="st3 st9 st8">ALTERNATE ENTRY</text>
		<text transform="matrix(0 -1 1 0 273.4453 130.7996)" class="st3 st9 st8">TO ALDI</text>
		<text transform="matrix(0 -1 1 0 410.0243 148.535)"><tspan x="0" y="0" class="st3 st9 st8">TO ALDI</tspan><tspan x="1.7" y="3.6" class="st3 st9 st8">ONLY</tspan></text>
		<text transform="matrix(0 -1 1 0 167.3051 295.6219)"><tspan x="0" y="0" class="st3 st9 st8">HOME</tspan><tspan x="-2.4" y="3.6" class="st3 st9 st8">&amp; GIVING</tspan></text>
		<text transform="matrix(0 -1 1 0 170.9049 255.6531)" class="st3 st9 st8">TYPO</text>
		<text transform="matrix(0 -1 1 0 182.2724 389.9793)"><tspan x="0" y="0" class="st3 st9 st8">SIR GROOM</tspan><tspan x="3.8" y="3.6" class="st3 st9 st8">ROOM</tspan></text>
		<text transform="matrix(0 -1 1 0 358.2401 321.7508)" class="st3 st9 st8">OPORTO</text>
		<text transform="matrix(0 -1 1 0 277.7385 200.6736)"><tspan x="0" y="0" class="st3 st9 st8">ERIN TATTOO</tspan><tspan x="-0.6" y="3.6" class="st3 st9 st8">&amp; COSMETICS</tspan></text>
		<text transform="matrix(0 -1 1 0 280.2744 177.2557)" class="st3 st9 st8"> </text>
		<text transform="matrix(0 -1 1 0 234.677 272.1082)" class="st3 st7 st8">K11</text>
		<text transform="matrix(0 -1 1 0 227.6643 205.1131)" class="st3 st7 st8">K12</text>
		<text transform="matrix(0 -1 1 0 285.6314 197.5526)" class="st3 st7 st8">SHOP 143</text>
		<text transform="matrix(0 -1 1 0 285.6319 230.6824)" class="st3 st7 st8">SHOP 145</text>
		<text transform="matrix(0 -1 1 0 310.1482 224.5486)" class="st3 st7 st8">SHOP 154</text>
		<text transform="matrix(0 -1 1 0 404.161 216.8504)" class="st3 st7 st8">SHOP 149</text>
		<text transform="matrix(0 -1 1 0 381.4082 143.5262)" class="st3 st7 st8">SHOP 158</text>
		<text transform="matrix(0 -1 1 0 352.6852 135.3475)" class="st3 st7 st8">SHOP 157</text>
		<text transform="matrix(0 -1 1 0 310.148 183.1541)" class="st3 st7 st8">SHOP 155</text>
		<text transform="matrix(0 -1 1 0 310.1479 256.6942)" class="st3 st7 st8">SHOP 153</text>
		<text transform="matrix(0 -1 1 0 285.6319 255.3533)"><tspan x="0" y="0" class="st3 st7 st8">SHOP</tspan><tspan x="1.6" y="3.6" class="st3 st7 st8">144</tspan></text>
		<text transform="matrix(0 -1 1 0 248.3057 680.1761)" class="st3 st7 st8">SHOP 109</text>
		<text transform="matrix(0 -1 1 0 186.8518 636.6717)" class="st3 st7 st8">SHOP 110</text>
		<text transform="matrix(0 -1 1 0 186.8519 607.5023)" class="st3 st7 st8">SHOP 111</text>
		<text transform="matrix(0 -1 1 0 235.3385 627.2747)" class="st3 st7 st8">SHOP 114A</text>
		<text transform="matrix(0 -1 1 0 186.8515 572.4876)" class="st3 st7 st8">SHOP 111A</text>
		<text transform="matrix(0 -1 1 0 179.3914 475.846)" class="st3 st7 st8">SHOP 113A/113</text>
		<text transform="matrix(0 -1 1 0 330.7969 524.0555)" class="st3 st7 st8">SHOP 101</text>
		<text transform="matrix(0 -1 1 0 225.4918 485.2088)" class="st3 st7 st8">114B</text>
		<text transform="matrix(0 -1 1 0 175.0798 353.908)" class="st3 st7 st8">SHOP 125</text>
		<text transform="matrix(0 -1 1 0 175.0796 321.8504)" class="st3 st7 st8">SHOP 126</text>
		<text transform="matrix(0 -1 1 0 175.0797 255.6697)"><tspan x="0" y="0" class="st3 st7 st8">SHOP</tspan><tspan x="1.7" y="3.6" class="st3 st7 st8">129</tspan></text>
		<text transform="matrix(0 -1 1 0 175.0796 245.9803)" class="st3 st7 st8"> </text>
		<text transform="matrix(0 -1 1 0 175.0798 215.3797)" class="st3 st7 st8">SHOP 130–133</text>
		<text transform="matrix(0 -1 1 0 164.5905 131.3045)" class="st3 st7 st8">SHOP 134 / 135</text>
		<text transform="matrix(0 -1 1 0 223.01 125.9197)" class="st3 st7 st8">SHOP 136</text>
		<text transform="matrix(0 -1 1 0 332.7052 122.9881)" class="st3 st7 st8">SHOP 156</text>
		<polygon class="st3" points="190.3,270.5 190.3,270.5 190.2,270.6 		"/>
		<polygon class="st3" points="189.1,271.1 188.9,271.3 189.1,271.2 189.1,271.1 		"/>
		<polygon class="st3" points="245.8,220.9 245.8,220.9 245.7,221.1 		"/>
		<polygon class="st3" points="244.6,221.6 244.5,221.7 244.6,221.6 244.6,221.6 		"/>
		<text transform="matrix(0 -1 1 0 175.0798 297.5584)" class="st3 st7 st8">SHOP 127</text>
		<text transform="matrix(0 -1 1 0 327.1915 319.4061)"><tspan x="0" y="0" class="st3 st7 st8">SHOP</tspan><tspan x="2.1" y="3.6" class="st3 st7 st8">151</tspan></text>
		<text transform="matrix(0 -1 1 0 190.4592 387.5203)" class="st3 st7 st8">SHOP 112</text>
		<text transform="matrix(0 -1 1 0 275.3708 364.8914)" class="st3 st7 st8">SHOP 146</text>
		<text transform="matrix(0 -1 1 0 275.3712 332.699)" class="st3 st7 st8">SHOP 146A</text>
		<text transform="matrix(0 -1 1 0 362.2961 319.4051)"><tspan x="0" y="0" class="st3 st7 st8">SHOP</tspan><tspan x="1.7" y="3.6" class="st3 st7 st8">152</tspan></text>
	</g>
	<g>
		<text transform="matrix(0 -1 1 0 543.5704 454.1917)" class="st3 st9 st11">BIRKENHEAD MARINA</text>
	</g>
	<g>
		<text transform="matrix(0 -1 1 0 29.8921 437.1214)" class="st3 st9 st11">ROSEBY STREET</text>
	</g>
</g>
</svg>
