<?xml version="1.0" encoding="utf-8"?>
<!-- Generator: Adobe Illustrator 28.0.0, SVG Export Plug-In . SVG Version: 6.00 Build 0)  -->
<svg version="1.1" xmlns="http://www.w3.org/2000/svg" xmlns:xlink="http://www.w3.org/1999/xlink" x="0px" y="0px"
	 viewBox="0 0 565.6 781.6" style="enable-background:new 0 0 565.6 781.6;" xml:space="preserve">
<style type="text/css">
	.st0{fill:transparent;}
	.st1{fill:none;stroke:#333333;stroke-width:2;stroke-miterlimit:10;}
	.st2{fill:none;stroke:#231F20;stroke-width:0.25;stroke-miterlimit:10;}
	.st3{fill:#231F20;}
	.st4{fill-rule:evenodd;clip-rule:evenodd;fill:#231F20;}
	.st5{fill:#FFFFFF;}
	.st6{fill:#010101;}
	.st7{font-family:'Poppins-SemiBold';}
	.st8{font-size:3px;}
	.st9{font-size:8px;}
	.st10{font-family:'Poppins-Regular';}
	.st11{font-size:12px;}
</style>
<g id="Background">
	<rect x="0.3" y="-1.2" class="st0" width="569.4" height="783.4"/>
</g>
<g id="Lines">
	<g>
		<rect x="317.4" y="179.8" class="st1" width="19.7" height="41.3"/>
		<polygon class="st1" points="201.4,364.9 201.4,449.4 233,449.4 233,434.6 235.2,434.6 235.2,364.9 		"/>
		<polygon class="st1" points="235.4,348.7 201.6,348.7 201.8,167.5 210,167.5 210.2,197.1 235.4,196.7 		"/>
		<polygon class="st1" points="280.4,384.5 253.1,384.5 253.1,455.9 488.2,455.9 488.2,394.2 488.2,384.5 488.2,358.5 280.4,358.5 
					"/>
		<polygon class="st1" points="427.4,221.7 469.2,221.7 463.9,321.6 427.1,321.1 		"/>
		<polygon class="st1" points="235.5,104.2 230.1,104.2 230.1,129.1 254,129.1 254,108 254,104.2 254,86.2 235.5,86.2 		"/>
		<polygon class="st1" points="269.8,509.8 222.4,592.5 179.2,592.5 179.2,621.7 72.8,621.7 72.8,533.8 95.1,533.7 95.1,526.8 
			102.8,526.8 102.8,533.7 173.2,533.7 173.2,533.7 174.9,530.8 181.2,520.3 192.4,526.4 204.5,504.8 263,504.8 		"/>
		<rect x="235.6" y="356.2" class="st1" width="16.5" height="32.8"/>
		<polygon class="st1" points="249.5,489 218.7,489 218.7,475.5 230.4,462.3 233.1,462.3 233.1,434.6 249.3,434.6 		"/>
		<rect x="118.8" y="316.9" class="st1" width="61.7" height="18.2"/>
		<rect x="118.8" y="285" class="st1" width="61.7" height="31.9"/>
		<polygon class="st1" points="180.7,256.1 180.6,285 118.8,285 118.7,256.1 		"/>
		<polygon class="st1" points="180.6,335.1 180.6,366.6 108.1,366.6 108.1,335.1 118.6,335.1 		"/>
		<rect x="160.4" y="226.7" class="st1" width="20.1" height="23.1"/>
		<polygon class="st1" points="180.5,195.8 180.5,226.7 138.5,226.7 138.5,232.5 128.4,232.5 128.4,195.8 135,195.8 		"/>
		<polygon class="st1" points="180.7,145 180.6,163.2 180.6,178.7 180.5,195.8 101.8,195.8 101.8,178.6 71.2,178.6 71.2,145 		"/>
		<polygon class="st1" points="195.7,97.6 180.7,97.6 180.7,145 71.2,145 71.2,74.9 195.6,74.9 		"/>
		<polygon class="st1" points="471.9,160.4 469.2,221.7 427.4,221.7 409.4,221.7 409.4,175.1 424.1,158.9 		"/>
		<polygon class="st1" points="320.1,278.2 320.1,336.3 254,336.5 254,292.1 254,278.3 254,273.1 254,238.9 314.3,239.1 
			314.3,278.2 314.3,278.2 		"/>
		<polygon class="st1" points="353.1,238.9 353.1,336.5 320.1,336.3 320.1,278.2 314.3,278.2 314.3,239.1 		"/>
		<polygon class="st1" points="410.2,258.6 410.2,336.5 353.1,336.5 353.1,278.3 353.1,274.3 353.1,238.9 391.4,238.9 		"/>
		<rect x="351" y="169.9" class="st1" width="26.4" height="51.8"/>
		<polygon class="st1" points="428.4,101.8 428.4,149 393.6,149 393.6,101.9 		"/>
		<polyline class="st1" points="393.6,101.9 393.6,149 350.9,149 350.9,79.2 372,79.2 372,101.9 393.6,101.9 		"/>
		<polygon class="st1" points="350.9,79.2 350.9,79.2 350.9,101.8 350.9,106.2 350.9,149 333,149 333,79.2 		"/>
		<rect x="314" y="79.2" class="st1" width="19" height="69.8"/>
		<rect x="294.9" y="79.2" class="st1" width="19.1" height="69.8"/>
		<rect x="275.7" y="79.2" class="st1" width="19.2" height="69.8"/>
		<polygon class="st1" points="275.7,79.2 275.7,149 262.5,149 254,141.2 254,79 		"/>
		<polygon class="st1" points="302.5,181 302.5,199.1 302.5,214.7 294.6,221.6 254.8,221.6 254.8,199.1 254.8,181 263,173.2 
			295,173.2 		"/>
		<polygon class="st1" points="108.1,366.6 108.1,427 93.7,427 93.7,417.1 71.3,417.1 71.3,366.6 87.3,366.7 87.3,353.1 98.6,353.1 
			98.6,366.6 		"/>
		<rect x="108.1" y="366.6" class="st1" width="35.7" height="60.4"/>
		<polygon class="st1" points="180.6,366.6 180.5,417.1 160.9,417.1 160.9,427 143.9,427 143.9,366.6 		"/>
		<polygon class="st1" points="137.8,444.1 137.8,533.7 102.8,533.7 102.8,526.8 95.1,526.8 95.1,523 72.8,523 72.8,453.9 94,453.9 
			94,444.1 		"/>
		<polygon class="st1" points="201.4,465.8 180.3,499.7 190.5,504.7 173.2,533.7 137.8,533.7 137.8,444.1 160.5,444.1 160.5,453.9 
			190.3,453.9 		"/>
		<polyline class="st1" points="209.5,167.5 235.2,167.5 235.2,196.3 		"/>
		<rect x="71.4" y="195.8" class="st1" width="22.6" height="35.6"/>
		<rect x="71.4" y="247.4" class="st1" width="18.1" height="38.4"/>
	</g>
</g>
<g id="ALDI">
</g>
<g id="coles">
</g>
<g id="Icons">
	<g>
		<polygon class="st5" points="213.7,198 213.6,198 213.5,198.1 		"/>
		<path class="st6" d="M447.6,126.5c2.4,0,4.4,2,4.4,4.4c0,2.4-2,4.4-4.4,4.4c-2.4,0-4.4-2-4.4-4.4
			C443.2,128.4,445.2,126.5,447.6,126.5"/>
		<path class="st5" d="M445.6,130.9c0-0.3-0.2-0.5-0.5-0.5c-0.3,0-0.5,0.2-0.5,0.5c0,0.3,0.2,0.5,0.5,0.5
			C445.3,131.4,445.6,131.2,445.6,130.9"/>
		<path class="st5" d="M446.5,130.2L446.5,130.2l1.2-0.4c0.1-0.1,0.2-0.2,0.2-0.3c0-0.1-0.2-0.2-0.3-0.1l-1.2,0.4
			c-0.4,0.1-0.7,0.4-0.7,0.7v0.7c0,0.4,0.3,0.7,0.7,0.7l1.2,0.4c0.1,0.1,0.3,0,0.3-0.1c0.1-0.1,0-0.2-0.2-0.3l-1.2-0.3l-0.1-0.1
			l0.1,0l2.2,0.7v-0.7h1.7c0.1,0,0.3-0.1,0.3-0.2c0-0.1-0.1-0.2-0.3-0.2h-1.6l-0.1-0.1l0.1,0h1.6c0.1,0,0.3-0.1,0.3-0.2
			c0-0.2-0.1-0.2-0.3-0.2h-1.7v-0.7L446.5,130.2L446.5,130.2z"/>
		<path class="st6" d="M447.6,136.1c2.4,0,4.4,2,4.4,4.4s-2,4.4-4.4,4.4c-2.4,0-4.4-2-4.4-4.4S445.2,136.1,447.6,136.1"/>
		<path class="st5" d="M445.6,140.6c0-0.3-0.2-0.5-0.5-0.5c-0.3,0-0.5,0.2-0.5,0.5c0,0.3,0.2,0.5,0.5,0.5
			C445.3,141.1,445.6,140.9,445.6,140.6"/>
		<path class="st5" d="M445.7,140.1v1c0,0.4,0.3,0.6,0.7,0.6h1.5c0.2,0,0.3-0.1,0.3-0.2c0-0.2-0.1-0.2-0.3-0.2h-1.3l-0.1-0.1
			l0.1-0.1h3.9c0.1,0,0.3-0.1,0.3-0.3c0-0.2-0.1-0.3-0.3-0.3h-2.2l-0.1-0.1l0.1-0.1h2.2c0.1,0,0.3-0.1,0.3-0.3
			c0-0.1-0.1-0.3-0.3-0.3h-3.9l-0.1-0.1l0.1-0.1h1.3c0.2,0,0.3-0.1,0.3-0.2c0-0.2-0.1-0.2-0.3-0.2h-1.5
			C446,139.4,445.7,139.7,445.7,140.1"/>
		<path class="st6" d="M344.1,181.5c2.4,0,4.4,2,4.4,4.4c0,2.4-2,4.4-4.4,4.4c-2.4,0-4.4-2-4.4-4.4
			C339.6,183.5,341.6,181.5,344.1,181.5"/>
		<path class="st5" d="M342.5,186.4c0-0.2-0.2-0.4-0.4-0.4c-0.2,0-0.4,0.2-0.4,0.4c0,0.2,0.2,0.4,0.4,0.4
			C342.3,186.8,342.5,186.6,342.5,186.4"/>
		<path class="st5" d="M342.2,183.4v1.2c0,0.2,0.1,0.3,0.2,0.4l0.2-0.2l-0.1,0.1l-0.1,0.1h0l1,1h-0.3c-0.2,0-0.4,0.2-0.4,0.4
			c0,0.2,0.2,0.4,0.4,0.4h1.1l0.8,0.8l0,0c0.1,0.1,0.1,0.2,0.1,0.2v0.7c0,0.4,0.3,0.6,0.6,0.6c0.3,0,0.6-0.3,0.6-0.6v-1.2
			c0-0.2-0.1-0.3-0.2-0.4L346,187l0.2-0.2l-2.6-2.6l0,0l0,0c-0.1-0.1-0.1-0.1-0.1-0.2v-0.7c0-0.2-0.1-0.3-0.2-0.5
			c-0.1-0.1-0.3-0.2-0.5-0.2C342.5,182.8,342.2,183.1,342.2,183.4 M343.1,183.2c0.1,0.1,0.1,0.2,0.1,0.3v0.7c0,0.2,0.1,0.3,0.2,0.4
			l2.5,2.5c0.1,0.1,0.1,0.1,0.1,0.2v1.2c0,0.1,0,0.2-0.1,0.3c-0.1,0.1-0.2,0.1-0.3,0.1c-0.1,0-0.2,0-0.3-0.1
			c-0.1-0.1-0.1-0.2-0.1-0.3v-0.7c0-0.2-0.1-0.3-0.2-0.4l-0.1,0.1l0.1-0.1l-2.6-2.6c-0.1-0.1-0.1-0.1-0.1-0.2v-1.2
			c0-0.1,0-0.2,0.1-0.3c0.1-0.1,0.2-0.1,0.3-0.1C343,183.1,343.1,183.1,343.1,183.2"/>
		<path class="st6" d="M192.3,509.7c2.4,0,4.4,2,4.4,4.4c0,2.4-2,4.4-4.4,4.4c-2.4,0-4.4-2-4.4-4.4
			C187.9,511.7,189.9,509.7,192.3,509.7"/>
		<path class="st5" d="M190.8,514.6c0-0.2-0.2-0.4-0.4-0.4c-0.2,0-0.4,0.2-0.4,0.4c0,0.2,0.2,0.4,0.4,0.4
			C190.6,515,190.8,514.8,190.8,514.6"/>
		<path class="st5" d="M190.5,511.6v1.2c0,0.2,0.1,0.3,0.2,0.4l0.2-0.2l-0.1,0.1l-0.1,0.1h0l1,1h-0.3c-0.2,0-0.4,0.2-0.4,0.4
			s0.2,0.4,0.4,0.4h1.1l0.8,0.8l0,0c0.1,0.1,0.1,0.2,0.1,0.2v0.7c0,0.4,0.3,0.6,0.6,0.6c0.4,0,0.6-0.3,0.6-0.6v-1.2
			c0-0.2-0.1-0.3-0.2-0.4l-0.2,0.2l0.2-0.2l-2.6-2.6l0,0l0,0c-0.1-0.1-0.1-0.1-0.1-0.2v-0.7c0-0.2-0.1-0.3-0.2-0.5
			c-0.1-0.1-0.3-0.2-0.5-0.2C190.8,511,190.5,511.3,190.5,511.6 M191.4,511.4c0.1,0.1,0.1,0.2,0.1,0.3v0.7c0,0.2,0.1,0.3,0.2,0.4
			l2.5,2.5c0.1,0.1,0.1,0.1,0.1,0.2v1.2c0,0.1,0,0.2-0.1,0.3c-0.1,0.1-0.2,0.1-0.3,0.1c-0.1,0-0.2,0-0.3-0.1
			c-0.1-0.1-0.1-0.2-0.1-0.3V516c0-0.2-0.1-0.3-0.2-0.4l-0.1,0.1l0.1-0.1l-2.6-2.6c-0.1-0.1-0.1-0.1-0.1-0.2v-1.2
			c0-0.1,0-0.2,0.1-0.3c0.1-0.1,0.2-0.1,0.3-0.1C191.2,511.3,191.3,511.3,191.4,511.4"/>
		<path class="st6" d="M201.6,477.4c2.4,0,4.4,2,4.4,4.4c0,2.4-2,4.4-4.4,4.4c-2.4,0-4.4-2-4.4-4.4
			C197.2,479.4,199.2,477.4,201.6,477.4"/>
		<path class="st5" d="M200.4,484.2l2.4,0.9v-0.5l-0.5-0.2v-0.9l0.5-0.2v-0.5l-2.4,0.9V484.2z M201.8,484.3l-0.4-0.2
			c-0.1,0-0.3-0.1-0.4-0.1c0.1,0,0.2-0.1,0.4-0.1l0.4-0.2V484.3z"/>
		<polygon class="st5" points="200.9,483 200.9,482.3 202.8,482.3 202.8,481.8 200.9,481.8 200.9,481.2 200.4,481.2 200.4,483 		"/>
		<path class="st5" d="M200.4,479l1.1,0.5c0.1,0.1,0.3,0.1,0.4,0.2c-0.1,0-0.3,0.1-0.4,0.2l-1.1,0.5v0.5h2.4v-0.5h-0.9
			c-0.1,0-0.4,0-0.5,0c0.1,0,0.3-0.1,0.4-0.2l1.1-0.5l-1.1-0.5c-0.1-0.1-0.3-0.1-0.4-0.2c0.1,0,0.4,0,0.5,0h0.9v-0.5h-2.4V479z"/>
		<path class="st6" d="M447.6,116.8c2.4,0,4.4,2,4.4,4.4s-2,4.4-4.4,4.4c-2.4,0-4.4-2-4.4-4.4S445.2,116.8,447.6,116.8"/>
		<path class="st5" d="M445.7,121.6c0-0.3-0.2-0.5-0.5-0.5c-0.3,0-0.5,0.2-0.5,0.5c0,0.3,0.2,0.5,0.5,0.5
			C445.5,122,445.7,121.8,445.7,121.6"/>
		<path class="st5" d="M449.9,121.2c0,0.8-0.6,1.4-1.4,1.4c-0.5,0-1-0.3-1.2-0.7l-0.6,0.1c0.3,0.7,1,1.2,1.8,1.2c1.1,0,2-0.9,2-1.9
			c0-0.7-0.4-1.3-0.9-1.6l-0.6,0.3C449.5,120,449.9,120.6,449.9,121.2"/>
		<path class="st5" d="M449.1,118.4c-0.1,0.1-0.2,0.2-0.1,0.3l0.1,0.2l-1.5,0.8v1.4l-0.5,0v-0.9c0-0.2-0.1-0.3-0.2-0.3
			c-0.1,0-0.3,0.1-0.3,0.3v1l-0.7,0v0.5l2.2-0.1V120l1.7-0.9l-0.3-0.7C449.4,118.3,449.2,118.3,449.1,118.4"/>
		<path class="st6" d="M266.7,341.9c2.6,0,4.8,2.1,4.8,4.8c0,2.6-2.1,4.8-4.8,4.8c-2.6,0-4.8-2.1-4.8-4.8
			C262,344,264.1,341.9,266.7,341.9"/>
		<polygon class="st5" points="268.6,349.4 268.6,348.4 267.6,348.4 267.6,347.4 266.6,347.4 266.6,346.4 265.6,346.4 265.6,345.4 
			264.6,345.4 264.6,343.9 265.1,343.9 265.1,344.9 266.1,344.9 266.1,345.9 267.1,345.9 267.1,346.9 268.1,346.9 268.1,347.9 
			269.1,347.9 269.1,349.4 		"/>
		<path class="st6" d="M224.1,445c2.4,0,4.4,2,4.4,4.4s-2,4.4-4.4,4.4c-2.4,0-4.4-2-4.4-4.4S221.6,445,224.1,445"/>
		<path class="st5" d="M222.5,449.9c0-0.2-0.2-0.4-0.4-0.4c-0.2,0-0.4,0.2-0.4,0.4c0,0.2,0.2,0.4,0.4,0.4
			C222.4,450.3,222.5,450.1,222.5,449.9"/>
		<path class="st5" d="M222.3,446.9v1.2c0,0.2,0.1,0.3,0.2,0.4l0.2-0.2l-0.1,0.1l-0.1,0.1h0l1,1h-0.3c-0.2,0-0.4,0.2-0.4,0.4
			c0,0.2,0.2,0.4,0.4,0.4h1.1l0.8,0.8l0,0c0.1,0.1,0.1,0.1,0.1,0.2v0.7c0,0.4,0.3,0.6,0.6,0.6c0.4,0,0.6-0.3,0.6-0.6v-1.2
			c0-0.2-0.1-0.3-0.2-0.4l-0.2,0.2l0.2-0.2l-2.6-2.6l0,0l0,0c-0.1-0.1-0.1-0.1-0.1-0.2v-0.7c0-0.2-0.1-0.3-0.2-0.5
			c-0.1-0.1-0.3-0.2-0.5-0.2C222.5,446.3,222.3,446.6,222.3,446.9 M223.1,446.7c0.1,0.1,0.1,0.2,0.1,0.3v0.7c0,0.2,0.1,0.3,0.2,0.4
			l2.5,2.5c0.1,0.1,0.1,0.1,0.1,0.2v1.2c0,0.1,0,0.2-0.1,0.3c-0.1,0.1-0.2,0.1-0.3,0.1c-0.1,0-0.2,0-0.3-0.1
			c-0.1-0.1-0.1-0.2-0.1-0.3v-0.7c0-0.2-0.1-0.3-0.2-0.4l-0.1,0.1l0.1-0.1l-2.6-2.6c-0.1-0.1-0.1-0.1-0.1-0.2v-1.2
			c0-0.1,0-0.2,0.1-0.3c0.1-0.1,0.2-0.1,0.3-0.1C223,446.5,223.1,446.6,223.1,446.7"/>
		<path class="st6" d="M281.7,221c2.4,0,4.4,2,4.4,4.4s-2,4.4-4.4,4.4c-2.4,0-4.4-2-4.4-4.4S279.3,221,281.7,221"/>
		<path class="st3" d="M327.3,163.6c2.5,0,4.5,2,4.5,4.5c0,2.5-2,4.5-4.5,4.5c-2.5,0-4.5-2-4.5-4.5
			C322.8,165.6,324.8,163.6,327.3,163.6"/>
		<path class="st5" d="M326.5,166.2c0-0.2,0.1-0.2,0.2-0.1l2.4,1.9c0.1,0.1,0.1,0.2,0,0.3l-2.4,1.9c-0.1,0.1-0.2,0-0.2-0.1V166.2z"
			/>
		<path class="st3" d="M327.3,182.6c-2.5,0-4.5-2-4.5-4.5s2-4.5,4.5-4.5c2.5,0,4.5,2,4.5,4.5S329.7,182.6,327.3,182.6"/>
		<path class="st5" d="M328.1,180c0,0.2-0.1,0.2-0.2,0.1l-2.4-1.9c-0.1-0.1-0.1-0.2,0-0.3l2.4-1.9c0.1-0.1,0.2,0,0.2,0.1V180z"/>
		<path class="st3" d="M266.9,357c2.5,0,4.5,2,4.5,4.5c0,2.5-2,4.5-4.5,4.5c-2.5,0-4.5-2-4.5-4.5C262.4,359,264.4,357,266.9,357"/>
		<path class="st5" d="M266.1,359.6c0-0.2,0.1-0.2,0.2-0.1l2.4,1.9c0.1,0.1,0.1,0.2,0,0.3l-2.4,1.9c-0.1,0.1-0.2,0-0.2-0.2V359.6z"
			/>
		<path class="st3" d="M266.9,376c-2.5,0-4.5-2-4.5-4.5c0-2.5,2-4.5,4.5-4.5c2.5,0,4.5,2,4.5,4.5C271.4,373.9,269.3,376,266.9,376"
			/>
		<path class="st5" d="M267.7,373.4c0,0.2-0.1,0.2-0.2,0.1l-2.4-1.9c-0.1-0.1-0.1-0.2,0-0.3l2.4-1.9c0.1-0.1,0.2,0,0.2,0.1V373.4z"
			/>
		<path class="st3" d="M259.1,479.3c2.5,0,4.5,2,4.5,4.5c0,2.5-2,4.5-4.5,4.5c-2.5,0-4.5-2-4.5-4.5
			C254.7,481.3,256.7,479.3,259.1,479.3"/>
		<path class="st5" d="M258.3,481.9c0-0.2,0.1-0.2,0.2-0.1l2.4,1.9c0.1,0.1,0.1,0.2,0,0.3l-2.4,1.9c-0.1,0.1-0.2,0-0.2-0.1V481.9z"
			/>
		<path class="st3" d="M259.1,498.3c-2.5,0-4.5-2-4.5-4.5c0-2.5,2-4.5,4.5-4.5c2.5,0,4.5,2,4.5,4.5
			C263.6,496.3,261.6,498.3,259.1,498.3"/>
		<path class="st3" d="M150.4,232.2c2.5,0,4.5,2,4.5,4.5c0,2.5-2,4.5-4.5,4.5c-2.5,0-4.5-2-4.5-4.5C146,234.2,148,232.2,150.4,232.2
			"/>
		<path class="st5" d="M149.7,234.8c0-0.2,0.1-0.2,0.2-0.1l2.4,1.9c0.1,0.1,0.1,0.2,0,0.3l-2.4,1.9c-0.1,0.1-0.2,0-0.2-0.2V234.8z"
			/>
		<path class="st3" d="M150.4,251.2c-2.5,0-4.5-2-4.5-4.5c0-2.5,2-4.5,4.5-4.5c2.5,0,4.5,2,4.5,4.5
			C154.9,249.2,152.9,251.2,150.4,251.2"/>
		<path class="st5" d="M151.2,248.6c0,0.2-0.1,0.2-0.2,0.1l-2.4-1.9c-0.1-0.1-0.1-0.2,0-0.3l2.4-1.9c0.1-0.1,0.2,0,0.2,0.1V248.6z"
			/>
		<path class="st3" d="M69.4,473.2c0-2.4-1.9-4.3-4.3-4.3c-2.4,0-4.4,1.9-4.4,4.3c0,2.4,1.9,4.4,4.4,4.4
			C67.5,477.5,69.4,475.6,69.4,473.2"/>
		<path class="st5" d="M64.9,471c-0.1,0-0.2,0.1-0.2,0.3l0,0.1l0.1,0.2l-0.6,0.3l0,0.1c-0.1,0.2-0.1,0.3-0.1,0.5l-0.4,0.1l-0.1,0.1
			v1l0.1,0.1l0.4,0.1c0,0.2,0.1,0.4,0.1,0.6l0,0.1l0.7,0.3l0,0.1l0,0.1c0,0.1,0.1,0.2,0.2,0.3c0.1,0,0.1,0,0.2,0
			c0.1,0,0.1-0.1,0.1-0.2l0,0l0.1,0c0.2,0.1,0.3,0.1,0.4,0.1c0.1,0,0.2,0,0.3,0l0.7,0h0c0.1,0,0.1,0,0.2,0c0.1,0,0.1-0.1,0.1-0.2
			v-0.4c0-0.1,0-0.2-0.1-0.2c-0.1,0-0.1,0-0.2,0h0h-0.1c0-0.5,0.1-0.8,0.1-1.2c0-0.3,0-0.6-0.1-1.1l0.1,0h0c0.1,0,0.1,0,0.2,0
			c0.1,0,0.1-0.1,0.1-0.2v-0.4c0-0.1,0-0.2-0.1-0.2c-0.1,0-0.1,0-0.2,0l-0.7,0h0c-0.1,0-0.3,0-0.4,0c-0.1,0-0.3,0-0.4,0.1l-0.1,0
			l0-0.1C65.2,471.1,65,471,64.9,471 M63.6,473.6v-0.8l0.3-0.1c0,0.2,0,0.4,0,0.6c0,0.1,0,0.3,0,0.4L63.6,473.6z M64.2,474.4
			L64.2,474.4c-0.1-0.1-0.1-0.3-0.1-0.5l0-0.1l0-0.1c0-0.1,0-0.3,0-0.5c0-0.2,0-0.4,0-0.6l0-0.1l0-0.1c0-0.2,0.1-0.3,0.1-0.4l0,0
			l0.5-0.3c0.1,0.4,0.1,0.9,0.1,1.2v0.2c0,0.6,0,1.1-0.1,1.5L64.2,474.4z M66.8,474.5l0.1,0l0,0v0.4l0,0l-0.1,0l-0.2,0l0-0.1
			c0-0.1,0-0.3,0-0.4H66.8L66.8,474.5z M66.8,471.4L66.8,471.4l0.1,0l0,0v0.4l0,0l-0.1,0h0l-0.1,0c0-0.1,0-0.2,0-0.4l-0.1-0.1H66.8z
			 M65,471.3l0.1,0.3l0.2-0.1c0.1-0.1,0.2-0.1,0.3-0.1c0.1,0,0.2,0,0.3,0v0h0c0.1,0,0.1,0,0.2,0c0.1,0,0.2,0.1,0.2,0.1
			c0.1,0.8,0.1,1.2,0.1,1.7c0,0.4,0,0.9-0.1,1.7c0,0.1-0.1,0.1-0.2,0.1c-0.1,0-0.1,0-0.2,0h0v0c-0.1,0-0.2,0-0.3,0
			c-0.1,0-0.2,0-0.3-0.1l-0.2-0.1l-0.1,0.2l-0.1,0.1l-0.1,0l-0.1-0.1l0,0l0.1-0.3l0,0c0.1-0.4,0.1-0.9,0.1-1.4v-0.2v-0.2
			c0-0.3,0-0.8-0.1-1.3l0,0l-0.1-0.3l0,0l0.1-0.1L65,471.3"/>
		<path class="st5" d="M65.5,474.5c0,0.2,0.1,0.3,0.3,0.3c0.2,0,0.3-0.1,0.3-0.3c0-0.2-0.1-0.3-0.3-0.3
			C65.7,474.2,65.5,474.4,65.5,474.5 M66,474.5c0,0.1-0.1,0.1-0.1,0.1c-0.1,0-0.1-0.1-0.1-0.1c0-0.1,0.1-0.1,0.1-0.1
			C65.9,474.4,66,474.5,66,474.5"/>
		<path class="st5" d="M65.5,471.9c0,0.2,0.1,0.3,0.3,0.3c0.2,0,0.3-0.1,0.3-0.3c0-0.2-0.1-0.3-0.3-0.3
			C65.7,471.5,65.5,471.7,65.5,471.9 M66,471.9c0,0.1-0.1,0.1-0.1,0.1c-0.1,0-0.1-0.1-0.1-0.1c0-0.1,0.1-0.1,0.1-0.1
			C65.9,471.7,66,471.8,66,471.9"/>
		<rect x="66" y="472.4" class="st5" width="0.2" height="1.6"/>
		<rect x="65.6" y="472.4" class="st5" width="0.2" height="1.6"/>
		<path d="M250.1,347.1c0.1-0.1,0.1-0.2,0.1-0.4c0-0.2,0-0.3-0.1-0.4c-0.1-0.1-0.2-0.2-0.4-0.2c-0.2,0-0.3,0.1-0.4,0.2
			c-0.1,0.1-0.1,0.2-0.1,0.4c0,0.2,0,0.3,0.1,0.4c0.1,0.1,0.2,0.2,0.4,0.2C249.8,347.2,250,347.2,250.1,347.1 M251.1,346.2
			c0,0.1,0.1,0.3,0.1,0.4c0,0.1,0,0.3,0,0.5c0,0.2,0,0.3,0,0.5h0.2c0-0.2,0.1-0.4,0.2-0.4c0.1-0.1,0.3-0.1,0.5-0.1h2.4
			c0.2,0,0.4,0,0.4,0.1c0.1,0.1,0.1,0.2,0.1,0.4h0.1v-0.4v-0.5v-0.5v-0.4h-0.1c0,0.2,0,0.3-0.1,0.4c-0.1,0.1-0.2,0.1-0.4,0.1H251.1z
			"/>
		<path d="M257.1,346.7c0,2.7-2.2,4.8-4.8,4.8c-2.7,0-4.8-2.2-4.8-4.8c0-2.7,2.2-4.8,4.8-4.8C254.9,341.8,257.1,344,257.1,346.7
			 M248.1,346.7c0,2.3,1.8,4.1,4.1,4.1c2.3,0,4.1-1.8,4.1-4.1c0-2.3-1.8-4.1-4.1-4.1C250,342.6,248.1,344.4,248.1,346.7"/>
		<path class="st5" d="M279.7,227.1C279.7,227.1,279.8,227.2,279.7,227.1l4.4,0.1c0.1,0,0.1,0,0.1-0.1v-3.2c0-0.1,0-0.1-0.1-0.1
			h-4.3c-0.1,0-0.1,0-0.1,0.1V227.1z M279.9,227v-1.4h4.1v1.4H279.9z M279.9,225.4v-1.4h4.1v1.4H279.9z M280.5,225.1
			c0,0,0.1,0,0.1,0v-0.9c0,0-0.1,0-0.1,0c0,0,0,0,0,0.1L280.5,225.1C280.6,225.1,280.6,225.1,280.5,225.1 M280.6,226.8
			c0,0,0.1,0,0.1,0v-0.9c0,0-0.1,0-0.1,0c0,0,0,0,0,0.1L280.6,226.8C280.6,226.7,280.6,226.8,280.6,226.8 M280.7,225.1
			c0,0,0.1,0,0.1,0v-0.9c0,0-0.1,0-0.1,0c0,0,0,0,0,0.1L280.7,225.1C280.8,225.1,280.8,225.1,280.7,225.1 M280.8,226.8
			c0,0,0.1,0,0.1,0v-0.9c0,0-0.1,0-0.1,0c0,0,0,0,0,0.1L280.8,226.8C280.8,226.7,280.8,226.8,280.8,226.8 M280.9,225.1
			c0,0,0.1,0,0.1,0v-0.9c0,0-0.1,0-0.1,0c0,0,0,0,0,0.1L280.9,225.1C281,225.1,281,225.1,280.9,225.1 M281,226.8c0,0,0.1,0,0.1,0
			v-0.9c0,0-0.1,0-0.1,0c0,0,0,0,0,0.1L281,226.8C281,226.7,281,226.8,281,226.8 M281.1,225.1c0,0,0.1,0,0.1,0v-0.9c0,0-0.1,0-0.1,0
			c0,0,0,0,0,0.1L281.1,225.1C281.2,225.1,281.2,225.1,281.1,225.1 M281.2,226.8c0,0,0.1,0,0.1,0v-0.9c0,0-0.1,0-0.1,0
			c0,0,0,0,0,0.1L281.2,226.8C281.2,226.7,281.2,226.8,281.2,226.8 M281.9,225.8C281.9,225.8,281.9,225.9,281.9,225.8
			c0.2,0.1,0.2,0.1,0.2,0C282.1,225.7,282,225.7,281.9,225.8C281.9,225.7,281.9,225.7,281.9,225.8 M281.9,225.2
			C281.9,225.2,281.9,225.3,281.9,225.2c0.2,0.1,0.2,0.1,0.2,0C282.1,225.1,282,225.1,281.9,225.2
			C281.9,225.1,281.9,225.1,281.9,225.2"/>
		<path class="st6" d="M210.6,193c2.4,0,4.4,2,4.4,4.4s-2,4.4-4.4,4.4c-2.4,0-4.4-2-4.4-4.4S208.2,193,210.6,193"/>
		<path class="st5" d="M209.1,197.8c0-0.2-0.2-0.4-0.4-0.4c-0.2,0-0.4,0.2-0.4,0.4c0,0.2,0.2,0.4,0.4,0.4
			C208.9,198.2,209.1,198,209.1,197.8"/>
		<path class="st5" d="M208.8,194.9v1.2c0,0.2,0.1,0.3,0.2,0.4l0.2-0.2l-0.1,0.1l-0.1,0.1h0l1,1h-0.3c-0.2,0-0.4,0.2-0.4,0.4
			c0,0.2,0.2,0.4,0.4,0.4h1.1l0.8,0.8l0,0c0.1,0.1,0.1,0.2,0.1,0.2v0.7c0,0.4,0.3,0.6,0.6,0.6c0.3,0,0.6-0.3,0.6-0.6v-1.2
			c0-0.2-0.1-0.3-0.2-0.4l-0.2,0.2l0.2-0.2l-2.6-2.6l0,0l0,0c-0.1-0.1-0.1-0.1-0.1-0.2v-0.7c0-0.2-0.1-0.3-0.2-0.5
			c-0.1-0.1-0.3-0.2-0.5-0.2C209.1,194.2,208.8,194.5,208.8,194.9 M209.7,194.6c0.1,0.1,0.1,0.2,0.1,0.3v0.7c0,0.2,0.1,0.3,0.2,0.4
			l2.5,2.5c0.1,0.1,0.1,0.1,0.1,0.2v1.2c0,0.1,0,0.2-0.1,0.3c-0.1,0.1-0.2,0.1-0.3,0.1c-0.1,0-0.2,0-0.3-0.1
			c-0.1-0.1-0.1-0.2-0.1-0.3v-0.7c0-0.2-0.1-0.3-0.2-0.4l-0.1,0.1l0.1-0.1l-2.6-2.6c-0.1-0.1-0.1-0.1-0.1-0.2v-1.2
			c0-0.1,0-0.2,0.1-0.3c0.1-0.1,0.2-0.1,0.3-0.1C209.5,194.5,209.6,194.5,209.7,194.6"/>
	</g>
</g>
<g id="Type">
	<g>
		<text transform="matrix(0 -1 1 0 438.3305 196.3738)" class="st3 st7 st8">FILA</text>
		<text transform="matrix(0 -1 1 0 276.9808 208.5272)" class="st3 st7 st8">STYLERUNNER</text>
		<text transform="matrix(0 -1 1 0 340.5506 126.4139)" class="st3 st7 st8">PETER JACKSON</text>
		<text transform="matrix(0 -1 1 0 372.4767 127.3992)" class="st3 st7 st8">YD</text>
		<text transform="matrix(0 -1 1 0 334.613 300.8094)" class="st3 st7 st8">LEVIʼS OUTLET</text>
		<text transform="matrix(0 -1 1 0 446.0456 278.6951)" class="st3 st7 st8">STRAND</text>
		<text transform="matrix(0 -1 1 0 240.9139 482.3528)" class="st3 st7 st8">PETERS OF KENSINGTON CAFÉ</text>
		<text transform="matrix(0 -1 1 0 244.3991 385.7171)"><tspan x="0" y="0" class="st3 st7 st8">GUEST SERVICES</tspan><tspan x="6.2" y="3.6" class="st3 st7 st8">LOUNGE</tspan></text>
		<text transform="matrix(0 -1 1 0 362.3996 212.992)" class="st3 st7 st8">CALVIN KLEIN TAILORED</text>
		<text transform="matrix(0 -1 1 0 283.3503 123.7859)" class="st3 st7 st8">VAN HEUSEN</text>
		<text transform="matrix(0 -1 1 0 303.4259 120.5389)" class="st3 st7 st8">MJ BALE</text>
		<text transform="matrix(0 -1 1 0 321.9834 119.9324)" class="st3 st7 st8">AQUILA</text>
		<text transform="matrix(0 -1 1 0 379.9939 301.7469)" class="st3 st7 st8">BONDS OUTLET</text>
		<text transform="matrix(0 -1 1 0 224.5201 191.199)" class="st3 st7 st8">BRAND SPACE</text>
		<text transform="matrix(0 -1 1 0 243.3713 120.9246)" class="st3 st7 st8">THE SHED CAFÉ</text>
		<text transform="matrix(0 -1 1 0 155.2072 216.4539)" class="st3 st7 st8">GUESS</text>
		<text transform="matrix(0 -1 1 0 143.9915 276.5613)"><tspan x="0" y="0" class="st3 st7 st8">ARMANI</tspan><tspan x="0.5" y="3.6" class="st3 st7 st8">OUTLET</tspan></text>
		<text transform="matrix(0 -1 1 0 264.1032 116.1785)" class="st3 st7 st8">T2</text>
		<text transform="matrix(0 -1 1 0 129.3116 125.0096)" class="st3 st7 st8">POLO RALPH LAUREN</text>
		<text transform="matrix(2.042000e-02 -0.9998 0.9998 2.042000e-02 129.1491 178.5724)" class="st3 st7 st8">CONVERSE</text>
		<text transform="matrix(0 -1 1 0 147.8886 310.2381)" class="st3 st7 st8">HUGO BOSS</text>
		<text transform="matrix(0 -1 1 0 147.8886 330.5916)" class="st3 st7 st8">FURLA</text>
		<text transform="matrix(0 -1 1 0 147.8886 361.2195)" class="st3 st7 st8">MICHAEL KORS</text>
		<text transform="matrix(0 -1 1 0 285.0622 296.4109)"><tspan x="0" y="0" class="st3 st7 st8">TOMMY</tspan><tspan x="-0.6" y="3.6" class="st3 st7 st8">HILFIGER</tspan></text>
		<text transform="matrix(0 -1 1 0 410.4695 131.9842)" class="st3 st7 st8">GAZMAN</text>
		<text transform="matrix(0 -1 1 0 373.7278 417.3226)" class="st3 st7 st8">SPOTLIGHT</text>
		<text transform="matrix(-6.720000e-03 -1 1 -6.720000e-03 151.2789 591.9653)" class="st3 st7 st8">PETERS OF KENSINGTON</text>
		<text transform="matrix(0 -1 1 0 64.0084 459.4036)" class="st3 st7 st9">MAIN ENTRY</text>
		<text transform="matrix(0 -1 1 0 418.1433 248.0252)"><tspan x="0" y="0" class="st3 st7 st8">THIS WAY TO</tspan><tspan x="4.7" y="3.6" class="st3 st7 st8">LEVEL 1</tspan></text>
		<text transform="matrix(0 -1 1 0 180.0761 444.2772)"><tspan x="0" y="0" class="st3 st7 st8">TO STREET</tspan><tspan x="3.6" y="3.6" class="st3 st7 st8">LEVEL</tspan></text>
		<text transform="matrix(0 -1 1 0 161.2238 399.9427)" class="st3 st7 st8">OROTON</text>
		<text transform="matrix(0 -1 1 0 125.0317 397.8499)" class="st3 st7 st8">BALLY</text>
		<text transform="matrix(0 -1 1 0 91.2209 412.2889)" class="st3 st7 st8">POLO RALPH LAUREN KIDS</text>
		<text transform="matrix(0 -1 1 0 105.3283 504.5403)" class="st3 st7 st8">TOMMY BAHAMA</text>
		<text transform="matrix(0 -1 1 0 158.2139 497.5096)" class="st3 st7 st8">COACH</text>
		<text transform="matrix(0 -1 1 0 169.3889 247.6609)" class="st3 st7 st8">HAVAIANAS</text>
		<text transform="matrix(0 -1 1 0 219.1705 362.1722)" class="st3 st7 st8">BRIDGE</text>
		<text transform="matrix(0 -1 1 0 344.5062 121.6053)" class="st3 st10 st8">SHOP 66A</text>
		<text transform="matrix(0 -1 1 0 376.2104 131.3563)" class="st3 st10 st8">SHOP 67</text>
		<text transform="matrix(0 -1 1 0 442.9399 201.8895)" class="st3 st10 st8">SHOP 69/70</text>
		<text transform="matrix(0 -1 1 0 338.641 296.6541)" class="st3 st10 st8">SHOP 73</text>
		<text transform="matrix(0 -1 1 0 450.9408 279.6717)" class="st3 st10 st8">SHOP 70A</text>
		<text transform="matrix(0 -1 1 0 245.1492 466.7679)" class="st3 st10 st8">SHOP 56</text>
		<text transform="matrix(0 -1 1 0 366.7147 203.9422)" class="st3 st10 st8">SHOP 78/79</text>
		<text transform="matrix(0 -1 1 0 288.1159 121.6033)" class="st3 st10 st8">SHOP 64A</text>
		<text transform="matrix(0 -1 1 0 307.5764 120.6043)" class="st3 st10 st8">SHOP 65</text>
		<text transform="matrix(0 -1 1 0 326.3026 120.6111)" class="st3 st10 st8">SHOP 66</text>
		<text transform="matrix(0 -1 1 0 384.3005 298.3709)" class="st3 st10 st8">SHOP 71/72</text>
		<text transform="matrix(0 -1 1 0 247.5263 115.9041)" class="st3 st10 st8">SHOP 63</text>
		<text transform="matrix(0 -1 1 0 159.098 217.7059)" class="st3 st10 st8">SHOP 42</text>
		<text transform="matrix(0 -1 1 0 151.607 276.6766)" class="st3 st10 st8">SHOP 39</text>
		<text transform="matrix(0 -1 1 0 268.381 120.6092)" class="st3 st10 st8">SHOP 64</text>
		<text transform="matrix(0 -1 1 0 133.2641 118.5291)" class="st3 st10 st8">SHOP 45/46</text>
		<text transform="matrix(2.042000e-02 -0.9998 0.9998 2.042000e-02 132.9982 176.76)" class="st3 st10 st8">SHOP 44</text>
		<text transform="matrix(0 -1 1 0 151.7465 309.7811)" class="st3 st10 st8">SHOP 37/38</text>
		<text transform="matrix(0 -1 1 0 151.6071 332.137)" class="st3 st10 st8">SHOP 36</text>
		<text transform="matrix(0 -1 1 0 151.607 356.3655)" class="st3 st10 st8">SHOP 35</text>
		<text transform="matrix(0 -1 1 0 292.5388 300.0125)" class="st3 st10 st8">SHOP 74 - 90</text>
		<text transform="matrix(0 -1 1 0 414.6944 132.4412)" class="st3 st10 st8">SHOP 68B</text>
		<text transform="matrix(0 -1 1 0 378.7334 415.8245)" class="st3 st10 st8">SHOP 100</text>
		<text transform="matrix(-6.720000e-03 -1 1 -6.720000e-03 155.2218 580.546)" class="st3 st10 st8">SHOP 50</text>
		<text transform="matrix(-6.720000e-03 -1 1 -6.720000e-03 161.0206 574.7743)" class="st3 st10 st8"> </text>
		<text transform="matrix(0 -1 1 0 165.135 399.5106)" class="st3 st10 st8">SHOP 32</text>
		<text transform="matrix(0 -1 1 0 129.4703 399.0906)" class="st3 st10 st8">SHOP 31</text>
		<text transform="matrix(0 -1 1 0 110.1599 502.7298)" class="st3 st10 st8">SHOP 52/53/54</text>
		<text transform="matrix(0 -1 1 0 162.4665 498.0228)" class="st3 st10 st8">SHOP 55</text>
		<text transform="matrix(0 -1 1 0 173.3984 244.4461)" class="st3 st10 st8">SHOP 41</text>
		<path class="st3" d="M259.9,495.7c0,0.2-0.1,0.2-0.2,0.1l-2.4-1.9c-0.1-0.1-0.1-0.2,0-0.3l2.4-1.9c0.1-0.1,0.2,0,0.2,0.1V495.7z"
			/>
		<text transform="matrix(-6.720000e-03 -1 1 -6.720000e-03 94.9009 399.5773)" class="st3 st10 st8">SHOP 30</text>
		<text transform="matrix(0 -1 1 0 281.7264 206.4002)" class="st3 st10 st8">SHOP 76/77</text>
	</g>
</g>
</svg>
