<?xml version="1.0" encoding="utf-8"?>
<!-- Generator: Adobe Illustrator 28.0.0, SVG Export Plug-In . SVG Version: 6.00 Build 0)  -->
<svg version="1.1" xmlns="http://www.w3.org/2000/svg" xmlns:xlink="http://www.w3.org/1999/xlink" x="0px" y="0px"
	 viewBox="0 0 565.6 781.6" style="enable-background:new 0 0 565.6 781.6;" xml:space="preserve">
<style type="text/css">
	.st0{fill:transparent;}
	.st1{fill:none;stroke:#333333;stroke-width:2;stroke-miterlimit:10;}
	.st2{fill:none;stroke:#231F20;stroke-width:0.25;stroke-miterlimit:10;}
	.st3{fill:#231F20;}
	.st4{fill-rule:evenodd;clip-rule:evenodd;fill:#231F20;}
	.st5{fill:#FFFFFF;}
	.st6{fill:#010101;}
	.st7{font-family:'Poppins-SemiBold';}
	.st8{font-size:3px;}
	.st9{font-size:3.1519px;}
	.st10{font-size:8px;}
	.st11{font-family:'Poppins-Regular';}
	.st12{font-size:12px;}
</style>
<g id="Background">
	<rect x="0.3" y="-1.2" class="st0" width="569.4" height="783.4"/>
</g>
<g id="Lines">
	<g>
		<rect x="317.1" y="173.6" class="st1" width="20.6" height="87.9"/>
		<polygon class="st1" points="235,531.8 214.8,520.6 214.8,490.3 223.6,475.1 223.6,457.6 235,457.6 235,461.2 245.2,471.8 
			245.2,488 243.1,488 243.1,505.1 235,505.1 		"/>
		<polygon class="st1" points="153.7,262 158.6,262 158.6,270.6 206.1,270.6 206.1,250.3 167.9,250.3 158.6,250.3 153.7,250.3 		"/>
		<polygon class="st1" points="236.7,376.3 236.7,385.3 242.1,391.7 258.3,391.7 258.3,376.3 		"/>
		<polygon class="st1" points="257.2,544.6 235,531.8 235,505.1 268.2,505.1 277.4,509.7 		"/>
		<polygon class="st1" points="416.7,105.4 395.2,105.4 395.2,124 415.1,143.8 417.2,143.8 		"/>
		<polyline class="st1" points="394.3,403 394.3,414.6 365.7,414.6 365.7,403 394.1,403 394.3,403 		"/>
		<polyline class="st1" points="345,403 345,414.6 316.4,414.6 316.4,403 344.9,403 345,403 		"/>
		<polygon class="st1" points="449.7,462.1 387.9,462.1 387.9,456.8 384.2,453.2 384.2,427.7 449.9,427.7 		"/>
		<polygon class="st1" points="206.2,419.5 206.2,461.1 194.6,468.5 194.6,479.2 177.6,479.2 158.5,479.2 158.5,457.7 186.4,457.7 
			186.4,457.6 186.4,457.6 186.4,432 186.4,419.5 		"/>
		<polygon class="st1" points="206.2,386.1 206.2,419.5 186.4,419.5 186.4,417.5 186.4,417.5 186.4,402.5 186.4,402.5 186.4,401.8 
			186.4,386.1 		"/>
		<rect x="186.4" y="369.8" class="st1" width="19.8" height="16.3"/>
		<rect x="186.4" y="354.1" class="st1" width="19.8" height="15.7"/>
		<rect x="186.4" y="337.8" class="st1" width="19.8" height="16.3"/>
		<rect x="186.4" y="313" class="st1" width="19.8" height="24.8"/>
		<rect x="186.4" y="289.1" class="st1" width="19.8" height="23.9"/>
		<polygon class="st1" points="206.3,270.6 206.3,289.1 186.1,289.1 186.1,289.2 158.8,289.2 158.8,270.6 		"/>
		<polygon class="st1" points="201.5,84 201.5,132 201.5,135.2 201.5,198.9 132.3,198.9 132.3,198.8 132.1,198.8 77.1,198.8 
			77.1,132.1 87.5,132.1 87.5,100.7 147.7,100.7 147.7,100.5 147.6,100.5 147.6,100.4 147.6,100.5 147.7,100.5 147.7,84 		"/>
		<polygon class="st1" points="247.9,151 247.9,176.4 216,176.4 216,170.5 201.5,170.5 201.5,100.1 226.2,100.1 226.2,107.7 
			244.8,107.7 244.8,151 		"/>
		<polygon class="st1" points="258.5,224.1 258.5,245.1 236.9,245.1 236.9,234.5 247.3,224.1 		"/>
		<polygon class="st1" points="258.4,257.9 258.4,281.1 237.1,281.1 237.1,262.8 241.4,257.9 		"/>
		<polygon class="st1" points="258.4,281.1 258.4,309.4 246.6,321.2 237.1,321.2 237.1,281.1 		"/>
		<rect x="267.9" y="225.5" class="st1" width="32.1" height="19.4"/>
		<polygon class="st1" points="300,203.6 300,225.5 267.9,225.5 267.9,219.1 258.4,219.1 258.4,203.6 267.8,203.6 276,203.6 		"/>
		<polygon class="st1" points="258.6,186.4 258.4,203.3 258.4,219.4 243.2,219.4 243.2,191.4 247.8,186.4 		"/>
		<polygon class="st1" points="258.4,203.6 258.4,219.4 258.4,203.3 		"/>
		<polygon class="st1" points="337,82 337,124.9 272.6,125 272.6,101.2 258.6,101.2 258.6,81.9 		"/>
		<polyline class="st1" points="316.9,462.3 258.1,462.3 258.1,427 316.9,427 		"/>
		<polygon class="st1" points="316.7,320.3 316.7,359.7 279.4,359.7 279.4,318 297.5,299.6 297.5,320.3 		"/>
		<polygon class="st1" points="336.7,280 336.7,320.3 297.5,320.3 297.5,299.6 318.3,280 		"/>
		<polyline class="st1" points="375.2,320.2 375.1,280.1 395.1,280 395.1,337.8 386.5,337.8 375.3,337.8 375.2,320.3 375.2,320.3 
			375.2,320.2 		"/>
		<polygon class="st1" points="471.6,260.9 470.6,285 469,324.3 452.4,324.3 452.4,311.6 420.5,312 420.5,269.3 416.1,269.3 
			416.4,242.4 434.2,242.4 449.7,260.9 		"/>
		<rect x="337" y="82" class="st1" width="40.3" height="42.9"/>
		<rect x="356.1" y="203.3" class="st1" width="42.7" height="58.1"/>
		<polygon class="st1" points="399,151.5 398.9,203.3 355.9,203.3 355.9,203.4 353.6,203.4 353.6,143.8 390.8,143.8 		"/>
		<line class="st1" x1="494.5" y1="427.8" x2="494.5" y2="427.8"/>
		<line class="st1" x1="456" y1="359.7" x2="455.8" y2="359.7"/>
		<path class="st1" d="M375.1,280.1l0.1,40.2H356v0.1l-19.2-0.1V280L375.1,280.1z M375.2,320.3l0.1,17.4h-19.1v-17.4H375.2z"/>
		<polygon class="st1" points="188.8,207.3 188.8,234.1 132.3,234.1 132.3,216.8 132.3,198.9 178.9,198.9 		"/>
		<polyline class="st1" points="300.1,257.7 300.1,257.7 300,257.7 300.1,257.7 		"/>
		<polyline class="st1" points="300.1,257.7 300.1,264.5 258.4,309.4 258.4,257.9 300.1,257.9 		"/>
		<path class="st1" d="M300,144.1l0,59.5l-41.6,0l0.3-17.1l0-42.3H300z"/>
		<polyline class="st1" points="477.6,121.7 476.7,143.8 456,143.8 437.7,163.1 428.8,163.2 428.8,117 451.6,117 451.6,121.7 
			477.6,121.7 		"/>
		<polygon class="st1" points="181.7,512.2 181.7,529.6 177.1,537.5 109.3,537.5 109.3,534 103.2,534 103.2,528.7 99.4,528.7 
			99.4,524.7 77.1,524.7 77.1,457.2 158.2,457.7 158.2,479.5 177.3,479.5 177,508.4 		"/>
		<polygon class="st1" points="272.6,101.2 272.6,124.9 265.8,124.9 265.8,101.2 		"/>
		<polygon class="st1" points="297.2,359.7 297.2,393 277.6,393 277.6,376.4 277.6,376.4 277.6,359.7 		"/>
		<rect x="297.2" y="359.7" class="st1" width="19.4" height="33.3"/>
		<rect x="316.7" y="359.7" class="st1" width="24.1" height="33.3"/>
		<rect x="340.8" y="359.7" class="st1" width="30.2" height="33.3"/>
		<polygon class="st1" points="400.1,359.7 400.1,393.2 385.6,393.2 371,393 371,359.7 		"/>
		<polygon class="st1" points="345.3,427 345.3,462.3 316.9,462.3 316.9,427 		"/>
		<rect x="345.3" y="427.2" class="st1" width="30.4" height="35.1"/>
		<polygon class="st1" points="494.5,357.7 494.4,438.7 475.1,438.8 474.9,461.9 449.7,462.1 449.9,427.7 449.7,427.7 430.1,427.7 
			430.1,375.4 455.8,375.4 455.8,359.7 456,359.7 456,357.7 		"/>
		<path class="st1" d="M188.3,543.2V596h24.7v0h14.8l3.5-6.1l0,0l20.2-35.5l-37.8-23.7h-18.8L188.3,543.2z"/>
		<polygon class="st1" points="470.6,285 469.1,324.3 469,324.3 		"/>
	</g>
</g>
<g id="ALDI">
</g>
<g id="coles">
</g>
<g id="Icons">
	<g>
		<path class="st6" d="M143.5,254c2.4,0,4.4,2,4.4,4.4c0,2.4-2,4.4-4.4,4.4c-2.4,0-4.4-2-4.4-4.4C139,256,141,254,143.5,254"/>
		<path class="st5" d="M141.4,258.4c0-0.3-0.2-0.5-0.5-0.5c-0.3,0-0.5,0.2-0.5,0.5c0,0.3,0.2,0.5,0.5,0.5
			C141.2,258.9,141.4,258.7,141.4,258.4"/>
		<path class="st5" d="M142.3,257.8L142.3,257.8l1.2-0.4c0.1-0.1,0.2-0.2,0.2-0.3c0-0.1-0.2-0.2-0.3-0.1l-1.2,0.4
			c-0.4,0.1-0.7,0.4-0.7,0.7v0.7c0,0.4,0.3,0.7,0.7,0.7l1.2,0.4c0.1,0.1,0.3,0,0.3-0.1c0.1-0.1,0-0.2-0.2-0.3l-1.2-0.3l-0.1-0.1
			l0.1,0l2.2,0.7v-0.7h1.7c0.1,0,0.3-0.1,0.3-0.2c0-0.1-0.1-0.2-0.3-0.2h-1.6l-0.1-0.1l0.1,0h1.6c0.1,0,0.3-0.1,0.3-0.2
			c0-0.1-0.1-0.2-0.3-0.2h-1.7v-0.7L142.3,257.8L142.3,257.8z"/>
		<path class="st6" d="M143.4,263.5c2.4,0,4.4,2,4.4,4.4c0,2.4-2,4.4-4.4,4.4c-2.4,0-4.4-2-4.4-4.4C139,265.5,141,263.5,143.4,263.5
			"/>
		<path class="st5" d="M141.4,268c0-0.3-0.2-0.5-0.5-0.5c-0.3,0-0.5,0.2-0.5,0.5c0,0.3,0.2,0.5,0.5,0.5
			C141.2,268.5,141.4,268.2,141.4,268"/>
		<path class="st5" d="M141.5,267.5v1c0,0.4,0.3,0.6,0.6,0.6h1.5c0.2,0,0.3-0.1,0.3-0.2c0-0.2-0.1-0.2-0.3-0.2h-1.3l-0.1,0l0.1-0.1
			h3.9c0.1,0,0.3-0.1,0.3-0.3c0-0.2-0.1-0.3-0.3-0.3H144l-0.1-0.1l0.1-0.1h2.2c0.1,0,0.3-0.1,0.3-0.3c0-0.1-0.1-0.3-0.3-0.3h-3.9
			l-0.1-0.1l0.1-0.1h1.3c0.2,0,0.3-0.1,0.3-0.2c0-0.2-0.1-0.2-0.3-0.2h-1.5C141.8,266.8,141.5,267.1,141.5,267.5"/>
		<path class="st6" d="M426.5,321c2.4,0,4.4,2,4.4,4.4c0,2.4-2,4.4-4.4,4.4s-4.4-2-4.4-4.4C422.1,323,424.1,321,426.5,321"/>
		<path class="st5" d="M424.5,325.4c0-0.3-0.2-0.5-0.5-0.5c-0.3,0-0.5,0.2-0.5,0.5c0,0.3,0.2,0.5,0.5,0.5
			C424.2,325.9,424.5,325.7,424.5,325.4"/>
		<path class="st5" d="M425.4,324.8L425.4,324.8l1.2-0.4c0.1-0.1,0.2-0.2,0.2-0.3c0-0.1-0.2-0.2-0.3-0.1l-1.2,0.4
			c-0.4,0.1-0.7,0.4-0.7,0.7v0.7c0,0.4,0.3,0.7,0.7,0.7l1.2,0.4c0.1,0.1,0.3,0,0.3-0.1c0.1-0.1,0-0.2-0.2-0.3l-1.2-0.3l-0.1-0.1
			l0.1,0l2.2,0.7v-0.7h1.7c0.1,0,0.3-0.1,0.3-0.2c0-0.1-0.1-0.2-0.3-0.2h-1.6l-0.1-0.1l0.1,0h1.6c0.1,0,0.3-0.1,0.3-0.2
			c0-0.1-0.1-0.2-0.3-0.2h-1.7v-0.7L425.4,324.8L425.4,324.8z"/>
		<path class="st6" d="M436.7,321c2.4,0,4.4,2,4.4,4.4c0,2.4-2,4.4-4.4,4.4s-4.4-2-4.4-4.4C432.2,323,434.2,321,436.7,321"/>
		<path class="st5" d="M434.6,325.4c0-0.3-0.2-0.5-0.5-0.5c-0.3,0-0.5,0.2-0.5,0.5c0,0.3,0.2,0.5,0.5,0.5
			C434.4,325.9,434.6,325.7,434.6,325.4"/>
		<path class="st5" d="M434.7,324.9v1c0,0.4,0.3,0.6,0.6,0.6h1.5c0.2,0,0.3-0.1,0.3-0.2c0-0.2-0.1-0.2-0.3-0.2h-1.3l-0.1,0l0.1-0.1
			h3.9c0.1,0,0.3-0.1,0.3-0.3c0-0.2-0.1-0.3-0.3-0.3h-2.2l-0.1-0.1l0.1-0.1h2.2c0.1,0,0.3-0.1,0.3-0.3c0-0.1-0.1-0.3-0.3-0.3h-3.9
			l-0.1-0.1l0.1-0.1h1.3c0.2,0,0.3-0.1,0.3-0.2c0-0.2-0.1-0.2-0.3-0.2h-1.5C435,324.3,434.7,324.5,434.7,324.9"/>
		<path class="st6" d="M347.5,194.6c2.4,0,4.4,2,4.4,4.4c0,2.4-2,4.4-4.4,4.4s-4.4-2-4.4-4.4C343.1,196.5,345,194.6,347.5,194.6"/>
		<path class="st5" d="M345.9,199.4c0-0.2-0.2-0.4-0.4-0.4c-0.2,0-0.4,0.2-0.4,0.4c0,0.2,0.2,0.4,0.4,0.4
			C345.8,199.8,345.9,199.6,345.9,199.4"/>
		<path class="st5" d="M345.6,196.5v1.2c0,0.2,0.1,0.3,0.2,0.4l0.2-0.2l-0.1,0.1l-0.1,0.1h0l1,1h-0.3c-0.2,0-0.4,0.2-0.4,0.4
			c0,0.2,0.2,0.4,0.4,0.4h1.1l0.8,0.8l0,0c0.1,0.1,0.1,0.2,0.1,0.2v0.7c0,0.3,0.3,0.6,0.6,0.6c0.3,0,0.6-0.3,0.6-0.6v-1.2
			c0-0.2-0.1-0.3-0.2-0.4l-0.2,0.2l0.2-0.2l-2.6-2.5l0,0l0,0c-0.1-0.1-0.1-0.1-0.1-0.2v-0.7c0-0.2-0.1-0.3-0.2-0.5
			c-0.1-0.1-0.3-0.2-0.5-0.2C345.9,195.8,345.6,196.1,345.6,196.5 M346.5,196.2c0.1,0.1,0.1,0.2,0.1,0.3v0.7c0,0.2,0.1,0.3,0.2,0.4
			l2.5,2.5c0.1,0.1,0.1,0.1,0.1,0.2v1.2c0,0.1,0,0.2-0.1,0.3c-0.1,0.1-0.2,0.1-0.3,0.1c-0.1,0-0.2,0-0.3-0.1
			c-0.1-0.1-0.1-0.2-0.1-0.3v-0.7c0-0.2-0.1-0.3-0.2-0.4l-0.1,0.1l0.1-0.1l-2.6-2.6c-0.1-0.1-0.1-0.1-0.1-0.2v-1.2
			c0-0.1,0-0.2,0.1-0.3c0.1-0.1,0.2-0.1,0.3-0.1C346.4,196.1,346.5,196.1,346.5,196.2"/>
		<path class="st6" d="M246.5,247.1c2.4,0,4.4,2,4.4,4.4c0,2.4-2,4.4-4.4,4.4c-2.4,0-4.4-2-4.4-4.4
			C242.1,249.1,244,247.1,246.5,247.1"/>
		<path class="st5" d="M244.6,249v1.2c0,0.2,0.1,0.3,0.2,0.4l0.2-0.2l-0.1,0.1l-0.1,0.1h0l1,1h-0.3c-0.2,0-0.4,0.2-0.4,0.4
			c0,0.2,0.2,0.4,0.4,0.4h1.1l0.8,0.8l0,0c0.1,0.1,0.1,0.1,0.1,0.2v0.7c0,0.4,0.3,0.6,0.6,0.6c0.4,0,0.6-0.3,0.6-0.6v-1.2
			c0-0.2-0.1-0.3-0.2-0.4l-0.2,0.2l0.2-0.2l-2.6-2.5l0,0l0,0c-0.1-0.1-0.1-0.1-0.1-0.2V249c0-0.2-0.1-0.3-0.2-0.5
			c-0.1-0.1-0.3-0.2-0.5-0.2C244.9,248.3,244.6,248.6,244.6,249 M245.5,248.7c0.1,0.1,0.1,0.2,0.1,0.3v0.7c0,0.2,0.1,0.3,0.2,0.4
			l2.5,2.5c0.1,0.1,0.1,0.1,0.1,0.2v1.2c0,0.1,0,0.2-0.1,0.3c-0.1,0.1-0.2,0.1-0.3,0.1c-0.1,0-0.2,0-0.3-0.1
			c-0.1-0.1-0.1-0.2-0.1-0.3v-0.7c0-0.2-0.1-0.3-0.2-0.4l-0.1,0.1l0.1-0.1l-2.6-2.6c-0.1-0.1-0.1-0.1-0.1-0.2V249
			c0-0.1,0-0.2,0.1-0.3c0.1-0.1,0.2-0.1,0.3-0.1C245.4,248.6,245.5,248.6,245.5,248.7"/>
		<path class="st6" d="M208.9,181.9c2.4,0,4.4,2,4.4,4.4c0,2.4-2,4.4-4.4,4.4c-2.4,0-4.4-2-4.4-4.4
			C204.5,183.9,206.5,181.9,208.9,181.9"/>
		<path class="st5" d="M207.4,186.8c0-0.2-0.2-0.4-0.4-0.4c-0.2,0-0.4,0.2-0.4,0.4c0,0.2,0.2,0.4,0.4,0.4
			C207.2,187.2,207.4,187,207.4,186.8"/>
		<path class="st5" d="M207.1,183.8v1.2c0,0.2,0.1,0.3,0.2,0.4l0.2-0.2l-0.1,0.1l-0.1,0.1h0l1,1h-0.3c-0.2,0-0.4,0.2-0.4,0.4
			c0,0.2,0.2,0.4,0.4,0.4h1.1l0.8,0.8l0,0c0.1,0.1,0.1,0.2,0.1,0.2v0.7c0,0.4,0.3,0.6,0.6,0.6c0.3,0,0.6-0.3,0.6-0.6v-1.2
			c0-0.2-0.1-0.3-0.2-0.4l-0.2,0.2l0.2-0.2l-2.6-2.5l0,0l0,0c-0.1-0.1-0.1-0.1-0.1-0.2v-0.7c0-0.2-0.1-0.3-0.2-0.5
			c-0.1-0.1-0.3-0.2-0.5-0.2C207.4,183.2,207.1,183.5,207.1,183.8 M208,183.6c0.1,0.1,0.1,0.2,0.1,0.3v0.7c0,0.2,0.1,0.3,0.2,0.4
			l2.5,2.5v0c0.1,0.1,0.1,0.1,0.1,0.2v1.2c0,0.1,0,0.2-0.1,0.3c-0.1,0.1-0.2,0.1-0.3,0.1c-0.1,0-0.2,0-0.3-0.1
			c-0.1-0.1-0.1-0.2-0.1-0.3v-0.7c0-0.2-0.1-0.3-0.2-0.4l-0.1,0.1l0.1-0.1l-2.6-2.6h0c-0.1-0.1-0.1-0.1-0.1-0.2v-1.2
			c0-0.1,0-0.2,0.1-0.3c0.1-0.1,0.2-0.1,0.3-0.1C207.8,183.5,207.9,183.5,208,183.6"/>
		<path class="st6" d="M230,431.3c2.4,0,4.4,2,4.4,4.4c0,2.4-2,4.4-4.4,4.4c-2.4,0-4.4-2-4.4-4.4C225.5,433.3,227.5,431.3,230,431.3
			"/>
		<path class="st5" d="M228.4,436.2c0-0.2-0.2-0.4-0.4-0.4c-0.2,0-0.4,0.2-0.4,0.4c0,0.2,0.2,0.4,0.4,0.4
			C228.3,436.6,228.4,436.4,228.4,436.2"/>
		<path class="st5" d="M228.1,433.2v1.2c0,0.2,0.1,0.3,0.2,0.4l0.2-0.2l-0.1,0.1l-0.1,0.1h0l1,1H229c-0.2,0-0.4,0.2-0.4,0.4
			c0,0.2,0.2,0.4,0.4,0.4h1.1l0.8,0.8l0,0c0.1,0.1,0.1,0.2,0.1,0.2v0.7c0,0.4,0.3,0.6,0.6,0.6c0.3,0,0.6-0.3,0.6-0.6V437
			c0-0.2-0.1-0.3-0.2-0.4l-0.2,0.2l0.2-0.2l-2.6-2.5l0,0l0,0c-0.1-0.1-0.1-0.1-0.1-0.2v-0.7c0-0.2-0.1-0.3-0.2-0.5
			c-0.1-0.1-0.3-0.2-0.5-0.2C228.4,432.6,228.1,432.8,228.1,433.2 M229,432.9c0.1,0.1,0.1,0.2,0.1,0.3v0.7c0,0.2,0.1,0.3,0.2,0.4
			l2.5,2.5h0c0.1,0.1,0.1,0.1,0.1,0.2v1.2c0,0.1,0,0.2-0.1,0.3c-0.1,0.1-0.2,0.1-0.3,0.1c-0.1,0-0.2,0-0.3-0.1
			c-0.1-0.1-0.1-0.2-0.1-0.3v-0.7c0-0.2-0.1-0.3-0.2-0.4l-0.1,0.1l0.1-0.1l-2.6-2.6c-0.1-0.1-0.1-0.1-0.1-0.2v-1.2
			c0-0.1,0-0.2,0.1-0.3c0.1-0.1,0.2-0.1,0.3-0.1C228.9,432.8,229,432.9,229,432.9"/>
		<path class="st3" d="M202,493.7c2.5,0,4.5,2,4.5,4.5c0,2.5-2,4.5-4.5,4.5c-2.5,0-4.5-2-4.5-4.5C197.5,495.7,199.5,493.7,202,493.7
			"/>
		<path class="st5" d="M201.2,496.3c0-0.2,0.1-0.2,0.2-0.1l2.4,1.9c0.1,0.1,0.1,0.2,0,0.3l-2.4,1.9c-0.1,0.1-0.2,0-0.2-0.1V496.3z"
			/>
		<path class="st3" d="M202,512.7c-2.5,0-4.5-2-4.5-4.5c0-2.5,2-4.5,4.5-4.5c2.5,0,4.5,2,4.5,4.5C206.4,510.7,204.4,512.7,202,512.7
			"/>
		<path class="st5" d="M202.8,510.1c0,0.2-0.1,0.2-0.2,0.1l-2.4-1.9c-0.1-0.1-0.1-0.2,0-0.3l2.4-1.9c0.1-0.1,0.2,0,0.2,0.1V510.1z"
			/>
		<path class="st3" d="M268.9,352.4c2.5,0,4.5,2,4.5,4.5c0,2.5-2,4.5-4.5,4.5c-2.5,0-4.5-2-4.5-4.5
			C264.4,354.4,266.4,352.4,268.9,352.4"/>
		<path class="st5" d="M268.1,355c0-0.2,0.1-0.2,0.2-0.1l2.4,1.9c0.1,0.1,0.1,0.2,0,0.3l-2.4,1.9c-0.1,0.1-0.2,0-0.2-0.1V355z"/>
		<path class="st3" d="M268.9,371.4c-2.5,0-4.5-2-4.5-4.5c0-2.5,2-4.5,4.5-4.5c2.5,0,4.5,2,4.5,4.5
			C273.3,369.4,271.3,371.4,268.9,371.4"/>
		<path class="st5" d="M269.6,368.8c0,0.2-0.1,0.2-0.2,0.1l-2.4-1.9c-0.1-0.1-0.1-0.2,0-0.3l2.4-1.9c0.1-0.1,0.2,0,0.2,0.1V368.8z"
			/>
		<path d="M190.8,518.5c2.4,0,4.4,2,4.4,4.4c0,2.4-2,4.4-4.4,4.4c-2.4,0-4.4-2-4.4-4.4C186.3,520.5,188.3,518.5,190.8,518.5"/>
		<path class="st5" d="M189.1,521.6l-0.3,1.3l1.5-2L189.1,521.6z M191.3,523.5L191.3,523.5c0.2-0.3,0.4-0.3,0.5-0.2
			c0.2,0.1,0.2,0.3,0,0.5l-0.1,0.1L191.3,523.5z M192.1,523.9c0.1-0.2,0.2-0.3,0.2-0.5c0-0.2-0.1-0.3-0.2-0.4
			c-0.1-0.1-0.3-0.1-0.4-0.1c-0.1,0-0.2,0-0.2,0.1c-0.1,0-0.1,0.1-0.2,0.3l-0.2,0.3l1.5,1.1l0.2-0.2L192,524L192.1,523.9z
			 M193.8,523.5l-1.6,2.1c-0.2,0.2-0.5,0.3-0.7,0.1l-3.4-2.5c-0.2-0.2-0.3-0.5-0.1-0.7l1.6-2.1c0.2-0.2,0.5-0.3,0.7-0.1l3.4,2.5
			C193.9,522.9,193.9,523.2,193.8,523.5"/>
	</g>
</g>
<g id="Type">
	<g>
		<text transform="matrix(0 -1 1 0 376.5098 184.1629)" class="st3 st7 st8">SEED HERITAGE</text>
		<text transform="matrix(0 -1 1 0 383.6784 316.701)" class="st3 st7 st8">BENDON</text>
		<text transform="matrix(0 -1 1 0 317.1246 306.5897)" class="st3 st7 st8">MIMCO</text>
		<text transform="matrix(0 -1 1 0 294.6928 345.6155)"><tspan x="0" y="0" class="st3 st7 st8">PETER</tspan><tspan x="-4.3" y="3.6" class="st3 st7 st8">ALEXANDER</tspan></text>
		<text transform="matrix(0 -0.858 1 0 192.4782 264.3104)"><tspan x="0" y="0" class="st3 st7 st8">LINDT</tspan><tspan x="0.3" y="3.6" class="st3 st7 st8">CAFÉ</tspan></text>
		<text transform="matrix(0 -1 1 0 161.29 225.8817)" class="st3 st7 st8">PORTMANS</text>
		<text transform="matrix(0 -1 1 0 223.6317 151.7859)" class="st3 st7 st8">CALVIN KLEIN</text>
		<text transform="matrix(0 -1 1 0 279.4365 219.5213)" class="st3 st7 st8">POLITIX</text>
		<text transform="matrix(0 -1 1 0 249.7215 214.7811)" class="st3 st7 st8">UGG LIFESTYLE</text>
		<text transform="matrix(0 -1 1 0 245.8376 278.4197)"><tspan x="0" y="0" class="st3 st7 st8">SUNGLASS</tspan><tspan x="4.5" y="3.6" class="st3 st7 st8">HUT </tspan></text>
		<text transform="matrix(0 -1 1 0 245.8377 307.9822)"><tspan x="0" y="0" class="st3 st7 st8">ORIGINALE</tspan><tspan x="-0.3" y="3.6" class="st3 st7 st8">JEWELLERY</tspan></text>
		<text transform="matrix(0 -1 1 0 246.1584 388.0555)"><tspan x="0" y="0" class="st3 st7 st8">PIER 8</tspan><tspan x="0.6" y="3.6" class="st3 st7 st8">CAFE</tspan></text>
		<text transform="matrix(0 -1 1 0 243.7136 384.0042)" class="st3 st7 st8"> </text>
		<text transform="matrix(0 -1 1 0 360.043 458.7552)" class="st3 st7 st8">FLORSHEIM SHOES</text>
		<text transform="matrix(0 -1 1 0 355.6608 380.1614)" class="st3 st7 st8">CUE</text>
		<text transform="matrix(0 -1 1 0 385.238 382.7425)" class="st3 st7 st8">REVIEW</text>
		<text transform="matrix(-1 0 0 -1 340.6307 409.7176)" class="st3 st7 st8">BOOST JUICE</text>
		<text transform="matrix(0 -1 1 0 353.8337 108.4774)"><tspan x="0" y="0" class="st3 st7 st8">LORNA</tspan><tspan x="1.2" y="3.6" class="st3 st7 st8">JANE</tspan></text>
		<text transform="matrix(0 -1 1 0 404.4628 130.6375)"><tspan x="0" y="0" class="st3 st7 st8">THUK WAN</tspan><tspan x="-12.1" y="3.6" class="st3 st7 st8">THAI MASSAGE &amp; REMEDIAL</tspan></text>
		<text transform="matrix(0 -1 1 0 376.5098 251.5125)" class="st3 st7 st8">FRENCH CONNECTION</text>
		<text transform="matrix(0 -1 1 0 354.7568 307.3914)" class="st3 st7 st8">MERRELL</text>
		<text transform="matrix(0 -1 1 0 443.8679 292.1424)" class="st3 st7 st8">WITCHERY</text>
		<text transform="matrix(0 -1 1 0 439.6999 143.4813)" class="st3 st7 st8">DECJUBA</text>
		<text transform="matrix(0 -1 1 0 214.1418 584.5438)" class="st3 st7 st9">SHOE WAREHOUSE</text>
		<text transform="matrix(0 -1 1 0 228.23 504.5267)" class="st3 st7 st8">VACANT</text>
		<text transform="matrix(0 -1 1 0 284.9819 456.2659)"><tspan x="0" y="0" class="st3 st7 st8">THE COSMETIC</tspan><tspan x="3.2" y="3.6" class="st3 st7 st8">COMPANY</tspan></text>
		<text transform="matrix(0 -1 1 0 329.8868 453.6707)" class="st3 st7 st8">SUNSEEKER</text>
		<text transform="matrix(0 -1 1 0 287.4083 388.3309)" class="st3 st7 st8">ANNA THOMAS</text>
		<text transform="matrix(0 -1 1 0 279.4365 239.3026)" class="st3 st7 st8">BAKU</text>
		<text transform="matrix(0 -1 1 0 301.836 111.41)" class="st3 st7 st8">GLASSONS</text>
		<text transform="matrix(0 -1 1 0 415.4636 451.9031)"><tspan x="0" y="0" class="st3 st7 st8">FOREVER</tspan><tspan x="3.1" y="3.6" class="st3 st7 st8">NEW</tspan></text>
		<text transform="matrix(0 -1 1 0 462.5085 424.8577)"><tspan x="0" y="0" class="st3 st7 st8">COUNTRY</tspan><tspan x="3" y="3.6" class="st3 st7 st8">ROAD</tspan></text>
		<text transform="matrix(0 -1 1 0 279.4365 180.5027)" class="st3 st7 st8">CONNOR</text>
		<text transform="matrix(0 -1 1 0 271.5917 281.4373)" class="st3 st7 st8">OSH KOSH</text>
		<text transform="matrix(0 -1 1 0 246.1214 240.241)"><tspan x="0" y="0" class="st3 st7 st8">LIBERTY</tspan><tspan x="0.8" y="3.6" class="st3 st7 st8">SHOES</tspan></text>
		<text transform="matrix(0 -1 1 0 141.2486 154.7527)" class="st3 st7 st8">NIKE</text>
		<text transform="matrix(0 -1 1 0 188.8781 285.3016)"><tspan x="0" y="0" class="st3 st7 st8">GINGER</tspan><tspan x="2.3" y="3.6" class="st3 st7 st8">AND</tspan><tspan x="0.4" y="7.2" class="st3 st7 st8">SMART</tspan></text>
		<g>
			<text transform="matrix(0 -0.9455 1 0 132.5493 604.0799)"><tspan x="0" y="0" class="st3 st7 st10">CAR PARK</tspan><tspan x="6.8" y="9.6" class="st3 st7 st10">(BLUE)</tspan></text>
		</g>
		<text transform="matrix(0 -0.9455 1 0 176.5815 568.9344)" class="st3 st7 st10">ENTRY</text>
		<text transform="matrix(0 -1 1 0 203.9371 245.5731)"><tspan x="0" y="0" class="st3 st7 st10">TO STREET</tspan><tspan x="9.5" y="9.6" class="st3 st7 st10">LEVEL</tspan></text>
		<text transform="matrix(0 -1 1 0 129.8696 517.4378)" class="st3 st7 st8">CHEMIST WAREHOUSE</text>
		<text transform="matrix(0 -1 1 0 329.2121 389.8802)" class="st3 st7 st8">ELKA COLLECTIVE</text>
		<text transform="matrix(0 -1 1 0 196.0784 352.7562)" class="st3 st7 st8">JURLIQUE</text>
		<text transform="matrix(0 -1 1 0 196.0784 310.6375)" class="st3 st7 st8">SASS &amp; BIDE</text>
		<text transform="matrix(0 -1 1 0 196.0787 451.3831)" class="st3 st7 st8">NINE WEST</text>
		<text transform="matrix(0 -1 1 0 196.0782 386.7859)" class="st3 st7 st8">LʼOCCITANE</text>
		<text transform="matrix(0 -1 1 0 196.0786 366.7513)" class="st3 st7 st8">SHEIKE</text>
		<text transform="matrix(0 -1 1 0 192.4781 330.2869)"><tspan x="0" y="0" class="st3 st7 st8">SIMONE</tspan><tspan x="0.8" y="3.6" class="st3 st7 st8">PERELE</tspan></text>
		<text transform="matrix(0 -1 1 0 305.6667 383.2098)" class="st3 st7 st8">WILLOW</text>
		<text transform="matrix(0 -1 1 0 196.0786 415.6463)" class="st3 st7 st8">ASSEMBLY LABEL</text>
		<text transform="matrix(0 -1 1 0 380.7503 181.9715)" class="st3 st11 st8">SHOP 190/191</text>
		<text transform="matrix(0 -1 1 0 387.7741 316.8172)" class="st3 st11 st8">SHOP 172</text>
		<text transform="matrix(0 -1 1 0 321.1002 310.2361)" class="st3 st11 st8">SHOP 175/176</text>
		<text transform="matrix(0 -1 1 0 303.187 347.5257)" class="st3 st11 st8">SHOP 177</text>
		<text transform="matrix(0 -1 1 0 200.4398 265.908)" class="st3 st11 st8">SHOP 11</text>
		<text transform="matrix(0 -1 1 0 165.3832 223.1375)" class="st3 st11 st8">SHOP 13</text>
		<text transform="matrix(0 -1 1 0 227.097 147.5867)" class="st3 st11 st8">SHOP 16</text>
		<text transform="matrix(0 -1 1 0 283.382 220.1111)" class="st3 st11 st8">SHOP 181</text>
		<text transform="matrix(0 -1 1 0 253.6268 209.8221)" class="st3 st11 st8">SHOP 18</text>
		<text transform="matrix(0 -1 1 0 253.3428 276.6834)" class="st3 st11 st8">SHOP 20</text>
		<text transform="matrix(0 -1 1 0 253.3428 305.7703)" class="st3 st11 st8">SHOP 21</text>
		<text transform="matrix(0 -1 1 0 253.5925 389.6439)" class="st3 st11 st8">SHOP 22</text>
		<text transform="matrix(0 -1 1 0 334.723 452.264)" class="st3 st11 st8">SHOP 202</text>
		<text transform="matrix(0 -1 1 0 359.7565 384.1697)" class="st3 st11 st8">SHOP 208</text>
		<text transform="matrix(0 -1 1 0 389.3337 383.9925)" class="st3 st11 st8">SHOP 207</text>
		<text transform="matrix(-1 0 0 -1 386.3167 407.6688)" class="st3 st11 st8">KIOSK K4</text>
		<text transform="matrix(-1 0 0 -1 339.9964 406.8406)" class="st3 st11 st8">KIOSK K001t2</text>
		<text transform="matrix(0 -1 1 0 361.8931 112.7567)" class="st3 st11 st8">SHOP 186/187</text>
		<text transform="matrix(0 -1 1 0 411.565 129.1883)" class="st3 st11 st8">SHOP 188</text>
		<text transform="matrix(0 -1 1 0 380.7503 244.4998)" class="st3 st11 st8">SHOP 192/193</text>
		<text transform="matrix(0 -1 1 0 359.5659 310.1932)" class="st3 st11 st8">SHOP 173/174</text>
		<text transform="matrix(0 -1 1 0 447.9704 290.7889)" class="st3 st11 st8">SHOP 170</text>
		<text transform="matrix(0 -1 1 0 443.7936 143.0916)" class="st3 st11 st8">SHOP 189</text>
		<text transform="matrix(0 -1 1 0 218.4733 576.2205)" class="st3 st11 st8">SHOP 25</text>
		<text transform="matrix(0 -1 1 0 231.7081 506.5613)" class="st3 st11 st8">SHOP 23/24</text>
		<text transform="matrix(0 -1 1 0 292.8111 452.8362)" class="st3 st11 st8">SHOP 201A</text>
		<text transform="matrix(0 -1 1 0 292.1806 383.1732)" class="st3 st11 st8">SHOP 211</text>
		<text transform="matrix(0 -1 1 0 283.382 241.8084)" class="st3 st11 st8">SHOP 180</text>
		<text transform="matrix(0 -1 1 0 422.4286 452.3362)" class="st3 st11 st8">SHOP 205</text>
		<text transform="matrix(0 -1 1 0 475.1169 425.2449)" class="st3 st11 st8">SHOP 206</text>
		<text transform="matrix(0 -1 1 0 283.5217 183.1541)" class="st3 st11 st8">SHOP 182/183</text>
		<text transform="matrix(0 -1 1 0 275.9883 282.8358)" class="st3 st11 st8">SHOP 178/179</text>
		<text transform="matrix(0 -1 1 0 253.6268 240.2313)" class="st3 st11 st8">SHOP 19</text>
		<text transform="matrix(0 -1 1 0 145.6866 157.0906)" class="st3 st11 st8">SHOP 15</text>
		<text transform="matrix(0 -1 1 0 200.44 285.366)" class="st3 st11 st8">SHOP 10</text>
		<path class="st3" d="M251.2,251.9c0-0.2-0.2-0.4-0.4-0.4c-0.2,0-0.4,0.2-0.4,0.4c0,0.2,0.2,0.4,0.4,0.4
			C251,252.3,251.2,252.2,251.2,251.9"/>
		<text transform="matrix(0 -1 1 0 133.4905 511.7269)" class="st3 st11 st8">SHOP 26/27/28</text>
		<text transform="matrix(0 -1 1 0 364.9257 452.2967)" class="st3 st11 st8">SHOP 203</text>
		<text transform="matrix(0 -1 1 0 309.6574 383.6649)" class="st3 st11 st8">SHOP 210</text>
		<text transform="matrix(0 -1 1 0 312.0466 377.5355)" class="st3 st11 st8"> </text>
		<text transform="matrix(0 -1 1 0 333.1877 384.1453)" class="st3 st11 st8">SHOP 209</text>
		<text transform="matrix(0 -1 1 0 305.6254 112.9178)" class="st3 st11 st8">SHOP 184/185</text>
		<text transform="matrix(0 -1 1 0 200.4398 366.8289)" class="st3 st11 st8">SHOP 6</text>
		<text transform="matrix(0 -1 1 0 200.4401 350.8201)" class="st3 st11 st8">SHOP 7</text>
		<text transform="matrix(0 -1 1 0 200.4399 306.8953)" class="st3 st11 st8">SHOP 9</text>
		<text transform="matrix(0 -1 1 0 200.5798 449.6297)" class="st3 st11 st8">SHOP 1/2</text>
		<text transform="matrix(0 -1 1 0 200.5795 410.0906)" class="st3 st11 st8">SHOP 3/4</text>
		<text transform="matrix(0 -1 1 0 200.4401 383.5364)" class="st3 st11 st8">SHOP 5 </text>
		<text transform="matrix(0 -1 1 0 200.4401 329.7635)" class="st3 st11 st8">SHOP 8</text>
	</g>
	<g>
		<text transform="matrix(0 -1 1 0 543.5704 454.1917)" class="st3 st7 st12">BIRKENHEAD MARINA</text>
	</g>
	<g>
		<text transform="matrix(0 -1 1 0 29.892 437.1214)" class="st3 st7 st12">ROSEBY STREET</text>
	</g>
</g>
</svg>
