<?xml version="1.0" encoding="utf-8"?>
<!-- Generator: Adobe Illustrator 24.3.0, SVG Export Plug-In . SVG Version: 6.00 Build 0)  -->
<svg version="1.1" id="Layer_2_1_" xmlns="http://www.w3.org/2000/svg" xmlns:xlink="http://www.w3.org/1999/xlink" x="0px" y="0px"
	 viewBox="0 0 426 633.3" style="enable-background:new 0 0 426 633.3;" xml:space="preserve">
<style type="text/css">
	.st0{fill:none;stroke:#333333;stroke-width:2;stroke-miterlimit:10;}
	.st1{fill:none;stroke:#231F20;stroke-width:0.25;stroke-miterlimit:10;}
	.st2{fill:#231F20;}
	.st3{fill-rule:evenodd;clip-rule:evenodd;fill:#231F20;}
	.st4{fill:#FFFFFF;}
	.st5{font-family:'Poppins-Regular';}
	.st6{font-size:2.8312px;}
	.st7{font-family:'Poppins-SemiBold';}
	.st8{font-size:9.4373px;}
	.st9{font-size:3.7749px;}
	.st10{font-size:4.7186px;}
	.st11{font-size:7.5498px;}
	.st12{font-size:11.3247px;}
	.st13{fill:#C4C6C7;}
	.st14{fill:#5A5A5C;}
	.st15{fill:#FEFEFE;}
	.st16{fill:#FDB0A2;}
</style>
<g id="Lines">
	<g>
		<polyline class="st0" points="320.5,192.9 320.4,193.8 320.2,193.8 320.1,196 320.3,196.1 320.2,198.3 320,198.3 319.9,200.6 
			320,200.6 319.9,202.9 319.8,202.9 319.6,205.1 319.8,205.1 319.7,207.4 319.5,207.4 319.4,209.7 319.5,209.7 319.4,211.9 
			319.3,211.9 319.1,214.2 319.3,214.2 319.2,216.5 319,216.5 318.9,218.7 319.1,218.8 318.9,221 318.8,221 318.6,223.3 
			318.8,223.3 318.7,225.6 318.5,225.6 318.4,227.8 318.6,227.8 318.4,230.1 318.3,230.1 318.2,232.4 318.3,232.4 318.2,234.7 
			318,234.6 317.9,236.9 318.1,236.9 318,239.2 317.8,239.2 317.7,241.5 317.8,241.5 317.7,243.7 317.5,243.7 317.4,246 317.6,246 
			317.5,248.3 317.3,248.3 317.2,250.6 317.3,250.6 317.2,252.8 317.1,252.8 316.9,255.1 317.1,255.1 317,257.4 316.8,257.4 
			316.7,259.6 316.9,259.6 316.7,261.9 316.6,261.9 316.5,264.2 316.6,264.2 316.5,266.5 316.3,266.5 316.2,268.7 316.4,268.7 
			316.2,271 316.1,271 316,273.3 316.1,273.3 316,275.5 315.8,275.5 315.7,277.8 315.9,277.8 315.8,280.1 315.6,280.1 315.5,282.3 
			315.6,282.4 315.5,284.6 315.3,284.6 315.2,286.9 315.4,286.9 315.3,289.2 315.1,289.2 315,291.4 315.1,291.4 315,293.7 
			314.9,293.7 314.7,296 314.9,296 314.8,298.3 314.6,298.2 314.5,300.5 314.6,300.5 314.5,302.8 314.4,302.8 314.2,305.1 
			314.4,305.1 314.3,307.3 314.1,307.3 314,309.6 314.2,309.6 314,311.9 313.9,311.9 313.8,314.1 313.9,314.1 313.8,316.4 
			313.6,316.4 313.5,318.7 313.7,318.7 313.5,321 313.4,321 313.3,323.2 313.4,323.2 313.3,325.5 313.1,325.5 313,327.8 
			313.2,327.8 313.1,330.1 312.9,330 312.8,332.3 312.9,332.3 		"/>
		<polyline class="st0" points="313.5,85.8 314.8,85.8 314.8,86 315.8,86 315.8,87 316,87 316,89.3 315.8,89.3 315.8,90.6 
			317.1,90.6 317.1,90.4 319.7,90.4 319.7,90.6 322.3,90.6 322.3,90.4 324.8,90.4 324.8,90.6 325.8,90.6 325.8,91.6 325.9,91.6 
			325.8,93.8 325.6,93.8 325.5,96.1 325.7,96.1 325.5,98.4 325.4,98.4 325.3,100.6 325.4,100.7 325.3,102.9 325.1,102.9 325,105.2 
			325.2,105.2 325.1,107.5 324.9,107.5 324.8,109.7 324.9,109.7 324.8,112 324.7,112 324.5,114.3 324.7,114.3 324.6,116.6 
			324.4,116.5 		"/>
		<polyline class="st0" points="219.4,289.1 219.4,286.9 219.5,286.9 219.5,284.6 219.4,284.6 219.4,282.3 219.5,282.3 219.5,280.1 
			219.4,280.1 219.4,277.8 219.5,277.8 219.5,275.6 219.4,275.6 219.4,273.3 219.5,273.3 219.5,271.1 219.4,271.1 219.4,268.8 
			219.5,268.8 219.5,266.6 219.4,266.6 219.4,264.3 219.5,264.3 219.5,262.1 219.4,262.1 219.4,259.8 219.5,259.8 219.5,257.6 
			219.4,257.6 219.4,255.3 219.5,255.3 219.5,253 219.4,253 219.4,250.8 219.5,250.8 219.5,248.5 219.4,248.5 219.4,246.3 
			219.5,246.3 219.5,244 219.4,244 219.4,241.8 219.5,241.8 219.5,239.5 219.4,239.5 219.4,237.3 219.5,237.3 219.5,235 219.4,235 
			219.4,232.8 219.5,232.8 219.5,230.5 219.4,230.5 219.4,228.2 219.5,228.2 219.5,226 219.4,226 219.4,223.7 219.5,223.7 
			219.5,221.5 219.4,221.5 219.4,219.2 219.5,219.2 219.5,217 219.4,217 219.4,214.7 219.5,214.7 219.5,212.5 219.4,212.5 
			219.4,211.4 		"/>
		<polyline class="st0" points="219.4,333.2 219.4,331.9 219.5,331.9 219.5,329.7 219.4,329.7 219.4,327.4 219.5,327.4 219.5,325.2 
			219.4,325.2 219.4,322.9 219.5,322.9 219.5,320.7 219.4,320.7 219.4,318.4 219.5,318.4 219.5,316.2 219.4,316.2 219.4,313.9 
			219.5,313.9 		"/>
		<polygon class="st0" points="97,369.7 85.1,369.7 85.1,432.7 94.3,442.1 94.3,445.7 94.3,464.5 120.4,464.5 120.4,469.6 
			143,469.6 143,446.2 139.6,446.2 139.6,432.7 139.6,334.1 97,334.1 		"/>
		<polygon class="st0" points="132.9,478.2 117.3,478.2 112.3,478.2 100.8,478.2 93.1,485.6 93.1,496.4 103.2,496.4 103.2,512.5 
			132.9,512.5 		"/>
		<polygon class="st0" points="132.9,512.5 103.2,512.5 103.2,496.4 74.1,496.4 74.1,542.7 116,542.7 118.8,544.2 132.9,544.2 		"/>
		<polygon class="st0" points="176.7,570 176.7,523.1 173.8,523.1 173.8,443.1 177.3,443.1 177.3,334.1 333.2,334.1 333.2,424.6 
			333.2,446.9 340.9,447 321.7,570 267.6,570 		"/>
		<polygon class="st0" points="268.3,100.4 288.1,100.4 289.5,77.1 284,77.1 283.9,59.7 268.3,59.7 		"/>
		<polygon class="st0" points="309.6,191.1 340.4,191.3 342.4,142.1 332,142.2 332.7,118.8 311.4,118.8 		"/>
		<polygon class="st0" points="311.5,100.4 312.5,79.1 289.5,77.1 288.1,100.4 		"/>
		<polygon class="st0" points="268.3,100.4 268.3,59.7 246.1,59.7 246.1,64.8 227.5,64.8 227.5,83.8 256.8,83.8 256.8,97.5 
			246.5,97.5 246.5,100.4 		"/>
		<rect x="150.2" y="401.1" class="st0" width="14.5" height="25"/>
		<rect x="159.9" y="203.6" class="st0" width="11.9" height="24.7"/>
		<polygon class="st0" points="226.7,108.4 236.5,108.4 248.6,120.9 248.6,143.3 226.7,143.3 		"/>
		<rect x="226.7" y="143.3" class="st0" width="21.9" height="43.9"/>
		<rect x="226.7" y="187.1" class="st0" width="21.9" height="22.3"/>
		<rect x="196.8" y="187.1" class="st0" width="29.9" height="22.3"/>
		<polygon class="st0" points="268.7,248.1 268.7,269.5 279.4,269.5 279.5,275.9 294.2,275.9 294.2,295.3 301,295.3 302.2,248.1 		
			"/>
		<rect x="243.7" y="248.1" class="st0" width="25" height="21.4"/>
		<polygon class="st0" points="311.5,100.4 312.5,79.1 289.5,77.1 288.1,100.4 		"/>
		<g>
			<polygon class="st0" points="216.8,290.7 216.8,285.2 180.3,285.2 180.3,311.7 278.4,311.7 278.4,295.3 294.2,295.3 294.2,275.9 
				279.5,275.9 279.4,269.5 243.7,269.5 243.7,290.7 			"/>
			<polygon class="st0" points="180.3,262.5 180.3,284.6 216.8,284.6 216.8,248.1 195.1,248.1 			"/>
		</g>
		<polygon class="st0" points="119,100.4 139.6,100.4 139.6,121.7 76.6,121.7 76.6,33.9 119,33.9 		"/>
		<rect x="76.6" y="121.7" class="st0" width="63" height="66.6"/>
		<rect x="76.6" y="188.4" class="st0" width="63" height="18.3"/>
		<rect x="76.6" y="247.1" class="st0" width="62.8" height="22.9"/>
		<polyline class="st0" points="76.6,270 79.4,270 139.6,270 139.6,309.4 79.4,309.4 79.4,291.1 79.4,270 		"/>
		<rect x="105.6" y="309.4" class="st0" width="34" height="24.7"/>
		<polygon class="st0" points="132.9,544.2 118.8,544.2 116,542.7 86.6,542.7 86.6,570 132.9,570 		"/>
		<polygon class="st0" points="153.9,614.5 200.7,614.5 200.7,589.6 189.2,589.6 189.2,577.3 164.1,577.3 156.9,588.5 153.9,588.5 
					"/>
		<rect x="155.5" y="523.1" class="st0" width="21.1" height="46.9"/>
		<polygon class="st0" points="226.7,187.1 202.3,187.1 196.8,187.1 196.8,156.7 226.7,156.7 		"/>
		<polygon class="st0" points="196.8,156.7 226.7,156.7 226.7,108.4 221.9,108.4 211.2,119.2 196.8,119.2 		"/>
		<polygon class="st0" points="119,100.4 181.2,100.4 181.2,60.8 191.9,60.8 191.9,33.9 119,33.9 		"/>
		<rect x="152.9" y="138.4" class="st0" width="13" height="28.9"/>
		<rect x="76.6" y="224.2" class="st0" width="62.8" height="22.4"/>
	</g>
</g>
<g id="ALDI">
	<path class="st1" d="M251.8,21.9H250h-19.8c-0.5,0-0.9,0.4-0.9,0.9V49c0,0.4,0.2,0.7,0.6,0.9c0.1,0,0.2,0.1,0.4,0.1h21.5
		c0.5,0,0.9-0.4,0.9-0.9V22.9C252.7,22.3,252.3,21.9,251.8,21.9L251.8,21.9z"/>
	<g>
		<path class="st2" d="M249.3,24.4h-16.6c-0.1,0-0.2,0.1-0.2,0.2v22.7c0,0.1,0.1,0.2,0.2,0.2h16.6c0.1,0,0.2-0.1,0.2-0.2V24.6
			C249.5,24.5,249.4,24.4,249.3,24.4L249.3,24.4z M248.9,47.1l-0.1,0.1h-15.7l-0.1-0.1V24.8l0.1-0.1h15.7l0.1,0.1L248.9,47.1
			L248.9,47.1z"/>
		<polygon class="st2" points="239.4,26.1 236,38.1 236.8,38.1 240.1,26.1 		"/>
		<polygon class="st2" points="240.6,26.1 237.3,38.1 238,38.1 241.4,26.1 		"/>
		<path class="st2" d="M234.3,38.8h13.3V25.4h-13.3V38.8z M234.9,25.8h12.2v12.6h-12.2V25.8z"/>
		<polygon class="st2" points="241.2,33 246.4,33 246.4,32.3 241.4,32.3 		"/>
		<polygon class="st2" points="240.9,34.2 246.4,34.2 246.4,33.5 241.1,33.5 		"/>
		<polygon class="st2" points="240.6,35.4 246.4,35.4 246.4,34.7 240.8,34.7 		"/>
		<polygon class="st2" points="241.9,26.1 238.6,38.1 239.3,38.1 242.7,26.1 		"/>
		<path class="st2" d="M235.6,40.5l-1.2,4.2h1.5l0.1-0.5h1l0.1,0.5h1.6l-1.2-4.2H235.6L235.6,40.5z M236.1,43.4l0.3-1.7l0.3,1.7
			H236.1z"/>
		<path class="st2" d="M243.4,40.5h-1.4v4.2h1.4c1.5,0,2.2-0.1,2.2-2.1C245.6,40.6,244.9,40.5,243.4,40.5z M243.9,43.7
			c-0.1,0-0.2,0.1-0.3,0.1h-0.1l0,0v-2.4h0.1c0.2,0,0.3,0.1,0.4,0.2c0.1,0.2,0.1,0.5,0.1,0.9C244.1,43.2,244.1,43.5,243.9,43.7
			C243.9,43.7,243.9,43.7,243.9,43.7L243.9,43.7z"/>
		<polygon class="st2" points="240.4,43.6 240.4,40.5 239,40.5 239,44.7 241.6,44.7 241.5,43.6 		"/>
		<rect x="246.1" y="40.5" class="st2" width="1.5" height="4.2"/>
	</g>
</g>
<g id="coles">
	<g>
		<path class="st3" d="M243.7,431.8c-0.7,2.9-3.3,5-6.4,5c-3.7,0-6.6-3-6.6-6.6c0-3.7,3-6.6,6.6-6.6c3.1,0,5.7,2.2,6.4,5H241
			c-0.6-1.4-2-2.4-3.7-2.4c-2.2,0-4,1.8-4,4c0,2.2,1.8,4,4,4c1.7,0,3.1-1,3.7-2.4L243.7,431.8L243.7,431.8z"/>
		<path class="st3" d="M250.7,423.6c-3.7,0-6.6,3-6.6,6.6c0,3.7,3,6.6,6.6,6.6c3.7,0,6.6-3,6.6-6.6
			C257.4,426.5,254.4,423.6,250.7,423.6 M250.7,434.2c-2.2,0-4-1.8-4-4s1.8-4,4-4c2.2,0,4,1.8,4,4S252.9,434.2,250.7,434.2"/>
		<rect x="258.2" y="419.9" class="st2" width="2.9" height="16.9"/>
		<path class="st3" d="M268.8,434.3c-2,0-3.7-1.5-3.7-3.3v-0.2h9.5c0-5.2-2.7-7.2-6-7.2c-2.6,0-6.3,1.7-6.3,6.6
			c0,4.1,2.9,6.7,6.3,6.7c2.9,0,5.3-1.7,5.9-4.6h-2.7C271.3,433.5,270.2,434.3,268.8,434.3 M268.5,425.9c1.7,0,3.1,1.2,3.3,2.6
			l-6.5,0l-0.1,0C265.4,427.1,266.8,425.9,268.5,425.9"/>
		<path class="st3" d="M282.7,427.7h2.5c0,0,0.1-2.3-1.8-3.4c0,0-0.9-0.8-3.4-0.8c0,0-2.5,0-3.6,1.1c0,0-1.2,0.9-1.2,2.6
			c0,0-0.2,1.7,1.4,2.7c0,0,1.3,0.6,2.6,1c0,0,2.1,0.6,2.4,0.8c0,0,1.8,0.8,0.7,1.9c0,0-0.5,0.7-2.1,0.7c0,0-2.9,0.1-2.9-2.1H275
			c0,0-0.2,2.3,1.7,3.6c0,0,1.3,0.9,3.7,0.8c0,0,2.3,0,3.6-0.9c0,0,1.6-1.2,1.6-3.1c0,0,0.2-2-2.3-3.1c0,0-2.6-0.9-3.2-1
			c0,0-2.5-0.6-2-1.8c0,0,0.1-0.9,2.1-0.9c0,0,1.4,0,2,0.8C282.2,426.6,282.6,427.1,282.7,427.7"/>
	</g>
</g>
<g id="Icons">
	<path class="st2" d="M86.6,463.8c2.7,0,4.8,2.2,4.8,4.8c0,2.7-2.2,4.8-4.8,4.8s-4.8-2.2-4.8-4.8C81.7,466,83.9,463.8,86.6,463.8"/>
	<path class="st4" d="M85.7,466.6c0-0.2,0.1-0.2,0.2-0.2l2.6,2.1c0.1,0.1,0.1,0.2,0,0.3l-2.6,2.1c-0.1,0.1-0.2,0-0.2-0.2V466.6
		L85.7,466.6z"/>
	<path class="st2" d="M86.6,484.3c-2.7,0-4.8-2.2-4.8-4.8c0-2.7,2.2-4.8,4.8-4.8s4.8,2.2,4.8,4.8C91.4,482.2,89.2,484.3,86.6,484.3"
		/>
	<path class="st4" d="M87.4,481.6c0,0.2-0.1,0.2-0.2,0.2l-2.6-2.1c-0.1-0.1-0.1-0.2,0-0.3l2.6-2.1c0.1-0.1,0.2,0,0.2,0.2V481.6
		L87.4,481.6z"/>
	<path class="st2" d="M109.7,589.3c2.7,0,4.8,2.2,4.8,4.8c0,2.7-2.2,4.8-4.8,4.8s-4.8-2.2-4.8-4.8
		C104.9,591.5,107.1,589.3,109.7,589.3"/>
	<path class="st4" d="M108.9,592.1c0-0.2,0.1-0.2,0.2-0.2l2.6,2.1c0.1,0.1,0.1,0.2,0,0.3l-2.6,2.1c-0.1,0.1-0.2,0-0.2-0.2V592.1
		L108.9,592.1z"/>
	<path class="st2" d="M109.7,609.8c-2.7,0-4.8-2.2-4.8-4.8s2.2-4.8,4.8-4.8s4.8,2.2,4.8,4.8S112.4,609.8,109.7,609.8"/>
	<path class="st4" d="M110.6,607c0,0.2-0.1,0.2-0.2,0.2l-2.6-2.1c-0.1-0.1-0.1-0.2,0-0.3l2.6-2.1c0.1-0.1,0.2,0,0.2,0.2V607
		L110.6,607z"/>
	<path class="st2" d="M324.2,86.7c2.7,0,4.8,2.2,4.8,4.8s-2.2,4.8-4.8,4.8s-4.8-2.2-4.8-4.8S321.5,86.7,324.2,86.7"/>
	<path class="st4" d="M323.3,89.5c0-0.2,0.1-0.2,0.2-0.2l2.6,2.1c0.1,0.1,0.1,0.2,0,0.3l-2.6,2.1c-0.1,0.1-0.2,0-0.2-0.2
		C323.3,93.7,323.3,89.5,323.3,89.5z"/>
	<path class="st2" d="M324.2,107.2c-2.7,0-4.8-2.2-4.8-4.8s2.2-4.8,4.8-4.8s4.8,2.2,4.8,4.8S326.8,107.2,324.2,107.2"/>
	<path class="st4" d="M325,104.5c0,0.2-0.1,0.2-0.2,0.2l-2.6-2.1c-0.1-0.1-0.1-0.2,0-0.3l2.6-2.1c0.1-0.1,0.2,0,0.2,0.2
		C325,100.3,325,104.5,325,104.5z"/>
	<path d="M141.2,595.7c2.6,0,4.8,2.1,4.8,4.8c0,2.6-2.1,4.8-4.8,4.8c-2.6,0-4.8-2.1-4.8-4.8C136.5,597.8,138.6,595.7,141.2,595.7"/>
	<path class="st4" d="M139.5,599l-0.4,1.4l1.6-2.1L139.5,599z M141.8,601.1L141.8,601.1c0.2-0.3,0.4-0.4,0.6-0.2
		c0.2,0.1,0.2,0.3,0,0.5l-0.1,0.1L141.8,601.1L141.8,601.1z M142.7,601.6c0.1-0.2,0.2-0.3,0.2-0.5c0-0.2-0.1-0.3-0.2-0.4
		c-0.1-0.1-0.3-0.1-0.4-0.1c-0.1,0-0.2,0-0.2,0.1c-0.1,0.1-0.2,0.2-0.3,0.3l-0.2,0.3l1.6,1.2l0.2-0.2l-0.7-0.5L142.7,601.6
		L142.7,601.6z M144.5,601.1l-1.7,2.2c-0.2,0.2-0.5,0.3-0.7,0.1l-3.6-2.7c-0.2-0.2-0.3-0.5-0.1-0.7l1.7-2.2c0.2-0.2,0.5-0.3,0.7-0.1
		l3.6,2.7C144.7,600.5,144.7,600.8,144.5,601.1"/>
	<path d="M231.1,248.6c2.6,0,4.8,2.1,4.8,4.8c0,2.6-2.1,4.8-4.8,4.8c-2.6,0-4.8-2.1-4.8-4.8C226.4,250.7,228.5,248.6,231.1,248.6"/>
	<path d="M176.3,163.5c2.6,0,4.8,2.1,4.8,4.8c0,2.6-2.1,4.8-4.8,4.8c-2.6,0-4.8-2.1-4.8-4.8C171.5,165.7,173.6,163.5,176.3,163.5"/>
	<path d="M231.1,258.9c2.6,0,4.8,2.1,4.8,4.8s-2.1,4.8-4.8,4.8s-4.8-2.1-4.8-4.8S228.5,258.9,231.1,258.9"/>
	<path d="M231.1,269.2c2.6,0,4.8,2.1,4.8,4.8s-2.1,4.8-4.8,4.8c-2.6,0-4.8-2.1-4.8-4.8S228.5,269.2,231.1,269.2"/>
	<path class="st4" d="M228.9,253.4c0-0.3-0.2-0.5-0.6-0.5s-0.6,0.2-0.6,0.5c0,0.3,0.2,0.6,0.6,0.6S228.9,253.7,228.9,253.4"/>
	<path class="st4" d="M229.9,252.7L229.9,252.7l1.3-0.4c0.2-0.1,0.2-0.2,0.2-0.3c0-0.1-0.2-0.2-0.3-0.1l-1.3,0.4
		c-0.4,0.1-0.7,0.4-0.7,0.8v0.8c0,0.4,0.3,0.7,0.7,0.8l1.3,0.4c0.2,0.1,0.3,0,0.3-0.2c0.1-0.2,0-0.3-0.2-0.3l-1.3-0.4l-0.1-0.1
		l0.1,0l2.4,0.7V254h1.8c0.2,0,0.3-0.1,0.3-0.3c0-0.2-0.1-0.3-0.3-0.3h-1.7l-0.1-0.1l0.1,0h1.7c0.2,0,0.3-0.1,0.3-0.3
		s-0.1-0.3-0.3-0.3h-1.8V252L229.9,252.7L229.9,252.7L229.9,252.7z"/>
	<path class="st4" d="M228.9,263.7c0-0.3-0.3-0.6-0.6-0.6s-0.5,0.3-0.5,0.6c0,0.3,0.3,0.5,0.5,0.5
		C228.6,264.3,228.9,264,228.9,263.7"/>
	<path class="st4" d="M229,263.2v1.1c0,0.4,0.3,0.7,0.7,0.7h1.6c0.2,0,0.3-0.1,0.3-0.2c0-0.2-0.1-0.3-0.3-0.3h-1.4l-0.1-0.1l0.1-0.1
		h4.2c0.2,0,0.3-0.1,0.3-0.3s-0.1-0.3-0.3-0.3h-2.4l-0.1-0.1l0.1-0.1h2.4c0.2,0,0.3-0.1,0.3-0.3s-0.1-0.3-0.3-0.3h-4.2l-0.1-0.1
		l0.1-0.1h1.4c0.2,0,0.3-0.1,0.3-0.2c0-0.2-0.1-0.3-0.3-0.3h-1.6C229.3,262.4,229,262.8,229,263.2"/>
	<path class="st4" d="M229.1,274.4c0-0.3-0.2-0.5-0.5-0.5c-0.3,0-0.5,0.2-0.5,0.5c0,0.3,0.2,0.5,0.5,0.5S229.1,274.7,229.1,274.4"/>
	<path class="st4" d="M233.6,274c0,0.8-0.7,1.5-1.5,1.5c-0.6,0-1.1-0.3-1.3-0.8l-0.6,0.1c0.3,0.7,1.1,1.3,1.9,1.3
		c1.2,0,2.1-0.9,2.1-2.1c0-0.8-0.4-1.4-1-1.8l-0.6,0.3C233.2,272.8,233.6,273.3,233.6,274"/>
	<path class="st4" d="M232.7,270.9c-0.1,0.1-0.2,0.2-0.1,0.3l0.1,0.2l-1.7,0.9v1.5l-0.5,0v-1c0-0.2-0.1-0.3-0.3-0.3
		s-0.3,0.1-0.3,0.3v1.1l-0.8,0.1v0.5l2.4-0.2v-1.7l1.9-1l-0.4-0.7C233,270.9,232.9,270.8,232.7,270.9"/>
	<path class="st4" d="M175.8,166.6c0.2,0,0.4-0.2,0.4-0.4s-0.2-0.4-0.4-0.4s-0.4,0.2-0.4,0.4S175.6,166.6,175.8,166.6"/>
	<path class="st4" d="M179,166.3h-1.3c-0.2,0-0.3,0.1-0.4,0.2l0.2,0.2l-0.1-0.1l-0.1-0.1l0,0l-1,1v-0.3c0-0.2-0.2-0.4-0.4-0.4
		s-0.4,0.2-0.4,0.4v1.2l-0.9,0.9l0,0c-0.1,0.1-0.2,0.1-0.2,0.1h-0.7c-0.4,0-0.7,0.3-0.7,0.7c0,0.4,0.3,0.7,0.7,0.7h1.3
		c0.2,0,0.3-0.1,0.4-0.2l-0.2-0.2l0.2,0.2l2.8-2.8l0,0v0c0.1-0.1,0.2-0.1,0.2-0.1h0.7c0.2,0,0.4-0.1,0.5-0.2
		c0.1-0.1,0.2-0.3,0.2-0.5C179.7,166.6,179.4,166.3,179,166.3 M179.3,167.3c-0.1,0.1-0.2,0.1-0.3,0.1h-0.7c-0.2,0-0.3,0.1-0.5,0.3
		l-2.7,2.7l0,0c-0.1,0.1-0.2,0.1-0.2,0.1h-1.3c-0.1,0-0.2,0-0.3-0.1c-0.1-0.1-0.1-0.2-0.1-0.3c0-0.1,0-0.2,0.1-0.3
		c0.1-0.1,0.2-0.1,0.3-0.1h0.7c0.2,0,0.3-0.1,0.4-0.2l-0.1-0.1l0.1,0.1l2.8-2.8l0,0c0.1-0.1,0.2-0.1,0.2-0.1h1.3
		c0.1,0,0.2,0,0.3,0.1c0.1,0.1,0.1,0.2,0.1,0.3C179.4,167.1,179.3,167.2,179.3,167.3"/>
	<path d="M128.6,215.5c0,2.6-2.1,4.8-4.8,4.8c-2.6,0-4.8-2.1-4.8-4.8s2.1-4.8,4.8-4.8C126.5,210.7,128.6,212.9,128.6,215.5"/>
	<path class="st4" d="M123.4,213.9c0.2,0,0.4-0.2,0.4-0.4s-0.2-0.4-0.4-0.4s-0.4,0.2-0.4,0.4C122.9,213.7,123.1,213.9,123.4,213.9"
		/>
	<path class="st4" d="M126.6,213.5h-1.3c-0.2,0-0.3,0.1-0.4,0.2l0.2,0.2l-0.1-0.1l-0.1-0.1l0,0l-1,1v-0.3c0-0.2-0.2-0.4-0.4-0.4
		c-0.2,0-0.4,0.2-0.4,0.4v1.2l-0.9,0.9l0,0c-0.1,0.1-0.2,0.1-0.2,0.1h-0.7c-0.4,0-0.7,0.3-0.7,0.7s0.3,0.7,0.7,0.7h1.3
		c0.2,0,0.3-0.1,0.4-0.2l-0.2-0.2l0.2,0.2l2.8-2.8l0,0v0c0.1-0.1,0.2-0.1,0.2-0.2h0.7c0.2,0,0.4-0.1,0.5-0.2
		c0.1-0.1,0.2-0.3,0.2-0.5C127.3,213.9,126.9,213.6,126.6,213.5 M126.9,214.5c-0.1,0.1-0.2,0.1-0.3,0.1h-0.7c-0.2,0-0.3,0.1-0.5,0.3
		l-2.7,2.7l0,0c-0.1,0.1-0.2,0.1-0.2,0.1h-1.3c-0.1,0-0.2,0-0.3-0.1c-0.1-0.1-0.1-0.2-0.1-0.3c0-0.1,0-0.2,0.1-0.3
		c0.1-0.1,0.2-0.1,0.3-0.1h0.7c0.2,0,0.3-0.1,0.4-0.2l-0.1-0.1l0.1,0.1l2.8-2.8c0.1-0.1,0.2-0.1,0.2-0.1h1.3c0.1,0,0.2,0,0.3,0.1
		c0.1,0.1,0.1,0.2,0.1,0.3C127,214.3,126.9,214.4,126.9,214.5"/>
	<path d="M203.2,85.8c2.6,0,4.8,2.1,4.8,4.8c0,2.6-2.1,4.8-4.8,4.8s-4.8-2.1-4.8-4.8C198.4,88,200.6,85.8,203.2,85.8"/>
	<path class="st4" d="M202.7,88.9c0.2,0,0.4-0.2,0.4-0.4s-0.2-0.4-0.4-0.4s-0.4,0.2-0.4,0.4S202.5,88.9,202.7,88.9"/>
	<path class="st4" d="M205.9,88.6h-1.3c-0.2,0-0.3,0.1-0.4,0.2l0.2,0.2l-0.1-0.1l-0.1-0.1l0,0l-1,1v-0.3c0-0.2-0.2-0.4-0.4-0.4
		s-0.4,0.2-0.4,0.4v1.2l-0.9,0.9l0,0c-0.1,0.1-0.2,0.1-0.2,0.1h-0.7c-0.4,0-0.7,0.3-0.7,0.7c0,0.4,0.3,0.7,0.7,0.7h1.3
		c0.2,0,0.3-0.1,0.4-0.2l-0.2-0.2l0.2,0.2l2.8-2.8l0,0v0c0.1-0.1,0.2-0.1,0.2-0.2h0.7c0.2,0,0.4-0.1,0.5-0.2
		c0.1-0.1,0.2-0.3,0.2-0.5C206.6,88.9,206.3,88.6,205.9,88.6 M206.2,89.6c-0.1,0.1-0.2,0.1-0.3,0.1h-0.7c-0.2,0-0.3,0.1-0.5,0.3
		l-2.7,2.7c-0.1,0.1-0.2,0.1-0.2,0.1h-1.3c-0.1,0-0.2,0-0.3-0.1c-0.1-0.1-0.1-0.2-0.1-0.3s0-0.2,0.1-0.3c0.1-0.1,0.2-0.1,0.3-0.1
		h0.7c0.2,0,0.3-0.1,0.4-0.2l-0.1-0.1l0.1,0.1l2.8-2.8c0.1-0.1,0.2-0.1,0.2-0.1h1.3c0.1,0,0.2,0,0.3,0.1c0.1,0.1,0.1,0.2,0.1,0.3
		C206.3,89.4,206.3,89.5,206.2,89.6"/>
	<path d="M97,599.6c0,2.6-2.1,4.8-4.8,4.8s-4.8-2.1-4.8-4.8c0-2.6,2.1-4.8,4.8-4.8S97,596.9,97,599.6"/>
	<path class="st4" d="M91.7,597.9c0.2,0,0.4-0.2,0.4-0.4c0-0.2-0.2-0.4-0.4-0.4s-0.4,0.2-0.4,0.4C91.3,597.7,91.5,597.9,91.7,597.9"
		/>
	<path class="st4" d="M94.9,597.6h-1.3c-0.2,0-0.3,0.1-0.4,0.2l0.2,0.2l-0.1-0.1l-0.1-0.1l0,0l-1,1v-0.3c0-0.2-0.2-0.4-0.4-0.4
		c-0.2,0-0.4,0.2-0.4,0.4v1.2l-0.9,0.9l0,0c-0.1,0.1-0.2,0.1-0.2,0.1h-0.7c-0.4,0-0.7,0.3-0.7,0.7c0,0.4,0.3,0.7,0.7,0.7h1.3
		c0.2,0,0.3-0.1,0.4-0.2l-0.2-0.2l0.2,0.2l2.8-2.8l0,0v0c0.1-0.1,0.2-0.1,0.2-0.2h0.7c0.2,0,0.4-0.1,0.5-0.2
		c0.1-0.1,0.2-0.3,0.2-0.5C95.6,597.9,95.3,597.6,94.9,597.6 M95.2,598.6c-0.1,0.1-0.2,0.1-0.3,0.1h-0.7c-0.2,0-0.3,0.1-0.5,0.3
		l-2.7,2.7c-0.1,0.1-0.2,0.1-0.2,0.1h-1.3c-0.1,0-0.2,0-0.3-0.1c-0.1-0.1-0.1-0.2-0.1-0.3s0-0.2,0.1-0.3c0.1-0.1,0.2-0.1,0.3-0.1
		h0.7c0.2,0,0.3-0.1,0.4-0.2l-0.1-0.1l0.1,0.1l2.8-2.8c0.1-0.1,0.2-0.1,0.2-0.1H95c0.1,0,0.2,0,0.3,0.1c0.1,0.1,0.1,0.2,0.1,0.3
		C95.4,598.4,95.3,598.5,95.2,598.6"/>
	<path d="M163.1,434.6c0,2.6-2.1,4.8-4.8,4.8s-4.8-2.1-4.8-4.8s2.1-4.8,4.8-4.8S163.1,431.9,163.1,434.6"/>
	<path d="M345.7,302.4c2.6,0,4.8,2.1,4.8,4.8s-2.1,4.8-4.8,4.8c-2.6,0-4.8-2.1-4.8-4.8S343,302.4,345.7,302.4"/>
	<polygon class="st4" points="347.6,310 347.6,309 346.6,309 346.6,308 345.5,308 345.5,307 344.5,307 344.5,305.9 343.6,305.9 
		343.6,304.4 344.1,304.4 344.1,305.4 345.1,305.4 345.1,306.4 346.1,306.4 346.1,307.5 347.1,307.5 347.1,308.5 348.1,308.5 
		348.1,310 	"/>
	<path class="st4" d="M155.7,433.3l-1,2.6h0.5l0.2-0.6h0.9l0.2,0.6h0.6l-1-2.6H155.7L155.7,433.3z M155.7,434.8l0.2-0.5
		c0.1-0.2,0.1-0.3,0.1-0.4c0,0.1,0.1,0.2,0.1,0.4l0.2,0.5H155.7z"/>
	<polygon class="st4" points="157.1,433.8 157.8,433.8 157.8,435.8 158.3,435.8 158.3,433.8 159,433.8 159,433.3 157.1,433.3 	"/>
	<path class="st4" d="M161.3,433.3l-0.5,1.2c-0.1,0.2-0.1,0.3-0.2,0.4c0-0.1-0.1-0.3-0.2-0.4l-0.5-1.2h-0.5v2.6h0.5v-0.9
		c0-0.1,0-0.5,0-0.6c0,0.1,0.1,0.3,0.2,0.4l0.5,1.1l0.5-1.1c0.1-0.1,0.1-0.3,0.2-0.4c0,0.1,0,0.4,0,0.6v0.9h0.5v-2.6H161.3z"/>
</g>
<g id="Type">
	<g>
		<text transform="matrix(1 0 0 1 235.4971 52.8125)" class="st2 st5 st6">SHOP P1</text>
		<text transform="matrix(1 0 0 1 323.5186 262.6221)" class="st2 st7 st8">FOOD COURT</text>
		<text transform="matrix(1 0 0 1 331.9277 273.9468)" class="st2 st7 st8">BALCONY</text>
		<text transform="matrix(6.123234e-17 -1 1 6.123234e-17 165.2935 220.1826)" class="st2 st7 st9">TOP </text>
		<text transform="matrix(6.123234e-17 -1 1 6.123234e-17 169.8232 221.3818)" class="st2 st7 st9">JUICE</text>
		<text transform="matrix(6.123234e-17 -1 1 6.123234e-17 158.0928 159.1426)" class="st2 st7 st9">MOBILE </text>
		<text transform="matrix(6.123234e-17 -1 1 6.123234e-17 162.6226 159.8037)" class="st2 st7 st9">EXPERTS</text>
		<text transform="matrix(1 0 0 1 201.9854 169.4004)" class="st2 st7 st9">STYLE PLUS</text>
		<text transform="matrix(1 0 0 1 202.7778 173.9302)" class="st2 st7 st9">HAIRCUTS</text>
		<text transform="matrix(1 0 0 1 207.5625 195.3057)" class="st2 st7 st9">ELITE</text>
		<text transform="matrix(1 0 0 1 206.1377 199.8354)" class="st2 st7 st9">SUPPS</text>
		<text transform="matrix(1 0 0 1 228.9189 163.1528)" class="st2 st7 st9">FENGLING </text>
		<text transform="matrix(1 0 0 1 234.6758 167.6831)" class="st2 st7 st9">JOY</text>
		<text transform="matrix(1 0 0 1 316.8369 158.5098)" class="st2 st7 st9">LA PETITE</text>
		<text transform="matrix(1 0 0 1 269.6133 176.667)" class="st2 st7 st9">FOOD COURT</text>
		<text transform="matrix(1 0 0 1 272.3027 181.1968)" class="st2 st7 st9">230 SEATS</text>
		<text transform="matrix(1 0 0 1 292.5459 84.3232)" class="st2 st7 st9">GOZLEME</text>
		<text transform="matrix(1 0 0 1 293.2441 88.8535)" class="st2 st7 st9">TURKISH</text>
		<text transform="matrix(1 0 0 1 294.8291 93.3833)" class="st2 st7 st9">HOUSE</text>
		<text transform="matrix(1 0 0 1 272.0381 82.0205)" class="st2 st7 st9">KUBI&apos;S</text>
		<text transform="matrix(1 0 0 1 271.8311 86.5508)" class="st2 st7 st9">KEBAB</text>
		<text transform="matrix(1 0 0 1 271.5566 91.0801)" class="st2 st7 st9">HOUSE</text>
		<text transform="matrix(1 0 0 1 229.4951 130.5093)" class="st2 st7 st9">SUBWAY</text>
		<text transform="matrix(1 0 0 1 232.166 197.9199)" class="st2 st7 st9">SUSHI</text>
		<text transform="matrix(1 0 0 1 186.4326 263.6602)" class="st2 st7 st10">THE SMELLY</text>
		<text transform="matrix(1 0 0 1 184.7529 269.3223)" class="st2 st7 st10">CHEESECAKE</text>
		<text transform="matrix(1 0 0 1 193.3691 274.9849)" class="st2 st7 st10">SHOP</text>
		<text transform="matrix(1 0 0 1 191.2173 300.5034)" class="st2 st7 st10">PANDA</text>
		<text transform="matrix(1 0 0 1 162.2544 594.8809)" class="st2 st7 st9">BIRKENHEAD</text>
		<text transform="matrix(1 0 0 1 160.2725 599.4102)" class="st2 st7 st9">DRY CLEANING</text>
		<text transform="matrix(1 0 0 1 159.4893 603.9404)" class="st2 st7 st9">&amp; ALTERATIONS</text>
		<text transform="matrix(1 0 0 1 112.6802 555.1123)" class="st2 st7 st9">FLIGHT</text>
		<text transform="matrix(1 0 0 1 111.8213 559.6416)" class="st2 st7 st9">CENTRE</text>
		<text transform="matrix(1 0 0 1 107.3291 528.168)" class="st2 st7 st9">LIQUORLAND</text>
		<text transform="matrix(1 0 0 1 158.5547 538.1719)" class="st2 st7 st9">INDULGE </text>
		<text transform="matrix(1 0 0 1 161.1787 542.7021)" class="st2 st7 st9">NAILS </text>
		<text transform="matrix(1 0 0 1 161.3389 547.2314)" class="st2 st7 st9">&amp; SPA</text>
		<text transform="matrix(1 0 0 1 113.8789 491.627)" class="st2 st7 st9">RISE</text>
		<text transform="matrix(1 0 0 1 106.1968 496.1572)" class="st2 st7 st9">BAKE HOUSE</text>
		<text transform="matrix(1 0 0 1 151.7695 415.0527)" class="st2 st7 st9">KIOSK</text>
		<text transform="matrix(1 0 0 1 99.8267 285.8945)" class="st2 st7 st9">NEXTRA</text>
		<text transform="matrix(1 0 0 1 93.8433 290.4243)" class="st2 st7 st9">NEWSAGENCY</text>
		<text transform="matrix(1 0 0 1 97.9297 255.6855)" class="st2 st7 st9">AMOEBA</text>
		<text transform="matrix(1 0 0 1 101.1104 260.2153)" class="st2 st7 st9">TOYS</text>
		<text transform="matrix(1 0 0 1 96.1743 150.8467)" class="st2 st7 st9">M&amp;I VARIETY</text>
		<text transform="matrix(1 0 0 1 85.4629 76.1792)" class="st2 st7 st9">BIRKENHEAD </text>
		<text transform="matrix(1 0 0 1 81.7261 80.709)" class="st2 st7 st9">MEDICAL CENTRE</text>
		<text transform="matrix(1 0 0 1 129.3184 67.1567)" class="st2 st7 st9">PRICELINE PHARMACY</text>
		<text transform="matrix(1 0 0 1 240.5645 71.8188)" class="st2 st7 st9">BIRKENHEAD</text>
		<text transform="matrix(1 0 0 1 245.2178 76.3486)" class="st2 st7 st9">SHACK</text>
		<text transform="matrix(1 0 0 1 26.5649 581.5264)" class="st2 st7 st11">TRAVELATOR TO</text>
		<text transform="matrix(1 0 0 1 11.9844 590.5869)" class="st2 st7 st11">YELLOW LEVEL CARPARK</text>
		<text transform="matrix(1 0 0 1 112.0293 581.5264)" class="st2 st7 st11">CAR PARK</text>
		<text transform="matrix(1 0 0 1 115.0962 590.5869)" class="st2 st7 st11">(GREEN)</text>
		<text transform="matrix(1 0 0 1 228.8818 20.1968)" class="st2 st7 st6">ALTERNATE ENTRY</text>
		<text transform="matrix(1 0 0 1 196.0962 83.7949)" class="st2 st7 st9">TO ALDI</text>
		<text transform="matrix(1 0 0 1 331.1914 96.2051)" class="st2 st7 st9">TO ALDI</text>
		<text transform="matrix(1 0 0 1 333.3711 100.7344)" class="st2 st7 st9">ONLY</text>
		<text transform="matrix(1 0 0 1 101.2515 232.0547)" class="st2 st7 st9">HOME</text>
		<text transform="matrix(1 0 0 1 98.1938 236.5845)" class="st2 st7 st9">&amp; GIVING</text>
		<text transform="matrix(1 0 0 1 103.2241 195.9478)" class="st2 st7 st9">TYPO</text>
		<text transform="matrix(1 0 0 1 112.0195 319.9727)" class="st2 st7 st9">SIR GROOM</text>
		<text transform="matrix(1 0 0 1 116.8042 324.502)" class="st2 st7 st9">ROOM</text>
		<text transform="matrix(1 0 0 1 276.3799 258.7148)" class="st2 st7 st10">OPORTO</text>
		<text transform="matrix(1 0 0 1 199.5884 134.0391)" class="st2 st7 st9">ERIN TATTOO</text>
		<text transform="matrix(1 0 0 1 198.833 138.5688)" class="st2 st7 st9">&amp; COSMETICS</text>
		<text transform="matrix(6.123234e-17 -1 1 6.123234e-17 170.3516 227.3828)" class="st2 st5 st6">K11</text>
		<text transform="matrix(6.123234e-17 -1 1 6.123234e-17 164.6895 166.248)" class="st2 st5 st6">K12</text>
		<text transform="matrix(1 0 0 1 205.4395 142.6743)" class="st2 st5 st6">SHOP 143</text>
		<text transform="matrix(1 0 0 1 205.5811 177.7432)" class="st2 st5 st6">SHOP 145</text>
		<text transform="matrix(1 0 0 1 231.3066 171.8638)" class="st2 st5 st6">SHOP 154</text>
		<text transform="matrix(1 0 0 1 318.9795 162.502)" class="st2 st5 st6">SHOP 149</text>
		<text transform="matrix(1 0 0 1 294.8672 96.4316)" class="st2 st5 st6">SHOP 158</text>
		<text transform="matrix(1 0 0 1 271.7266 94.8179)" class="st2 st5 st6">SHOP 157</text>
		<text transform="matrix(1 0 0 1 231.3066 134.4355)" class="st2 st5 st6">SHOP 155</text>
		<text transform="matrix(1 0 0 1 231.6934 201.7607)" class="st2 st5 st6">SHOP 153</text>
		<text transform="matrix(1 0 0 1 205.3828 203.4126)" class="st2 st5 st6">SHOP 144</text>
		<text transform="matrix(1 0 0 1 168.0112 608.1025)" class="st2 st5 st6">SHOP 109</text>
		<text transform="matrix(1 0 0 1 113.0483 564.0488)" class="st2 st5 st6">SHOP 110</text>
		<text transform="matrix(1 0 0 1 113.6899 532.085)" class="st2 st5 st6">SHOP 111</text>
		<text transform="matrix(1 0 0 1 160.2441 552.4414)" class="st2 st5 st6">SHOP 114A</text>
		<text transform="matrix(1 0 0 1 111.3403 500.6592)" class="st2 st5 st6">SHOP 111A</text>
		<text transform="matrix(1 0 0 1 106.2817 402.0674)" class="st2 st5 st6">SHOP 113A/113</text>
		<text transform="matrix(1 0 0 1 254.7109 442.5723)" class="st2 st5 st6">SHOP 101</text>
		<text transform="matrix(1 0 0 1 154.5439 419.2998)" class="st2 st5 st6">114B</text>
		<text transform="matrix(1 0 0 1 100.8555 293.916)" class="st2 st5 st6">SHOP 125</text>
		<text transform="matrix(1 0 0 1 100.0908 263.7261)" class="st2 st5 st6">SHOP 126</text>
		<text transform="matrix(1 0 0 1 104.1772 199.1279)" class="st2 st5 st6">SHOP</text>
		<text transform="matrix(1 0 0 1 105.7627 202.5254)" class="st2 st5 st6">129</text>
		<text transform="matrix(1 0 0 1 98.6562 154.7822)" class="st2 st5 st6">SHOP 130–133</text>
		<text transform="matrix(1 0 0 1 87.9736 84.6348)" class="st2 st5 st6">SHOP 134 / 135</text>
		<text transform="matrix(1 0 0 1 143.3325 70.7241)" class="st2 st5 st6">SHOP 136</text>
		<text transform="matrix(1 0 0 1 245.1514 80.0483)" class="st2 st5 st6">SHOP 156</text>
		<polygon class="st2" points="126.3,216.5 126.3,216.5 126.2,216.7 		"/>
		<polygon class="st2" points="125.2,217.2 125.1,217.3 125.2,217.2 125.2,217.2 		"/>
		<polygon class="st2" points="178.7,169.8 178.7,169.8 178.6,169.9 		"/>
		<polygon class="st2" points="177.6,170.4 177.5,170.5 177.6,170.4 177.6,170.4 		"/>
		<text transform="matrix(1 0 0 1 100.1475 240.8218)" class="st2 st5 st6">SHOP 127</text>
		<text transform="matrix(1 0 0 1 253.0879 257.7051)" class="st2 st5 st6">SHOP</text>
		<text transform="matrix(1 0 0 1 255.0322 261.1025)" class="st2 st5 st6">151</text>
		<text transform="matrix(1 0 0 1 116.729 328.1924)" class="st2 st5 st6">SHOP 112</text>
		<text transform="matrix(1 0 0 1 192.8594 304.3726)" class="st2 st5 st6">SHOP 146</text>
		<text transform="matrix(1 0 0 1 192.2461 279.7129)" class="st2 st5 st6">SHOP 146A</text>
		<text transform="matrix(1 0 0 1 282.457 262.8579)" class="st2 st5 st6">SHOP</text>
		<text transform="matrix(1 0 0 1 284.043 266.2554)" class="st2 st5 st6">152</text>
	</g>
	<text transform="matrix(6.123234e-17 -1 1 6.123234e-17 407.2559 388.7324)" class="st2 st7 st12">BIRKENHEAD MARINA</text>
	<text transform="matrix(6.123234e-17 -1 1 6.123234e-17 28.9907 373.6807)" class="st2 st7 st12">ROSEBY STREET</text>
</g>
<g>
	<path class="st13" d="M144.2,501.5c0,0.2,0.2,0.1,0.2,0.1c0.5-0.4,1-0.8,1.4-1.2c0.8-0.6,1.7-1.3,2.5-1.9c0.1-0.1,0.1-0.1,0.2-0.1
		c0.3,0.2,0.5,0,0.7-0.2c1.7-1,3.3-1.8,4.9-2.8c0.1-0.1,0.2-0.1,0.2-0.2c-0.6-0.6-1.1-1.1-1.3-1.9c-0.2-0.7,0.2-1.4,1-1.7
		c1.6-0.5,3.2-1.2,4.6-1.9c1-0.5,1.8-1,2.5-1.8c0.3-0.4,0.8-0.6,1.1-1c0-0.1,0.1-0.1,0.2-0.1c0.3,0.1,0.6-0.2,0.9-0.3
		c0.1,0,0.2-0.1,0.2-0.1c0.4-0.2,0.8-0.3,1-0.7c0.3-0.6,1-0.7,1.7-0.8c2.3-0.3,4.5,0.2,6.4,1.4c0.6,0.4,1.2,0.9,1.7,1.5
		c0.6,1,0.3,1.9-0.7,2.4c-0.3,0.2-0.7,0.2-1.1,0.3c-0.1,0-0.2,0-0.2,0.2c0,0.1-0.2,0.2-0.2,0.2c-0.2,0.2-0.6,0.2-0.8,0.4
		c-0.1,0-0.2,0.1-0.2,0.1c0.2,0.3-0.1,0.2-0.2,0.2c-0.3,0.2-0.6,0.2-1,0.2c-0.2,0-0.2,0.1-0.4,0.2c-0.6,0.4-1.1,0.6-1.7,1
		c-1.1,0.6-2.1,1.4-3.1,2.1c-0.8,0.6-1.6,1.1-2.4,1.6c-0.4,0.2-0.9,0.3-1.4,0.4c-1.6,0.2-3.1-0.2-4.5-0.7c-0.2-0.1-0.2-0.1-0.4,0
		c-1.7,1-3.5,2.1-5.2,3.1c-0.1,0.1-0.3,0.1-0.1,0.3c0.1,0.1-0.1,0.1-0.2,0.2c-1,0.3-1.8,0.7-2.8,1c-1.2,0.5-2.4,0.9-3.6,1.4
		c-0.2,0.1-0.3,0.1-0.5,0.2c-0.1-0.2-0.2-0.3-0.1-0.6c0,0,0.1-0.1,0.2,0c0,0,0.1,0.1,0,0.1c0.1,0,0.1-0.1,0.1-0.1
		C144,501.7,143.9,501.5,144.2,501.5z"/>
	<path class="st14" d="M144.2,501.5c-0.2,0.2,0,0.3-0.2,0.5c0-0.1,0-0.1,0-0.2c-0.1-0.3,0-0.7,0.1-1c0.2-2.1,0.5-4.2,0.7-6.3
		c0-0.2,0-0.3,0-0.4c0-2.3,0-4.6,0-6.9c0-0.1,0-0.2,0-0.2c0-0.2-0.1-0.2-0.2-0.2c-0.4,0-0.9,0.1-1.3,0c-0.1,0-0.2,0.1-0.2,0.2
		c0,0.2,0,0.2,0,0.4c0,2.2,0,4.5,0,6.7c0,1,0.2,1.9,0.2,2.9c0.2,1.6,0.3,3.2,0.6,4.8c0,0.1,0.1,0.2-0.1,0.3c0,0.2,0,0.3,0.1,0.6l0,0
		c-0.6,0-0.6,0-0.6-0.6c-0.4-2.5-0.9-4.9-1.3-7.4c0-0.2,0-0.5,0-0.6c0-2.3,0-4.7,0-7c0-0.2-0.1-0.3-0.3-0.4
		c-1.3-0.2-2.4-0.6-3.5-1.4c-0.8-0.6-1.4-1.3-1.7-2.2c-0.1-0.4-0.1-0.9,0.1-1.3c0.6-1.9,1-3.8,1-5.8c0.1-1.2,0-2.4-0.1-3.6
		c0-0.2,0-0.2-0.2-0.3c-0.6-0.7-1-1.5-1-2.5c0-1,0-2.1,0-3.2c0-1.2,0.6-2.1,1.5-2.8c1.1-0.9,2.5-1.4,3.9-1.7
		c2.1-0.4,4.1-0.3,6.2,0.4c1,0.4,2.1,0.9,2.8,1.8c0.6,0.6,0.8,1.4,0.8,2.2c0,1.1,0,2.2,0,3.4c0,0.6-0.3,1.3-0.7,1.7
		c-0.2,0.2-0.3,0.6-0.4,1c-0.4,3.3-0.1,6.5,1.1,9.6c0.1,0.2,0.1,0.2,0,0.4c-0.2,1.3-1,2.1-1.9,2.8c-1,0.7-2.2,1.1-3.4,1.4
		c-0.2,0.1-0.2,0.1-0.2,0.3c0,2.5,0,4.9,0,7.4c0,0.1,0,0.2-0.1,0.3C145.4,496.7,144.7,499.1,144.2,501.5z"/>
	<path class="st15" d="M143.9,501.8c-0.2-2.5-0.6-5-0.8-7.6c0-0.2,0-0.3,0-0.5c0-2.3,0-4.7,0-7c0-0.2,0-0.3,0.3-0.3
		c0.5,0.1,1,0,1.4,0c0.2,0,0.2,0,0.2,0.2c0,2.5,0.1,4.9,0,7.4c-0.1,1.7-0.4,3.3-0.6,5c-0.1,0.9-0.2,1.7-0.3,2.7
		C143.9,501.8,143.9,501.8,143.9,501.8z"/>
	<path class="st16" d="M149.3,472.7c0,0.5-0.1,1-0.1,1.4c-0.1,2.7,0.2,5.3,1.2,7.9c0.1,0.2,0.1,0.3,0,0.5c-0.3,0.9-0.9,1.4-1.7,1.8
		c-1.1,0.7-2.4,1-3.7,1.2c-1.7,0.2-3.4,0.1-5-0.6c-1-0.4-1.7-0.9-2.3-1.7c-0.2-0.4-0.3-0.8-0.2-1.3c0.6-1.5,0.8-3.1,1-4.7
		c0.2-1.4,0.2-2.6,0.1-4c0-0.3,0-0.3,0.3-0.2c1.8,0.9,3.7,1.1,5.7,1C146.3,473.9,147.8,473.5,149.3,472.7
		C149.2,472.7,149.3,472.7,149.3,472.7z"/>
	<path class="st16" d="M144.3,462.6c1.5,0,2.9,0.2,4.3,1c0.5,0.2,0.9,0.6,1.3,1c0.9,1,0.9,2,0,2.9c-0.6,0.6-1.4,1.1-2.2,1.4
		c-2.5,0.9-5,1-7.5,0c-0.8-0.3-1.5-0.7-2.1-1.4c-0.6-0.8-0.7-1.7-0.2-2.5c0.6-0.9,1.6-1.4,2.6-1.7
		C141.8,462.8,143,462.6,144.3,462.6z"/>
	<path class="st16" d="M150.5,468.4c0.2,1.6-0.3,2.6-1.7,3.4c-1.2,0.6-2.5,1-3.9,1.1c-1.6,0.2-3.1,0-4.5-0.6c-0.6-0.2-1.3-0.6-1.8-1
		c-0.6-0.5-1-1.1-0.9-1.8c0-0.2,0-0.6,0-0.9c1.9,1.6,4.1,2.1,6.5,2C146.4,470.5,148.6,470,150.5,468.4z"/>
	<path class="st15" d="M146.9,477.4c0-0.2,0-0.3,0-0.4c0-0.2,0.2-0.5,0.4-0.5c0.3,0,0.6,0.1,0.6,0.4c0.1,0.7,0.2,1.5,0.2,2.2
		c0,0.3-0.2,0.6-0.4,0.6c-0.3,0.1-0.6-0.1-0.6-0.5C147,478.6,146.9,478,146.9,477.4z"/>
	<path class="st15" d="M146.6,475c0-0.4,0.2-0.6,0.6-0.6c0.4,0,0.6,0.3,0.6,0.6c0,0.4-0.3,0.7-0.6,0.6
		C147,475.7,146.6,475.4,146.6,475z"/>
</g>
<g>
	<path class="st13" d="M280.2,329.7c0,0.2,0.2,0.1,0.2,0.1c0.5-0.4,1-0.8,1.4-1.2c0.8-0.6,1.7-1.3,2.5-1.9c0.1-0.1,0.1-0.1,0.2-0.1
		c0.3,0.2,0.5,0,0.7-0.2c1.7-1,3.3-1.8,4.9-2.8c0.1-0.1,0.2-0.1,0.2-0.2c-0.6-0.6-1.1-1.1-1.3-1.9c-0.2-0.7,0.2-1.4,1-1.7
		c1.6-0.5,3.2-1.2,4.6-1.9c1-0.5,1.8-1,2.5-1.8c0.3-0.4,0.8-0.6,1.1-1c0-0.1,0.1-0.1,0.2-0.1c0.3,0.1,0.6-0.2,0.9-0.3
		c0.1,0,0.2-0.1,0.2-0.1c0.4-0.2,0.8-0.3,1-0.7c0.3-0.6,1-0.7,1.7-0.8c2.3-0.3,4.5,0.2,6.4,1.4c0.6,0.4,1.2,0.9,1.7,1.5
		c0.6,1,0.3,1.9-0.7,2.4c-0.3,0.2-0.7,0.2-1.1,0.3c-0.1,0-0.2,0-0.2,0.2c0,0.1-0.2,0.2-0.2,0.2c-0.2,0.2-0.6,0.2-0.8,0.4
		c-0.1,0-0.2,0.1-0.2,0.1c0.2,0.3-0.1,0.2-0.2,0.2c-0.3,0.2-0.6,0.2-1,0.2c-0.2,0-0.2,0.1-0.4,0.2c-0.6,0.4-1.1,0.6-1.7,1
		c-1.1,0.6-2.1,1.4-3.1,2.1c-0.8,0.6-1.6,1.1-2.4,1.6c-0.4,0.2-0.9,0.3-1.4,0.4c-1.6,0.2-3.1-0.2-4.5-0.7c-0.2-0.1-0.2-0.1-0.4,0
		c-1.7,1-3.5,2.1-5.2,3.1c-0.1,0.1-0.3,0.1-0.1,0.3c0.1,0.1-0.1,0.1-0.2,0.2c-1,0.3-1.8,0.7-2.8,1c-1.2,0.5-2.4,0.9-3.6,1.4
		c-0.2,0.1-0.3,0.1-0.5,0.2c-0.1-0.2-0.2-0.3-0.1-0.6c0,0,0.1-0.1,0.2,0c0,0,0.1,0.1,0,0.1c0.1,0,0.1-0.1,0.1-0.1
		C280.1,330,280,329.7,280.2,329.7z"/>
	<path class="st14" d="M280.2,329.7c-0.2,0.2,0,0.3-0.2,0.5c0-0.1,0-0.1,0-0.2c-0.1-0.3,0-0.7,0.1-1c0.2-2.1,0.5-4.2,0.7-6.3
		c0-0.2,0-0.3,0-0.4c0-2.3,0-4.6,0-6.9c0-0.1,0-0.2,0-0.2c0-0.2-0.1-0.2-0.2-0.2c-0.4,0-0.9,0.1-1.3,0c-0.1,0-0.2,0.1-0.2,0.2
		c0,0.2,0,0.2,0,0.4c0,2.2,0,4.5,0,6.7c0,1,0.2,1.9,0.2,2.9c0.2,1.6,0.3,3.2,0.6,4.8c0,0.1,0.1,0.2-0.1,0.3c0,0.2,0,0.3,0.1,0.6l0,0
		c-0.6,0-0.6,0-0.6-0.6c-0.4-2.5-0.9-4.9-1.3-7.4c0-0.2,0-0.5,0-0.6c0-2.3,0-4.7,0-7c0-0.2-0.1-0.3-0.3-0.4
		c-1.3-0.2-2.4-0.6-3.5-1.4c-0.8-0.6-1.4-1.3-1.7-2.2c-0.1-0.4-0.1-0.9,0.1-1.3c0.6-1.9,1-3.8,1-5.8c0.1-1.2,0-2.4-0.1-3.6
		c0-0.2,0-0.2-0.2-0.3c-0.6-0.7-1-1.5-1-2.5c0-1,0-2.1,0-3.2c0-1.2,0.6-2.1,1.5-2.8c1.1-0.9,2.5-1.4,3.9-1.7
		c2.1-0.4,4.1-0.3,6.2,0.4c1,0.4,2.1,0.9,2.8,1.8c0.6,0.6,0.8,1.4,0.8,2.2c0,1.1,0,2.2,0,3.4c0,0.6-0.3,1.3-0.7,1.7
		c-0.2,0.2-0.3,0.6-0.4,1c-0.4,3.3-0.1,6.5,1.1,9.6c0.1,0.2,0.1,0.2,0,0.4c-0.2,1.3-1,2.1-1.9,2.8c-1,0.7-2.2,1.1-3.4,1.4
		c-0.2,0.1-0.2,0.1-0.2,0.3c0,2.5,0,4.9,0,7.4c0,0.1,0,0.2-0.1,0.3C281.4,325,280.8,327.4,280.2,329.7z"/>
	<path class="st15" d="M279.9,330.1c-0.2-2.5-0.6-5-0.8-7.6c0-0.2,0-0.3,0-0.5c0-2.3,0-4.7,0-7c0-0.2,0-0.3,0.3-0.3
		c0.5,0.1,1,0,1.4,0c0.2,0,0.2,0,0.2,0.2c0,2.5,0.1,4.9,0,7.4c-0.1,1.7-0.4,3.3-0.6,5c-0.1,0.9-0.2,1.7-0.3,2.7
		C280,330.1,279.9,330.1,279.9,330.1z"/>
	<path class="st16" d="M285.4,301c0,0.5-0.1,1-0.1,1.4c-0.1,2.7,0.2,5.3,1.2,7.9c0.1,0.2,0.1,0.3,0,0.5c-0.3,0.9-0.9,1.4-1.7,1.8
		c-1.1,0.7-2.4,1-3.7,1.2c-1.7,0.2-3.4,0.1-5-0.6c-1-0.4-1.7-0.9-2.3-1.7c-0.2-0.4-0.3-0.8-0.2-1.3c0.6-1.5,0.8-3.1,1-4.7
		c0.2-1.4,0.2-2.6,0.1-4c0-0.3,0-0.3,0.3-0.2c1.8,0.9,3.7,1.1,5.7,1C282.4,302.2,283.9,301.8,285.4,301
		C285.2,301,285.3,301,285.4,301z"/>
	<path class="st16" d="M280.3,290.9c1.5,0,2.9,0.2,4.3,1c0.5,0.2,0.9,0.6,1.3,1c0.9,1,0.9,2,0,2.9c-0.6,0.6-1.4,1.1-2.2,1.4
		c-2.5,0.9-5,1-7.5,0c-0.8-0.3-1.5-0.7-2.1-1.4c-0.6-0.8-0.7-1.7-0.2-2.5c0.6-0.9,1.6-1.4,2.6-1.7C277.8,291,279,290.9,280.3,290.9z
		"/>
	<path class="st16" d="M286.5,296.6c0.2,1.6-0.3,2.6-1.7,3.4c-1.2,0.6-2.5,1-3.9,1.1c-1.6,0.2-3.1,0-4.5-0.6c-0.6-0.2-1.3-0.6-1.8-1
		s-1-1.1-0.9-1.8c0-0.2,0-0.6,0-0.9c1.9,1.6,4.1,2.1,6.5,2C282.4,298.7,284.7,298.3,286.5,296.6z"/>
	<path class="st15" d="M282.9,305.7c0-0.2,0-0.3,0-0.4c0-0.2,0.2-0.5,0.4-0.5c0.3,0,0.6,0.1,0.6,0.4c0.1,0.7,0.2,1.5,0.2,2.2
		c0,0.3-0.2,0.6-0.4,0.6c-0.3,0.1-0.6-0.1-0.6-0.5C283,306.8,282.9,306.2,282.9,305.7z"/>
	<path class="st15" d="M282.7,303.3c0-0.4,0.2-0.6,0.6-0.6s0.6,0.3,0.6,0.6c0,0.4-0.3,0.7-0.6,0.6C283,304,282.6,303.7,282.7,303.3z
		"/>
</g>
</svg>
