<?xml version="1.0" encoding="utf-8"?>
<!-- Generator: Adobe Illustrator 24.3.0, SVG Export Plug-In . SVG Version: 6.00 Build 0)  -->
<svg version="1.1" id="Layer_2_1_" xmlns="http://www.w3.org/2000/svg" xmlns:xlink="http://www.w3.org/1999/xlink" x="0px" y="0px"
	 viewBox="0 0 470.7 619.2" style="enable-background:new 0 0 470.7 619.2;" xml:space="preserve">
<style type="text/css">
	.st0{fill:none;stroke:#333333;stroke-width:2;stroke-miterlimit:10;}
	.st1{fill:#010101;}
	.st2{fill:#FFFFFF;}
	.st3{fill:#231F20;}
	.st4{font-family:'Poppins-SemiBold';}
	.st5{font-size:3.7761px;}
	.st6{font-size:7.5522px;}
	.st7{font-family:'Poppins-Regular';}
	.st8{font-size:2.8321px;}
	.st9{font-size:11.3284px;}
	.st10{fill:#C4C6C7;}
	.st11{fill:#5A5A5C;}
	.st12{fill:#FEFEFE;}
	.st13{fill:#FDB0A2;}
</style>
<g id="Lines">
	<g>
		<rect x="155.3" y="93.4" class="st0" width="38.5" height="169.3"/>
		<rect x="156.1" y="278.1" class="st0" width="38.5" height="80.1"/>
		<polygon class="st0" points="209.4,57.3 195,57.3 195,59.6 191,59.6 186.7,55.3 186.7,41.5 191.5,41.5 191.5,24.7 209.4,24.7 		
			"/>
		<polygon class="st0" points="209.4,379.2 209.4,306.2 227.6,306.2 227.6,280 432.8,280 432.8,380.5 		"/>
		<polygon class="st0" points="100.2,463.3 114.7,437.6 131.3,447.1 120.3,466.3 118.1,465.1 117.4,467 106.8,467 		"/>
		<polygon class="st0" points="410.9,206 408.5,255.9 401.7,262.6 209.4,262.6 209.4,206 		"/>
		<polyline class="st0" points="320.3,201.2 219.5,201.2 209.5,191.9 209.5,154.1 320.3,154.1 		"/>
		<rect x="209.5" y="114.5" class="st0" width="52.3" height="39.6"/>
		<polygon class="st0" points="262,24.7 261.8,114.5 209.5,114.5 209.4,24.7 210.5,24.7 		"/>
		<polygon class="st0" points="140.8,36.7 140.9,65.3 88,65.1 88,80.8 37.1,80.8 37.1,18.3 139.7,18.3 139.7,36.7 		"/>
		<polygon class="st0" points="140.8,96.1 140.8,127.9 37.1,127.9 37.1,80.8 88,80.8 88,96.1 		"/>
		<polygon class="st0" points="140.9,65.3 140.8,96.1 88,96.1 88,80.8 88,65.1 		"/>
		<polygon class="st0" points="140.8,127.9 140.9,179.5 121.2,179.5 121.2,157 105.5,157 105.5,155.5 88.1,155.5 88.1,127.9 		"/>
		<polygon class="st0" points="140,185.7 140,214.2 37.1,214.2 37.1,177.7 90.6,177.7 90.6,185.7 		"/>
		<polygon class="st0" points="140,214.2 140.1,261.2 124.5,276.2 37.1,276.2 37.1,214.2 		"/>
		<rect x="79.9" y="306.4" class="st0" width="60.1" height="31.4"/>
		<polyline class="st0" points="140,338 140,373.6 57.3,373.6 57.3,337.8 71,337.8 71,337.8 79.9,337.8 79.9,337.8 140,337.8 		"/>
		<polygon class="st0" points="140,373.6 109.9,425.2 70.1,402.1 70.1,373.6 		"/>
		<polygon class="st0" points="109.9,425.2 96.6,448.7 86.1,442.5 74.2,442.5 74.2,438.3 67.9,438.3 67.9,443 59.2,443 59.2,438 
			37.2,438 37.2,373.8 57.3,373.6 57.3,373.6 70.1,373.6 70.1,402.1 		"/>
		<polygon class="st0" points="94.3,452.5 93.5,454.2 77.4,482.5 68.7,476.9 37.3,476.9 37.3,447.4 87,447.4 		"/>
		<polyline class="st0" points="37.3,504.1 37.3,476.9 68.7,476.9 77.4,482.5 66.2,502.4 66.2,502.4 65.3,504.1 		"/>
		<polyline class="st0" points="65.3,504.1 48.2,534.1 37.3,534.1 37.3,504.1 		"/>
		<polygon class="st0" points="51.4,596.2 56,601 116.5,601 119.9,595.7 116,593.1 123.4,580.3 115.3,580 90.1,516.9 80.9,511.6 
			51.4,562.8 		"/>
		<polygon class="st0" points="117.5,480.6 114.3,480.6 99,480.4 80.9,511.6 90.1,516.9 115.3,580 123.4,580.3 127.7,572.7 
			136.5,577.5 161,535.3 161,514.1 141.9,514.1 141.7,505.5 141.7,479.6 137.5,477.1 119.4,477.1 		"/>
		<polygon class="st0" points="194.4,373.1 194.4,412.2 167.4,412.2 167.4,412.2 147.8,412.2 147.8,406.4 164.7,373.1 		"/>
		<polygon class="st0" points="211.2,439.6 194.5,469.4 156.3,469.4 147.7,463.5 147.8,412.2 194.4,412.2 194.5,430.1 		"/>
		<rect x="37.1" y="321.9" class="st0" width="33.9" height="15.8"/>
		<rect x="37.1" y="306.4" class="st0" width="33.9" height="15.6"/>
		<polyline class="st0" points="320.3,154.1 360.3,154.1 360.3,201.2 320.3,201.2 		"/>
	</g>
</g>
<g id="Type">
	<g>
		<path class="st1" d="M62.4,158c0,2.3-1.9,4.2-4.2,4.2S54,160.3,54,158s1.9-4.2,4.2-4.2S62.4,155.7,62.4,158"/>
		<path class="st2" d="M59,156.2c0.3,0,0.5-0.2,0.5-0.5s-0.2-0.5-0.5-0.5s-0.5,0.2-0.5,0.5C58.4,156,58.7,156.2,59,156.2"/>
		<path class="st2" d="M60.2,159.3c0.2,0,0.4-0.2,0.4-0.4s-0.2-0.4-0.4-0.4s-0.4,0.2-0.4,0.4S60,159.3,60.2,159.3"/>
		<path class="st2" d="M60.5,159.5h-2.2c-0.1,0-0.1,0.1-0.1,0.1c0,0.1,0.1,0.1,0.1,0.1h2.2c0.1,0,0.1-0.1,0.1-0.1
			S60.6,159.5,60.5,159.5"/>
		<path class="st2" d="M58.2,157.4L58.2,157.4L58.2,157.4L58.2,157.4l0.9,0.5c0.1,0,0.2,0,0.3-0.1s0-0.2-0.1-0.3l-0.7-0.4v-0.7
			c0-0.1,0-0.4-0.3-0.5s-0.7-0.1-1.1,0.1c-0.4,0.2-0.6,0.4-0.7,0.7l0,0l-0.7,1.8h0.7v2c0,0.2,0.1,0.3,0.3,0.3s0.3-0.2,0.3-0.3v-2
			l0,0H58l-0.4-1.3c0.1,0,0.2-0.1,0.2-0.1l0.3-0.2v0.3C58.1,157.3,58.1,157.3,58.2,157.4"/>
		<path class="st2" d="M59.4,158.3v0.4h-0.5l0,0l0.2-0.3l0,0c0-0.1,0-0.2-0.1-0.2l-0.6-0.3c-0.1,0-0.2,0-0.2,0.1s0,0.2,0.1,0.2
			l0.3,0.2l-0.2,0.5c0,0.1,0,0.1,0,0.2c0,0.2,0.2,0.4,0.4,0.4l0,0h0.9c0.1,0,0.2-0.1,0.2-0.3l0,0v-0.7c0-0.1-0.1-0.2-0.2-0.2
			S59.4,158.2,59.4,158.3"/>
		<path class="st1" d="M71.5,148.4c0,2.3-1.9,4.2-4.2,4.2s-4.2-1.9-4.2-4.2s1.9-4.2,4.2-4.2S71.5,146.1,71.5,148.4"/>
		<path class="st2" d="M67.4,146.5c0.3,0,0.5-0.2,0.5-0.5s-0.2-0.5-0.5-0.5s-0.5,0.2-0.5,0.5S67.1,146.5,67.4,146.5"/>
		<path class="st2" d="M68,147.3L68,147.3l0.4,1.2c0.1,0.1,0.1,0.2,0.3,0.2c0.1,0,0.2-0.2,0.1-0.3l-0.3-1.2
			c-0.1-0.4-0.3-0.6-0.7-0.6H67c-0.3,0-0.6,0.3-0.7,0.6l-0.3,1.2c0,0.1,0,0.3,0.1,0.3s0.2,0,0.3-0.2l0.3-1.1l0.1-0.1v0.1l-0.6,2.1
			h0.7v1.6c0,0.1,0.1,0.3,0.2,0.3s0.2-0.1,0.2-0.3v-1.5l0.1-0.1v0.1v1.5c0,0.1,0.1,0.3,0.2,0.3s0.2-0.1,0.2-0.3v-1.6h0.7L68,147.3
			L68,147.3L68,147.3z"/>
		<path class="st1" d="M62.4,148.4c0,2.3-1.9,4.2-4.2,4.2s-4.2-1.9-4.2-4.2s1.9-4.2,4.2-4.2S62.4,146.1,62.4,148.4"/>
		<path class="st2" d="M58.2,146.5c0.3,0,0.5-0.2,0.5-0.5s-0.2-0.5-0.5-0.5s-0.5,0.2-0.5,0.5S58,146.5,58.2,146.5"/>
		<path class="st2" d="M58.7,146.6h-1c-0.3,0-0.6,0.3-0.6,0.6v1.4c0,0.1,0.1,0.2,0.2,0.2c0.2,0,0.2-0.1,0.2-0.2v-1.2v-0.1v0.1v3.7
			c0,0.1,0.1,0.3,0.3,0.3s0.2-0.1,0.2-0.3V149v-0.1l0.1,0.1v2.1c0,0.1,0.1,0.3,0.3,0.3c0.1,0,0.2-0.1,0.2-0.3v-3.7l0.1-0.1v0.1v1.2
			c0,0.1,0.1,0.2,0.2,0.2c0.2,0,0.2-0.1,0.2-0.2v-1.4C59.3,146.9,59,146.6,58.7,146.6"/>
		<path class="st1" d="M170.1,94.2c0,2.3-1.9,4.2-4.2,4.2s-4.2-1.9-4.2-4.2c0-2.3,1.9-4.2,4.2-4.2S170.1,91.8,170.1,94.2"/>
		<path class="st2" d="M165.5,92.7c0.2,0,0.4-0.2,0.4-0.4s-0.2-0.4-0.4-0.4s-0.4,0.2-0.4,0.4S165.3,92.7,165.5,92.7"/>
		<path class="st2" d="M168.3,92.4h-1.2c-0.2,0-0.3,0.1-0.4,0.2l0.2,0.2l-0.1-0.1l-0.1-0.1l0,0l-0.9,0.9v-0.3c0-0.2-0.2-0.4-0.4-0.4
			S165,93,165,93.2v1l-0.8,0.8l0,0c-0.1,0.1-0.1,0.1-0.2,0.1h-0.6c-0.3,0-0.6,0.3-0.6,0.6c0,0.3,0.3,0.6,0.6,0.6h1.2
			c0.2,0,0.3-0.1,0.4-0.2l-0.2-0.2l0.2,0.2l2.4-2.4l0,0l0,0c0.1-0.1,0.1-0.1,0.2-0.1h0.6c0.2,0,0.3-0.1,0.4-0.2
			c0.1-0.1,0.2-0.3,0.2-0.4C168.9,92.7,168.7,92.4,168.3,92.4 M168.6,93.3c-0.1,0.1-0.2,0.1-0.2,0.1h-0.6c-0.2,0-0.3,0.1-0.4,0.2
			L165,96l0,0c-0.1,0.1-0.1,0.1-0.2,0.1h-1.2c-0.1,0-0.2,0-0.2-0.1c-0.1-0.1-0.1-0.1-0.1-0.2s0-0.2,0.1-0.2c0.1-0.1,0.2-0.1,0.2-0.1
			h0.6c0.2,0,0.3-0.1,0.4-0.2l-0.1-0.1l0.1,0.1l2.4-2.4c0.1-0.1,0.1-0.1,0.2-0.1h1.2c0.1,0,0.2,0,0.2,0.1c0.1,0.1,0.1,0.2,0.1,0.2
			C168.7,93.1,168.6,93.2,168.6,93.3"/>
		<path class="st1" d="M140.9,453.1c0,2.3-1.9,4.2-4.2,4.2s-4.2-1.9-4.2-4.2c0-2.3,1.9-4.2,4.2-4.2S140.9,450.8,140.9,453.1"/>
		<path class="st2" d="M136.3,451.7c0.2,0,0.4-0.2,0.4-0.4s-0.2-0.4-0.4-0.4s-0.4,0.2-0.4,0.4S136.1,451.7,136.3,451.7"/>
		<path class="st2" d="M139.1,451.4h-1.2c-0.2,0-0.3,0.1-0.4,0.2l0.2,0.2l-0.1-0.1l-0.1-0.1l0,0l-0.9,0.9v-0.3
			c0-0.2-0.2-0.4-0.4-0.4s-0.4,0.2-0.4,0.4v1L135,454l0,0c-0.1,0.1-0.1,0.1-0.2,0.1h-0.6c-0.3,0-0.6,0.3-0.6,0.6s0.3,0.6,0.6,0.6
			h1.2c0.2,0,0.3-0.1,0.4-0.2l-0.2-0.2l0.2,0.2l2.4-2.4l0,0l0,0c0.1-0.1,0.1-0.1,0.2-0.1h0.6c0.2,0,0.3-0.1,0.4-0.2
			c0.1-0.1,0.2-0.3,0.2-0.4C139.7,451.7,139.4,451.4,139.1,451.4 M139.3,452.3c-0.1,0.1-0.2,0.1-0.2,0.1h-0.6
			c-0.2,0-0.3,0.1-0.4,0.2l-2.4,2.4c-0.1,0.1-0.1,0.1-0.2,0.1h-1.2c-0.1,0-0.2,0-0.2-0.1c-0.1-0.1-0.1-0.1-0.1-0.2s0-0.2,0.1-0.2
			c0.1-0.1,0.2-0.1,0.2-0.1h0.6c0.2,0,0.3-0.1,0.4-0.2l-0.1-0.1l0.1,0.1l2.4-2.4c0.1-0.1,0.1-0.1,0.2-0.1h1.2c0.1,0,0.2,0,0.2,0.1
			c0.1,0.1,0.1,0.2,0.1,0.2C139.4,452.1,139.4,452.2,139.3,452.3"/>
		<path class="st1" d="M71.5,158c0,2.3-1.9,4.2-4.2,4.2s-4.2-1.9-4.2-4.2s1.9-4.2,4.2-4.2S71.5,155.7,71.5,158"/>
		<path class="st2" d="M67,156.2c0.3,0,0.5-0.2,0.5-0.5s-0.2-0.5-0.5-0.5s-0.5,0.2-0.5,0.5S66.8,156.2,67,156.2"/>
		<path class="st2" d="M67.4,160.2c-0.7,0-1.3-0.6-1.3-1.3c0-0.5,0.3-0.9,0.7-1.2v-0.5c-0.6,0.3-1.1,0.9-1.1,1.7
			c0,1,0.8,1.9,1.8,1.9c0.7,0,1.2-0.4,1.6-0.9l-0.3-0.5C68.5,159.8,68,160.2,67.4,160.2"/>
		<path class="st2" d="M70,159.4c-0.1-0.1-0.2-0.2-0.3-0.1l-0.2,0.1l-0.8-1.5h-1.3v-0.5h0.9c0.1,0,0.3-0.1,0.3-0.2
			c0-0.1-0.1-0.2-0.3-0.2h-0.9v-0.7h-0.5l0.1,2.1h1.5l0.9,1.6l0.6-0.3C70.1,159.6,70.1,159.5,70,159.4"/>
		<path class="st1" d="M164,497.1c0,2.3-1.9,4.2-4.2,4.2s-4.2-1.9-4.2-4.2c0-2.3,1.9-4.2,4.2-4.2C162.1,493,164,494.8,164,497.1"/>
		<path class="st2" d="M160.5,495.4c0.3,0,0.5-0.2,0.5-0.5s-0.2-0.5-0.5-0.5s-0.5,0.2-0.5,0.5C160,495.1,160.3,495.4,160.5,495.4"/>
		<path class="st2" d="M161.8,498.5c0.2,0,0.4-0.2,0.4-0.4c0-0.2-0.2-0.4-0.4-0.4s-0.4,0.2-0.4,0.4
			C161.4,498.3,161.6,498.5,161.8,498.5"/>
		<path class="st2" d="M162.1,498.7h-2.2c-0.1,0-0.1,0.1-0.1,0.1c0,0.1,0.1,0.1,0.1,0.1h2.2c0.1,0,0.1-0.1,0.1-0.1
			C162.2,498.8,162.1,498.7,162.1,498.7"/>
		<path class="st2" d="M159.8,496.5L159.8,496.5L159.8,496.5L159.8,496.5l0.9,0.5c0.1,0,0.2,0,0.3-0.1s0-0.2-0.1-0.3l-0.7-0.4v-0.7
			c0-0.1,0-0.4-0.3-0.5c-0.2-0.1-0.7-0.1-1.1,0.1c-0.4,0.2-0.6,0.4-0.7,0.7l0,0l-0.7,1.8h0.7v2c0,0.2,0.1,0.3,0.3,0.3
			s0.3-0.2,0.3-0.3v-2l0,0h0.7l-0.4-1.3c0.1,0,0.2-0.1,0.2-0.1c0.1,0,0.3-0.2,0.3-0.2v0.3C159.7,496.4,159.7,496.5,159.8,496.5"/>
		<path class="st2" d="M161,497.5v0.4h-0.5l0,0l0.2-0.3l0,0c0-0.1,0-0.2-0.1-0.2L160,497c-0.1,0-0.2,0-0.2,0.1s0,0.2,0.1,0.2
			l0.3,0.2L160,498c0,0.1,0,0.1,0,0.2c0,0.2,0.2,0.4,0.4,0.4l0,0h0.9c0.1,0,0.2-0.1,0.2-0.3l0,0v-0.7c0-0.1-0.1-0.2-0.2-0.2
			S161,497.4,161,497.5"/>
		<path class="st1" d="M173.1,487.6c0,2.3-1.9,4.2-4.2,4.2s-4.2-1.9-4.2-4.2c0-2.3,1.9-4.2,4.2-4.2
			C171.2,483.4,173.1,485.3,173.1,487.6"/>
		<path class="st2" d="M169,485.6c0.3,0,0.5-0.2,0.5-0.5s-0.2-0.5-0.5-0.5s-0.5,0.2-0.5,0.5S168.7,485.6,169,485.6"/>
		<path class="st2" d="M169.6,486.5L169.6,486.5l0.4,1.2c0.1,0.1,0.1,0.2,0.3,0.2c0.1,0,0.2-0.2,0.1-0.3l-0.3-1.2
			c-0.1-0.4-0.3-0.6-0.7-0.6h-0.7c-0.3,0-0.6,0.3-0.7,0.6l-0.3,1.2c0,0.1,0,0.3,0.1,0.3s0.2,0,0.3-0.2l0.3-1.1l0.1-0.1v0.1l-0.6,2.1
			h0.7v1.6c0,0.1,0.1,0.3,0.2,0.3c0.1,0,0.2-0.1,0.2-0.3v-1.5l0.1-0.1v0.1v1.5c0,0.1,0.1,0.3,0.2,0.3s0.2-0.1,0.2-0.3v-1.6h0.7
			L169.6,486.5L169.6,486.5L169.6,486.5z"/>
		<path class="st1" d="M164,487.6c0,2.3-1.9,4.2-4.2,4.2s-4.2-1.9-4.2-4.2c0-2.3,1.9-4.2,4.2-4.2S164,485.3,164,487.6"/>
		<path class="st2" d="M159.8,485.7c0.3,0,0.5-0.2,0.5-0.5s-0.2-0.5-0.5-0.5s-0.5,0.2-0.5,0.5C159.3,485.4,159.6,485.7,159.8,485.7"
			/>
		<path class="st2" d="M160.3,485.7h-1c-0.3,0-0.6,0.3-0.6,0.6v1.4c0,0.1,0.1,0.2,0.2,0.2c0.2,0,0.2-0.1,0.2-0.2v-1.2v-0.1v0.1v3.7
			c0,0.1,0.1,0.3,0.3,0.3s0.2-0.1,0.2-0.3v-2.1l0.1-0.1l0.1,0.1v2.1c0,0.1,0.1,0.3,0.3,0.3c0.1,0,0.2-0.1,0.2-0.3v-3.7l0.1-0.1v0.1
			v1.2c0,0.1,0.1,0.2,0.2,0.2s0.2-0.1,0.2-0.2v-1.4C160.9,486,160.6,485.7,160.3,485.7"/>
		<path class="st1" d="M173.1,497.1c0,2.3-1.9,4.2-4.2,4.2s-4.2-1.9-4.2-4.2c0-2.3,1.9-4.2,4.2-4.2
			C171.2,493,173.1,494.8,173.1,497.1"/>
		<path class="st2" d="M168.6,495.4c0.3,0,0.5-0.2,0.5-0.5s-0.2-0.5-0.5-0.5s-0.5,0.2-0.5,0.5C168.1,495.2,168.4,495.4,168.6,495.4"
			/>
		<path class="st2" d="M168.9,499.3c-0.7,0-1.3-0.6-1.3-1.3c0-0.5,0.3-0.9,0.7-1.2v-0.5c-0.6,0.3-1.1,0.9-1.1,1.7
			c0,1,0.8,1.9,1.8,1.9c0.7,0,1.2-0.4,1.6-0.9l-0.3-0.5C170.1,499,169.6,499.3,168.9,499.3"/>
		<path class="st2" d="M171.6,498.5c-0.1-0.1-0.2-0.2-0.3-0.1l-0.2,0.1l-0.8-1.5H169v-0.5h0.9c0.1,0,0.3-0.1,0.3-0.2
			s-0.1-0.2-0.3-0.2H169v-0.7h-0.5l0.1,2.1h1.5l0.9,1.6l0.6-0.3C171.6,498.8,171.7,498.7,171.6,498.5"/>
		<path class="st1" d="M135.8,413.7c0,2.3-1.9,4.2-4.2,4.2s-4.2-1.9-4.2-4.2s1.9-4.2,4.2-4.2S135.8,411.4,135.8,413.7"/>
		<path class="st2" d="M132.5,415.8c-0.2,0-0.2-0.1-0.2-0.2s0-0.2,0.1-0.3c0.1,0,0.1,0,0.2,0l0,0v-0.2c-0.1,0-0.1,0-0.2,0h-0.1
			c-0.1-0.2,0-0.5,0.2-1V414c-0.1,0-0.2,0.1-0.3,0.1s-0.2,0.1-0.3,0.1v0.1c-0.1,0.1-0.2,0.1-0.3,0.1h-0.1h-0.1
			c-0.1-0.1-0.2-0.1-0.3-0.2c0.1,0.2,0.1,0.5,0.1,0.7l-0.1,0.1c-0.1,0-0.1,0-0.2,0c0,0.1,0,0.2,0,0.3h0.1c0.1,0,0.2,0,0.2,0.1
			s0,0.2,0,0.3c-0.1,0.1-0.2,0.1-0.3,0.1c-0.2,0-0.2-0.4-0.2-0.7c-0.1,0-0.2,0-0.2,0c-0.1,0-0.2,0-0.2,0v0.1c0,0.2,0.1,0.6-0.2,0.6
			c-0.1,0-0.2,0-0.3-0.1s0-0.2,0-0.3c0,0,0.1-0.1,0.2,0v-0.1v-0.1h-0.1h-0.1v-0.1c0-0.2,0-0.5,0-0.7V414c-0.4,0-0.6,0-0.9-0.1l0,0
			c-0.1,0-0.2,0-0.2,0c-0.1-0.1-0.2-0.3-0.1-0.4c0,0,0.1-0.2,0.4,0c0.1,0.1,0.1,0.2,0.1,0.2v0.1c0.2,0,0.4,0.1,0.6,0.1
			c-0.2-0.2-0.3-0.4-0.3-0.6s0.1-0.4,0.2-0.5l-0.1-0.3v-0.1h0.1l0.1,0.2l0.2-0.1c0-0.1,0-0.2-0.1-0.2v-0.1h0.1
			c0,0.1,0.1,0.2,0.1,0.3c0.1,0,0.2,0,0.2,0c0-0.1,0-0.2,0-0.3l0.1-0.1l0.1,0.1c0,0.1,0,0.2,0,0.3h0.2c0-0.1,0.1-0.2,0.2-0.3h0.1
			v0.1c-0.1,0.1-0.1,0.2-0.1,0.3c0.3,0.1,0.4,0.4,0.4,0.7c0,0.2-0.1,0.4-0.2,0.5l0.1,0.1c0.1,0.1,0.2,0.2,0.3,0.2V414l0.2-0.1
			c0.1,0,0.2,0,0.2,0.1c0.1,0,0.2-0.1,0.3-0.1s0.2-0.1,0.4-0.1c-0.2-0.2-0.4-0.4-0.4-0.7c0-0.2,0.1-0.4,0.2-0.5
			c-0.1,0-0.1-0.1-0.1-0.2v-0.1l-0.1-0.1c-0.1-0.1-0.1-0.3-0.1-0.5v-0.1v-0.1h0.1h0.1c0.2,0.1,0.5,0.2,0.4,0.5h0.1l0.1,0.1
			c0.1,0,0.2-0.1,0.3-0.1l0,0l0.1-0.1l0,0l0.1,0.1l0,0c0.3,0,0.6,0.2,0.7,0.5h0.1c0-0.1,0-0.1,0.1-0.2s0.3-0.1,0.5-0.1l0,0h0.1v0.1
			l-0.1,0.2c0,0.1-0.1,0.3-0.2,0.3h-0.1l-0.1,0.1h-0.1v0.1v0.1v0.1c-0.1,0.2-0.2,0.4-0.5,0.5c0.1,0.1,0.2,0.2,0.3,0.3l0.1,0.1
			c0.1,0,0.1-0.1,0.2-0.1c0.1,0,0.1,0,0.2,0.1c0,0.1,0,0.2-0.1,0.3c-0.1,0.1-0.2,0.1-0.3,0c0,0-0.1-0.1-0.1-0.2v-0.1l-0.1-0.1
			c-0.1-0.1-0.1-0.1-0.2-0.2c0.1,0.5,0.2,0.8,0.1,1c0,0.1-0.1,0.1-0.2,0.1v0.1c0.1,0,0.2,0,0.2,0c0.1,0,0.1,0.2,0.1,0.2
			s-0.1,0.2-0.3,0.2l0,0c-0.1,0-0.2,0-0.2-0.1c-0.1-0.1-0.1-0.3,0-0.4c-0.1,0-0.3,0-0.4,0v0.1c0,0.1,0,0.3,0,0.4
			C132.6,415.7,132.5,415.7,132.5,415.8L132.5,415.8L132.5,415.8z M132.4,414.9c0.3,0.1,0.6,0.1,0.8,0.1h0.1l0,0h0.1
			c0.1-0.2-0.1-0.8-0.2-1c-0.2,0-0.4,0-0.5,0c0,0.1,0,0.1-0.1,0.2C132.5,414.4,132.4,414.8,132.4,414.9 M130.1,414v0.2
			c0,0.2,0,0.4,0,0.6c0.1,0,0.3,0,0.4,0c0.1,0,0.2,0,0.3,0l0.1-0.1h0.1h0.1c0-0.3-0.1-0.6-0.2-0.8C130.6,414,130.3,414,130.1,414
			 M130,412.6c-0.2,0.1-0.4,0.3-0.4,0.6c0,0.3,0.3,0.6,0.7,0.6s0.7-0.3,0.7-0.6s-0.3-0.6-0.7-0.6c-0.1,0-0.2,0-0.2,0H130L130,412.6
			 M132.3,412.9c0,0.1,0,0.1,0,0.2c0,0.4,0.3,0.7,0.8,0.7h0.2h0.1c0.2-0.1,0.4-0.2,0.5-0.4c-0.3-0.1-0.6-0.5-0.7-0.9
			c-0.1,0.1-0.2,0.2-0.3,0.3C132.6,412.9,132.4,413,132.3,412.9 M133.3,412.4c0,0.3,0.2,0.7,0.5,0.8v-0.1l0,0V413
			C133.8,412.7,133.5,412.5,133.3,412.4 M134.2,412.9L134.2,412.9c0,0,0.1-0.1,0.1-0.2v-0.1c-0.1,0-0.2,0-0.2,0.1v0.1L134.2,412.9
			L134.2,412.9 M132.4,412.8c0.1,0,0.2,0,0.3-0.1s0.2-0.2,0.3-0.3C132.7,412.4,132.5,412.6,132.4,412.8 M132.1,411.9
			c0,0.1,0,0.2,0.1,0.3h0.1l0,0l0,0l0,0l0,0C132.4,412.1,132.3,412,132.1,411.9 M133,413.7L133,413.7c-0.3,0-0.5-0.2-0.6-0.5
			l0.1-0.1l0.1,0.1c0.1,0.2,0.3,0.3,0.5,0.4c0.1,0,0.2,0,0.2-0.2h0.1v0.1C133.3,413.6,133.2,413.7,133,413.7 M130.4,413.6
			c-0.2,0-0.4-0.1-0.5-0.2v-0.1h0.1c0.1,0.1,0.3,0.2,0.5,0.2c0.1,0,0.2-0.1,0.2-0.3l0.1-0.1l0.1,0.1c0,0.2-0.2,0.4-0.4,0.4H130.4
			 M133.1,413.3c-0.1,0-0.1-0.1-0.1-0.1c0-0.1,0.1-0.1,0.1-0.1c0.1,0,0.1,0.1,0.1,0.1C133.2,413.3,133.2,413.3,133.1,413.3
			 M132.7,413.2c-0.1,0-0.1-0.1-0.1-0.1c0-0.1,0.1-0.1,0.1-0.1c0.1,0,0.1,0.1,0.1,0.1C132.8,413.2,132.8,413.2,132.7,413.2
			 M130.1,413.1c-0.1,0-0.1-0.1-0.1-0.1c0-0.1,0.1-0.1,0.1-0.1l0.1,0.1C130.3,413.1,130.2,413.1,130.1,413.1 M130.5,413
			c-0.1,0-0.1-0.1-0.1-0.1l0.1-0.1c0.1,0,0.1,0.1,0.1,0.1S130.6,413,130.5,413"/>
		<path class="st3" d="M211.2,403.4c2.3,0,4.2,1.9,4.2,4.2s-1.9,4.2-4.2,4.2s-4.2-1.9-4.2-4.2S208.8,403.4,211.2,403.4"/>
		<path class="st2" d="M210.4,405.8c0-0.1,0.1-0.2,0.2-0.1l2.3,1.8c0.1,0.1,0.1,0.2,0,0.3l-2.3,1.8c-0.1,0.1-0.2,0-0.2-0.1V405.8
			L210.4,405.8z"/>
		<path class="st3" d="M211.2,421.4c-2.3,0-4.2-1.9-4.2-4.2c0-2.3,1.9-4.2,4.2-4.2s4.2,1.9,4.2,4.2S213.5,421.4,211.2,421.4"/>
		<path class="st2" d="M211.9,418.9c0,0.2-0.1,0.2-0.2,0.1l-2.3-1.8c-0.1-0.1-0.1-0.2,0-0.3l2.3-1.8c0.1-0.1,0.2,0,0.2,0.1V418.9
			L211.9,418.9z"/>
		<path class="st3" d="M110,162.2c2.3,0,4.2,1.9,4.2,4.2s-1.9,4.2-4.2,4.2c-2.3,0-4.2-1.9-4.2-4.2
			C105.7,164.1,107.6,162.2,110,162.2"/>
		<path class="st2" d="M109.2,164.6c0-0.1,0.1-0.2,0.2-0.1l2.3,1.8c0.1,0.1,0.1,0.2,0,0.3l-2.3,1.8c-0.1,0.1-0.2,0-0.2-0.1V164.6z"
			/>
		<path class="st3" d="M110,180.2c-2.3,0-4.2-1.9-4.2-4.2s1.9-4.2,4.2-4.2c2.3,0,4.2,1.9,4.2,4.2S112.3,180.2,110,180.2"/>
		<path class="st2" d="M110.7,177.7c0,0.2-0.1,0.2-0.2,0.1l-2.3-1.8c-0.1-0.1-0.1-0.2,0-0.3l2.3-1.8c0.1-0.1,0.2,0,0.2,0.1V177.7z"
			/>
		<path d="M64,282.6c2.3,0,4.2,1.9,4.2,4.2c0,2.3-1.9,4.2-4.2,4.2s-4.2-1.9-4.2-4.2C59.8,284.4,61.7,282.6,64,282.6"/>
		<path class="st2" d="M62.4,285.4l-0.3,1.2l1.4-1.9L62.4,285.4L62.4,285.4z M64.5,287.3L64.5,287.3c0.2-0.3,0.4-0.3,0.5-0.2
			c0.2,0.1,0.2,0.3,0,0.5l-0.1,0.1L64.5,287.3L64.5,287.3z M65.2,287.7c0.1-0.1,0.2-0.3,0.2-0.4s-0.1-0.3-0.2-0.4s-0.3-0.1-0.4-0.1
			s-0.2,0-0.2,0.1c-0.1,0-0.1,0.1-0.2,0.2l-0.2,0.2l1.4,1.1l0.2-0.2l-0.6-0.4L65.2,287.7L65.2,287.7z M66.9,287.2l-1.5,2
			c-0.2,0.2-0.4,0.2-0.7,0.1l-3.2-2.4c-0.2-0.2-0.2-0.4-0.1-0.7l1.5-2c0.2-0.2,0.4-0.2,0.7-0.1l3.2,2.4C67,286.7,67,287,66.9,287.2"
			/>
		<path class="st1" d="M220.3,271.2c2.5,0,4.5,2,4.5,4.5s-2,4.5-4.5,4.5s-4.5-2-4.5-4.5S217.8,271.2,220.3,271.2"/>
		<polygon class="st2" points="222.1,278.4 222.1,277.4 221.1,277.4 221.1,276.5 220.2,276.5 220.2,275.5 219.2,275.5 219.2,274.5 
			218.3,274.5 218.3,273.1 218.8,273.1 218.8,274.1 219.7,274.1 219.7,275 220.7,275 220.7,276 221.6,276 221.6,276.9 222.6,276.9 
			222.6,278.4 		"/>
		<path class="st3" d="M220.3,286.6c2.3,0,4.2,1.9,4.2,4.2c0,2.3-1.9,4.2-4.2,4.2s-4.2-1.9-4.2-4.2S218,286.6,220.3,286.6"/>
		<path class="st2" d="M219.5,289c0-0.1,0.1-0.2,0.2-0.1l2.3,1.8c0.1,0.1,0.1,0.2,0,0.3l-2.3,1.8c-0.1,0.1-0.2,0-0.2-0.1V289
			L219.5,289z"/>
		<path class="st3" d="M220.3,304.5c-2.3,0-4.2-1.9-4.2-4.2c0-2.3,1.9-4.2,4.2-4.2s4.2,1.9,4.2,4.2S222.6,304.5,220.3,304.5"/>
		<path class="st2" d="M221,302.1c0,0.2-0.1,0.2-0.2,0.1l-2.3-1.8c-0.1-0.1-0.1-0.2,0-0.3l2.3-1.8c0.1-0.1,0.2,0,0.2,0.1V302.1
			L221,302.1z"/>
	</g>
	<g>
		<text transform="matrix(1 0 0 1 168.7383 270.8765)" class="st3 st4 st5">BRIDGE</text>
		<text transform="matrix(1 0 0 1 225.7197 70.0532)" class="st3 st4 st5">SHERIDAN</text>
		<text transform="matrix(1 0 0 1 227.542 133.6709)" class="st3 st4 st5">PAPAYA</text>
		<text transform="matrix(1 0 0 1 266.4834 176.5586)" class="st3 st4 st5">ADAIRS</text>
		<text transform="matrix(1 0 0 1 308.0391 233.5967)" class="st3 st4 st5">COTTON ON</text>
		<text transform="matrix(1 0 0 1 313.8359 238.1279)" class="st3 st4 st5">MEGA</text>
		<text transform="matrix(1 -3.490658e-04 3.490658e-04 1 166.7565 393.441)" class="st3 st4 st5">HYPE D.C</text>
		<text transform="matrix(1 0 0 1 166.6895 439.8301)" class="st3 st4 st5">MACPAC</text>
		<text transform="matrix(1 0 0 1 114.6357 519.3457)" class="st3 st4 st5">PUMA</text>
		<text transform="matrix(1 0 0 1 72.3525 568.3125)" class="st3 st4 st5">KATHMANDU</text>
		<text transform="matrix(1 0 0 1 40.1709 498.3408)" class="st3 st4 st5">ICEBREAKER</text>
		<text transform="matrix(1 0 0 1 50.8384 458.4463)" class="st3 st4 st5">THE ACADEMY</text>
		<text transform="matrix(1 0 0 1 57.626 462.9775)" class="st3 st4 st5">BRAND</text>
		<text transform="matrix(1 -1.745329e-04 1.745329e-04 1 48.2045 409.5642)" class="st3 st4 st5">SUPERDRY</text>
		<text transform="matrix(1 -1.745329e-04 1.745329e-04 1 93.1875 390.3434)" class="st3 st4 st5">ADVENTURE</text>
		<text transform="matrix(1 -1.745329e-04 1.745329e-04 1 92.8109 394.8748)" class="st3 st4 st5">MEGASTORE</text>
		<text transform="matrix(1 0 0 1 92.9609 354.2158)" class="st3 st4 st5">NEW BALANCE</text>
		<text transform="matrix(1 0 0 1 67.5288 246.2466)" class="st3 st4 st5">BED BATH Nʼ TABLE</text>
		<text transform="matrix(1 0 0 1 75.6475 194.8252)" class="st3 st4 st5">SKECHERS</text>
		<text transform="matrix(1 0 0 1 68.9922 108.7109)" class="st3 st4 st5">ASICS</text>
		<text transform="matrix(1 0 0 1 70.2285 48.3027)" class="st3 st4 st5">ADIDAS</text>
		<text transform="matrix(1 0 0 1 102.373 81.0132)" class="st3 st4 st5">LEE WRANGLER</text>
		<text transform="matrix(1 0 0 1 104.2988 140.6191)" class="st3 st4 st5">THE NORTH</text>
		<text transform="matrix(1 0 0 1 109.9155 145.1504)" class="st3 st4 st5">FACE</text>
		<text transform="matrix(1 -1.745329e-04 1.745329e-04 1 98.4361 320.3719)" class="st3 st4 st5">INSPORT</text>
		<text transform="matrix(1 0 0 1 311.3906 329)" class="st3 st4 st5">SPOTLIGHT</text>
		<text transform="matrix(1 0 0 1 41.0581 289.1621)" class="st3 st4 st5">BRIDGE TO</text>
		<text transform="matrix(1 0 0 1 41.8604 293.6938)" class="st3 st4 st5">CARPARK</text>
		<text transform="matrix(6.123234e-17 -1 1 6.123234e-17 43.5503 566.5098)" class="st3 st4 st6">ENTRY</text>
		<text transform="matrix(0.5137 -0.858 0.858 0.5137 84.908 481.8866)" class="st3 st4 st5">TO STREET</text>
		<text transform="matrix(0.5137 -0.858 0.858 0.5137 91.0994 480.368)" class="st3 st4 st5">LEVEL</text>
		<text transform="matrix(1 -1.745329e-04 1.745329e-04 1 127.4276 288.4541)" class="st3 st4 st5">TO STREET</text>
		<text transform="matrix(1 -1.745329e-04 1.745329e-04 1 131.9122 292.9851)" class="st3 st4 st5">LEVEL</text>
		<text transform="matrix(1 0 0 1 192.7827 45.6499)" class="st3 st4 st5">CAFÉ </text>
		<text transform="matrix(1 0 0 1 187.8452 50.1812)" class="st3 st4 st5">MILLIGRAM</text>
		<text transform="matrix(1 0 0 1 225.3896 73.895)" class="st3 st7 st8">SHOP 326/327</text>
		<text transform="matrix(1 0 0 1 228.4292 137.3716)" class="st3 st7 st8">SHOP 325</text>
		<text transform="matrix(1 0 0 1 265.7373 180.3438)" class="st3 st7 st8">SHOP 300A</text>
		<text transform="matrix(1 0 0 1 311.7305 242.0649)" class="st3 st7 st8">SHOP 300B</text>
		<text transform="matrix(1 0 0 1 228.7314 296.0444)" class="st3 st7 st5">TO SPOTLIGHT ONLY</text>
		<text transform="matrix(1 -1.745329e-04 1.745329e-04 1 165.2831 397.8582)" class="st3 st7 st8">SHOP 335/336</text>
		<text transform="matrix(1 0 0 1 168.5684 444.1152)" class="st3 st7 st8">SHOP 337</text>
		<text transform="matrix(1 0 0 1 110.2368 523.877)" class="st3 st7 st8">SHOP 338/339</text>
		<text transform="matrix(1 0 0 1 77.7715 573.5986)" class="st3 st7 st8">SHOP 340</text>
		<text transform="matrix(1 0 0 1 41.917 502.4854)" class="st3 st7 st8">SHOP 330/331</text>
		<text transform="matrix(1 0 0 1 57.541 466.584)" class="st3 st7 st8">SHOP 332</text>
		<text transform="matrix(1 -1.745329e-04 1.745329e-04 1 51.178 413.9543)" class="st3 st7 st8">SHOP 333</text>
		<text transform="matrix(1 -1.745329e-04 1.745329e-04 1 93.9616 399.397)" class="st3 st7 st8">SHOP 314 / 334</text>
		<text transform="matrix(1 0 0 1 100.126 358.7754)" class="st3 st7 st8">SHOP 313</text>
		<text transform="matrix(1 0 0 1 74.1084 251.0898)" class="st3 st7 st8">SHOP 308 / 309</text>
		<text transform="matrix(1 0 0 1 74.5522 198.7241)" class="st3 st7 st8">SHOP 306 / 307</text>
		<text transform="matrix(1 0 0 1 67.9346 112.7798)" class="st3 st7 st8">SHOP 303</text>
		<text transform="matrix(1 0 0 1 71.0215 52.3804)" class="st3 st7 st8">SHOP 301</text>
		<text transform="matrix(1 0 0 1 109.4531 84.9214)" class="st3 st7 st8">SHOP 302</text>
		<text transform="matrix(1 0 0 1 191.376 53.438)" class="st3 st7 st8">SHOP 328</text>
		<text transform="matrix(1 0 0 1 104.2139 149.5874)" class="st3 st7 st8">SHOP 304 / 305</text>
		<text transform="matrix(1 -1.745329e-04 1.745329e-04 1 97.0389 325.0635)" class="st3 st7 st8">SHOP 311 / 312</text>
		<text transform="matrix(1 0 0 1 315.1953 333.0508)" class="st3 st7 st8">SHOP 100</text>
		<text transform="matrix(1 -1.745329e-04 1.745329e-04 1 108.8114 453.6972)" class="st3 st7 st5">KIOSK K5</text>
		<text transform="matrix(6.123234e-17 -1 1 6.123234e-17 450.7764 387.8896)" class="st3 st4 st9">BIRKENHEAD MARINA</text>
		<text transform="matrix(6.123234e-17 -1 1 6.123234e-17 22.8101 371.8037)" class="st3 st4 st9">ROSEBY STREET</text>
	</g>
</g>
<g>
	<path class="st10" d="M155.7,366.3c0,0.2,0.2,0.1,0.2,0.1c0.5-0.4,1-0.8,1.4-1.2c0.8-0.6,1.7-1.3,2.5-1.9c0.1-0.1,0.1-0.1,0.2-0.1
		c0.3,0.2,0.5,0,0.7-0.2c1.7-1,3.3-1.8,4.9-2.8c0.1-0.1,0.2-0.1,0.2-0.2c-0.6-0.6-1.1-1.1-1.3-1.9c-0.2-0.7,0.2-1.4,1-1.7
		c1.6-0.5,3.2-1.2,4.6-1.9c1-0.5,1.8-1,2.5-1.8c0.3-0.4,0.8-0.6,1.1-1c0-0.1,0.1-0.1,0.2-0.1c0.3,0.1,0.6-0.2,0.9-0.3
		c0.1,0,0.2-0.1,0.2-0.1c0.4-0.2,0.8-0.3,1-0.7c0.3-0.6,1-0.7,1.7-0.8c2.3-0.3,4.5,0.2,6.4,1.4c0.6,0.4,1.2,0.9,1.7,1.5
		c0.6,1,0.3,1.9-0.7,2.4c-0.3,0.2-0.7,0.2-1.1,0.3c-0.1,0-0.2,0-0.2,0.2c0,0.1-0.2,0.2-0.2,0.2c-0.2,0.2-0.6,0.2-0.8,0.4
		c-0.1,0-0.2,0.1-0.2,0.1c0.2,0.3-0.1,0.2-0.2,0.2c-0.3,0.2-0.6,0.2-1,0.2c-0.2,0-0.2,0.1-0.4,0.2c-0.6,0.4-1.1,0.6-1.7,1
		c-1.1,0.6-2.1,1.4-3.1,2.1c-0.8,0.6-1.6,1.1-2.4,1.6c-0.4,0.2-0.9,0.3-1.4,0.4c-1.6,0.2-3.1-0.2-4.5-0.7c-0.2-0.1-0.2-0.1-0.4,0
		c-1.7,1-3.5,2.1-5.2,3.1c-0.1,0.1-0.3,0.1-0.1,0.3c0.1,0.1-0.1,0.1-0.2,0.2c-1,0.3-1.8,0.7-2.8,1c-1.2,0.5-2.4,0.9-3.6,1.4
		c-0.2,0.1-0.3,0.1-0.5,0.2c-0.1-0.2-0.2-0.3-0.1-0.6c0,0,0.1-0.1,0.2,0c0,0,0.1,0.1,0,0.1c0.1,0,0.1-0.1,0.1-0.1
		C155.6,366.5,155.5,366.3,155.7,366.3z"/>
	<path class="st11" d="M155.7,366.3c-0.2,0.2,0,0.3-0.2,0.5c0-0.1,0-0.1,0-0.2c-0.1-0.3,0-0.7,0.1-1c0.2-2.1,0.5-4.2,0.7-6.3
		c0-0.2,0-0.3,0-0.4c0-2.3,0-4.6,0-6.9c0-0.1,0-0.2,0-0.2c0-0.2-0.1-0.2-0.2-0.2c-0.4,0-0.9,0.1-1.3,0c-0.1,0-0.2,0.1-0.2,0.2
		c0,0.2,0,0.2,0,0.4c0,2.2,0,4.5,0,6.7c0,1,0.2,1.9,0.2,2.9c0.2,1.6,0.3,3.2,0.6,4.8c0,0.1,0.1,0.2-0.1,0.3c0,0.2,0,0.3,0.1,0.6l0,0
		c-0.6,0-0.6,0-0.6-0.6c-0.4-2.5-0.9-4.9-1.3-7.4c0-0.2,0-0.5,0-0.6c0-2.3,0-4.7,0-7c0-0.2-0.1-0.3-0.3-0.4
		c-1.3-0.2-2.4-0.6-3.5-1.4c-0.8-0.6-1.4-1.3-1.7-2.2c-0.1-0.4-0.1-0.9,0.1-1.3c0.6-1.9,1-3.8,1-5.8c0.1-1.2,0-2.4-0.1-3.6
		c0-0.2,0-0.2-0.2-0.3c-0.6-0.7-1-1.5-1-2.5s0-2.1,0-3.2c0-1.2,0.6-2.1,1.5-2.8c1.1-0.9,2.5-1.4,3.9-1.7c2.1-0.4,4.1-0.3,6.2,0.4
		c1,0.4,2.1,0.9,2.8,1.8c0.6,0.6,0.8,1.4,0.8,2.2c0,1.1,0,2.2,0,3.4c0,0.6-0.3,1.3-0.7,1.7c-0.2,0.2-0.3,0.6-0.4,1
		c-0.4,3.3-0.1,6.5,1.1,9.6c0.1,0.2,0.1,0.2,0,0.4c-0.2,1.3-1,2.1-1.9,2.8c-1,0.7-2.2,1.1-3.4,1.4c-0.2,0.1-0.2,0.1-0.2,0.3
		c0,2.5,0,4.9,0,7.4c0,0.1,0,0.2-0.1,0.3C156.9,361.5,156.3,363.9,155.7,366.3z"/>
	<path class="st12" d="M155.4,366.6c-0.2-2.5-0.6-5-0.8-7.6c0-0.2,0-0.3,0-0.5c0-2.3,0-4.7,0-7c0-0.2,0-0.3,0.3-0.3
		c0.5,0.1,1,0,1.4,0c0.2,0,0.2,0,0.2,0.2c0,2.5,0.1,4.9,0,7.4c-0.1,1.7-0.4,3.3-0.6,5c-0.1,0.9-0.2,1.7-0.3,2.7
		C155.5,366.6,155.4,366.6,155.4,366.6z"/>
	<path class="st13" d="M160.9,337.5c0,0.5-0.1,1-0.1,1.4c-0.1,2.7,0.2,5.3,1.2,7.9c0.1,0.2,0.1,0.3,0,0.5c-0.3,0.9-0.9,1.4-1.7,1.8
		c-1.1,0.7-2.4,1-3.7,1.2c-1.7,0.2-3.4,0.1-5-0.6c-1-0.4-1.7-0.9-2.3-1.7c-0.2-0.4-0.3-0.8-0.2-1.3c0.6-1.5,0.8-3.1,1-4.7
		c0.2-1.4,0.2-2.6,0.1-4c0-0.3,0-0.3,0.3-0.2c1.8,0.9,3.7,1.1,5.7,1C157.9,338.7,159.4,338.3,160.9,337.5
		C160.8,337.5,160.8,337.5,160.9,337.5z"/>
	<path class="st13" d="M155.8,327.4c1.5,0,2.9,0.2,4.3,1c0.5,0.2,0.9,0.6,1.3,1c0.9,1,0.9,2,0,2.9c-0.6,0.6-1.4,1.1-2.2,1.4
		c-2.5,0.9-5,1-7.5,0c-0.8-0.3-1.5-0.7-2.1-1.4c-0.6-0.8-0.7-1.7-0.2-2.5c0.6-0.9,1.6-1.4,2.6-1.7
		C153.4,327.5,154.6,327.4,155.8,327.4z"/>
	<path class="st13" d="M162,333.1c0.2,1.6-0.3,2.6-1.7,3.4c-1.2,0.6-2.5,1-3.9,1.1c-1.6,0.2-3.1,0-4.5-0.6c-0.6-0.2-1.3-0.6-1.8-1
		c-0.6-0.5-1-1.1-0.9-1.8c0-0.2,0-0.6,0-0.9c1.9,1.6,4.1,2.1,6.5,2C158,335.3,160.2,334.8,162,333.1z"/>
	<path class="st12" d="M158.5,342.2c0-0.2,0-0.3,0-0.4c0-0.2,0.2-0.5,0.4-0.5c0.3,0,0.6,0.1,0.6,0.4c0.1,0.7,0.2,1.5,0.2,2.2
		c0,0.3-0.2,0.6-0.4,0.6c-0.3,0.1-0.6-0.1-0.6-0.5C158.5,343.4,158.5,342.7,158.5,342.2z"/>
	<path class="st12" d="M158.2,339.8c0-0.4,0.2-0.6,0.6-0.6s0.6,0.3,0.6,0.6c0,0.4-0.3,0.7-0.6,0.6
		C158.5,340.5,158.1,340.2,158.2,339.8z"/>
</g>
</svg>
